solid OpenSCAD_Model
  facet normal -0.053783 -0.993689 -0.0984404
    outer loop
      vertex 115.199 -6 -26.3633
      vertex -0.534091 -2.5 1.5374
      vertex 0.497547 -2.5 0.973765
    endloop
  endfacet
  facet normal -0.029688 -0.999544 0.00558278
    outer loop
      vertex -0.450417 -2.5 1.98236
      vertex -0.534091 -2.5 1.5374
      vertex 18.8708 -3.09811 -2.35721
    endloop
  endfacet
  facet normal -0.982774 -2.90386e-08 0.184809
    outer loop
      vertex -0.450417 -2.5 1.98236
      vertex -0.316834 -2.00818 2.69272
      vertex -0.534091 -1.5803 1.5374
    endloop
  endfacet
  facet normal -0.982774 0 0.184809
    outer loop
      vertex -0.450417 -2.5 1.98236
      vertex -0.534091 -1.5803 1.5374
      vertex -0.534091 -2.5 1.5374
    endloop
  endfacet
  facet normal -0.982774 0 0.184809
    outer loop
      vertex -0.316834 -2.00818 2.69272
      vertex -0.450417 -2.5 1.98236
      vertex -0.316834 -2.23688 2.69272
    endloop
  endfacet
  facet normal 0.167961 -8.25476e-08 0.985794
    outer loop
      vertex 117.878 -2.56629 -17.0964
      vertex 28.4143 -2.43794 -1.85348
      vertex 117.829 -3.4558 -17.0881
    endloop
  endfacet
  facet normal 0.167961 3.02619e-07 0.985794
    outer loop
      vertex 28.4143 -2.43794 -1.85348
      vertex 117.878 -2.56629 -17.0964
      vertex 2.5746 -2.1438 2.54912
    endloop
  endfacet
  facet normal 0.167963 0 0.985793
    outer loop
      vertex 118.119 -0.0147757 -17.1374
      vertex 117.878 -2.56629 -17.0964
      vertex 118.119 -5.97811 -17.1374
    endloop
  endfacet
  facet normal 0.167964 -1.11492e-07 0.985793
    outer loop
      vertex 118.119 -0.0147757 -17.1374
      vertex 117.871 -0.0125268 -17.0953
      vertex 117.878 -2.56629 -17.0964
    endloop
  endfacet
  facet normal 0.167944 -0.00222334 0.985794
    outer loop
      vertex 118.129 -0.0145291 -17.1392
      vertex 117.871 -0.0125268 -17.0953
      vertex 118.119 -0.0147757 -17.1374
    endloop
  endfacet
  facet normal 0.167961 -5.08366e-06 0.985794
    outer loop
      vertex 117.871 -0.0125268 -17.0953
      vertex 118.129 -0.0145291 -17.1392
      vertex 118.857 -5.55112e-16 -17.2632
    endloop
  endfacet
  facet normal 0.167961 -1.08038e-07 0.985794
    outer loop
      vertex 117.829 -3.4558 -17.0881
      vertex 118.119 -5.97811 -17.1374
      vertex 117.878 -2.56629 -17.0964
    endloop
  endfacet
  facet normal 0.167961 -1.51885e-07 0.985794
    outer loop
      vertex 118.119 -5.97811 -17.1374
      vertex 117.829 -3.4558 -17.0881
      vertex 117.786 -5.96824 -17.0808
    endloop
  endfacet
  facet normal -0.0308727 -0.999523 -0.000322896
    outer loop
      vertex 18.8708 -3.09811 -2.35721
      vertex -0.534091 -2.5 1.5374
      vertex 71.1061 -4.70774 -14.0689
    endloop
  endfacet
  facet normal -0.0320026 0.996312 -0.0796089
    outer loop
      vertex 117.009 -2.77556e-15 -27.091
      vertex 0.497547 -1.5 0.973765
      vertex 115.199 -2.66449e-15 -26.3633
    endloop
  endfacet
  facet normal -0.0339506 -0.999319 -0.0144812
    outer loop
      vertex 113.805 -6 -24.9983
      vertex 71.1061 -4.70774 -14.0689
      vertex -0.534091 -2.5 1.5374
    endloop
  endfacet
  facet normal -0.0339506 -0.999319 -0.014481
    outer loop
      vertex 71.1061 -4.70774 -14.0689
      vertex 113.805 -6 -24.9983
      vertex 85.5816 -5.15254 -17.311
    endloop
  endfacet
  facet normal -0.0339506 -0.999319 -0.0144811
    outer loop
      vertex 85.5816 -5.15254 -17.311
      vertex 113.805 -6 -24.9983
      vertex 113.161 -6 -23.4879
    endloop
  endfacet
  facet normal -0.0231692 0.998832 -0.0424071
    outer loop
      vertex 8.69885 -1.38033 -0.68846
      vertex 0.497547 -1.5 0.973765
      vertex 0.0789093 -1.5 1.20249
    endloop
  endfacet
  facet normal -0.0231692 0.998832 -0.0424073
    outer loop
      vertex 0.497547 -1.5 0.973765
      vertex 8.69885 -1.38033 -0.68846
      vertex 115.199 -2.66449e-15 -26.3633
    endloop
  endfacet
  facet normal -0.479459 0 -0.877565
    outer loop
      vertex 0.497547 -2.5 0.973765
      vertex 0.0789093 -1.5 1.20249
      vertex 0.497547 -1.5 0.973765
    endloop
  endfacet
  facet normal -0.479459 1.29035e-08 -0.877565
    outer loop
      vertex -0.534091 -2.5 1.5374
      vertex 0.0789093 -1.5 1.20249
      vertex 0.497547 -2.5 0.973765
    endloop
  endfacet
  facet normal -0.479459 0 -0.877565
    outer loop
      vertex 0.0789093 -1.5 1.20249
      vertex -0.534091 -2.5 1.5374
      vertex -0.534091 -1.5803 1.5374
    endloop
  endfacet
  facet normal -0.234178 0 -0.972194
    outer loop
      vertex 0.497547 -2.5 0.973765
      vertex 117.009 -2.77556e-15 -27.091
      vertex 117.009 -6 -27.091
    endloop
  endfacet
  facet normal -0.234178 0 -0.972194
    outer loop
      vertex 117.009 -2.77556e-15 -27.091
      vertex 0.497547 -2.5 0.973765
      vertex 0.497547 -1.5 0.973765
    endloop
  endfacet
  facet normal -0.0734804 -0.980403 -0.182788
    outer loop
      vertex 115.199 -6 -26.3633
      vertex 0.497547 -2.5 0.973765
      vertex 117.009 -6 -27.091
    endloop
  endfacet
  facet normal -0.127931 0 0.991783
    outer loop
      vertex 0.784908 -2.13036 2.83484
      vertex -0.316834 -2.00818 2.69272
      vertex -0.316834 -2.23688 2.69272
    endloop
  endfacet
  facet normal 0 -1 0
    outer loop
      vertex 113.805 -6 -24.9983
      vertex 116.494 -6 -23.9507
      vertex 113.161 -6 -23.4879
    endloop
  endfacet
  facet normal 0 -1 0
    outer loop
      vertex 116.494 -6 -23.9507
      vertex 113.805 -6 -24.9983
      vertex 115.199 -6 -26.3633
    endloop
  endfacet
  facet normal 0 -1 0
    outer loop
      vertex 116.494 -6 -23.9507
      vertex 120.754 -6 -26.3051
      vertex 122.119 -6 -24.9112
    endloop
  endfacet
  facet normal 0 -1 0
    outer loop
      vertex 117.009 -6 -27.091
      vertex 116.494 -6 -23.9507
      vertex 115.199 -6 -26.3633
    endloop
  endfacet
  facet normal 0 -1 0
    outer loop
      vertex 116.494 -6 -23.9507
      vertex 118.96 -6 -27.0705
      vertex 120.754 -6 -26.3051
    endloop
  endfacet
  facet normal 0 -1 0
    outer loop
      vertex 116.494 -6 -23.9507
      vertex 117.009 -6 -27.091
      vertex 118.96 -6 -27.0705
    endloop
  endfacet
  facet normal 0 -1 0
    outer loop
      vertex 116.494 -6 -23.9507
      vertex 118.857 -6 -17.2632
      vertex 117.749 -6 -17.2748
    endloop
  endfacet
  facet normal 0 -1 -0
    outer loop
      vertex 118.857 -6 -17.2632
      vertex 116.494 -6 -23.9507
      vertex 120.667 -6 -17.9909
    endloop
  endfacet
  facet normal 0 -1 -0
    outer loop
      vertex 120.667 -6 -17.9909
      vertex 116.494 -6 -23.9507
      vertex 122.061 -6 -19.3559
    endloop
  endfacet
  facet normal 0 -1 -0
    outer loop
      vertex 122.061 -6 -19.3559
      vertex 116.494 -6 -23.9507
      vertex 122.826 -6 -21.1503
    endloop
  endfacet
  facet normal 0 -1 -0
    outer loop
      vertex 122.826 -6 -21.1503
      vertex 116.494 -6 -23.9507
      vertex 122.847 -6 -23.1011
    endloop
  endfacet
  facet normal 0 -1 0
    outer loop
      vertex 122.847 -6 -23.1011
      vertex 116.494 -6 -23.9507
      vertex 122.119 -6 -24.9112
    endloop
  endfacet
  facet normal -0.00169506 -0.986817 0.161832
    outer loop
      vertex 117.786 -5.96824 -17.0808
      vertex 117.767 -5.98445 -17.1798
      vertex 118.119 -5.97811 -17.1374
    endloop
  endfacet
  facet normal -0.0400527 -0.99836 -0.0409005
    outer loop
      vertex 113.805 -6 -24.9983
      vertex -0.534091 -2.5 1.5374
      vertex 115.199 -6 -26.3633
    endloop
  endfacet
  facet normal -2.7397e-17 1 -2.20785e-16
    outer loop
      vertex 116.568 -2.11062e-15 -24.0246
      vertex 118.857 -5.55112e-16 -17.2632
      vertex 120.667 -6.66176e-16 -17.9909
    endloop
  endfacet
  facet normal -2.73971e-17 1 -2.20784e-16
    outer loop
      vertex 116.568 -2.11062e-15 -24.0246
      vertex 120.667 -6.66176e-16 -17.9909
      vertex 122.061 -9.29354e-16 -19.3559
    endloop
  endfacet
  facet normal -2.73971e-17 1 -2.20784e-16
    outer loop
      vertex 116.568 -2.11062e-15 -24.0246
      vertex 122.061 -9.29354e-16 -19.3559
      vertex 122.826 -1.30458e-15 -21.1503
    endloop
  endfacet
  facet normal -2.73971e-17 1 -2.20784e-16
    outer loop
      vertex 116.568 -2.11062e-15 -24.0246
      vertex 122.826 -1.30458e-15 -21.1503
      vertex 122.847 -1.73472e-15 -23.1011
    endloop
  endfacet
  facet normal -2.7397e-17 1 -2.20785e-16
    outer loop
      vertex 118.857 -5.55112e-16 -17.2632
      vertex 116.568 -2.11062e-15 -24.0246
      vertex 117.838 -5.85389e-16 -17.2739
    endloop
  endfacet
  facet normal -2.73971e-17 1 -2.20785e-16
    outer loop
      vertex 116.568 -2.11062e-15 -24.0246
      vertex 122.847 -1.73472e-15 -23.1011
      vertex 122.119 -2.15431e-15 -24.9112
    endloop
  endfacet
  facet normal -2.73971e-17 1 -2.20784e-16
    outer loop
      vertex 116.568 -2.11062e-15 -24.0246
      vertex 113.805 -2.40132e-15 -24.9983
      vertex 113.124 -2.06764e-15 -23.4025
    endloop
  endfacet
  facet normal -2.73971e-17 1 -2.20785e-16
    outer loop
      vertex 120.754 -2.49945e-15 -26.3051
      vertex 116.568 -2.11062e-15 -24.0246
      vertex 122.119 -2.15431e-15 -24.9112
    endloop
  endfacet
  facet normal -2.73971e-17 1 -2.20785e-16
    outer loop
      vertex 118.96 -2.7176e-15 -27.0705
      vertex 116.568 -2.11062e-15 -24.0246
      vertex 120.754 -2.49945e-15 -26.3051
    endloop
  endfacet
  facet normal -2.73971e-17 1 -2.20785e-16
    outer loop
      vertex 116.568 -2.11062e-15 -24.0246
      vertex 115.199 -2.66449e-15 -26.3633
      vertex 113.805 -2.40132e-15 -24.9983
    endloop
  endfacet
  facet normal -2.73969e-17 1 -2.20784e-16
    outer loop
      vertex 117.009 -2.77556e-15 -27.091
      vertex 116.568 -2.11062e-15 -24.0246
      vertex 118.96 -2.7176e-15 -27.0705
    endloop
  endfacet
  facet normal -2.73972e-17 1 -2.20784e-16
    outer loop
      vertex 116.568 -2.11062e-15 -24.0246
      vertex 117.009 -2.77556e-15 -27.091
      vertex 115.199 -2.66449e-15 -26.3633
    endloop
  endfacet
  facet normal -0.000734282 0.997539 0.0701101
    outer loop
      vertex 118.857 -5.55112e-16 -17.2632
      vertex 117.838 -5.85389e-16 -17.2739
      vertex 117.871 -0.0125268 -17.0953
    endloop
  endfacet
  facet normal -0.0171884 0.999698 -0.0175523
    outer loop
      vertex 115.199 -2.66449e-15 -26.3633
      vertex 14.5713 -1.30183 -1.96825
      vertex 113.805 -2.40132e-15 -24.9983
    endloop
  endfacet
  facet normal -0.0171883 0.999698 -0.0175516
    outer loop
      vertex 14.5713 -1.30183 -1.96825
      vertex 115.199 -2.66449e-15 -26.3633
      vertex 8.69885 -1.38033 -0.68846
    endloop
  endfacet
  facet normal -0.0145584 0.999875 -0.00620969
    outer loop
      vertex 113.805 -2.40132e-15 -24.9983
      vertex 14.5713 -1.30183 -1.96825
      vertex 113.124 -2.06764e-15 -23.4025
    endloop
  endfacet
  facet normal 0.0116201 -0.999926 -0.00347507
    outer loop
      vertex 191.273 -5.21558 -20.0052
      vertex 122.847 -6 -23.1011
      vertex 191.363 -5.21045 -21.1811
    endloop
  endfacet
  facet normal 0.01162 -0.999926 -0.00347514
    outer loop
      vertex 209.48 -5 -21.1573
      vertex 203.267 -5.07809 -19.4626
      vertex 203.328 -5.07457 -20.2709
    endloop
  endfacet
  facet normal 0.01162 -0.999926 -0.00347512
    outer loop
      vertex 203.267 -5.07809 -19.4626
      vertex 209.48 -5 -21.1573
      vertex 210.079 -5 -19.1544
    endloop
  endfacet
  facet normal 0.0116201 -0.999926 -0.003475
    outer loop
      vertex 191.363 -5.21045 -21.1811
      vertex 209.48 -5 -21.1573
      vertex 203.328 -5.07457 -20.2709
    endloop
  endfacet
  facet normal 0.0116201 -0.999926 -0.00347465
    outer loop
      vertex 209.48 -5 -21.1573
      vertex 191.363 -5.21045 -21.1811
      vertex 122.847 -6 -23.1011
    endloop
  endfacet
  facet normal 0.996709 0 -0.0810686
    outer loop
      vertex 210.248 -5 -17.0707
      vertex 210.079 -1 -19.1544
      vertex 210.248 -1 -17.0707
    endloop
  endfacet
  facet normal 0.996709 0 -0.0810686
    outer loop
      vertex 210.079 -1 -19.1544
      vertex 210.248 -5 -17.0707
      vertex 210.079 -5 -19.1544
    endloop
  endfacet
  facet normal 0.0115053 -0.999933 -0.000935797
    outer loop
      vertex 203.122 -5.08153 -17.5624
      vertex 210.079 -5 -19.1544
      vertex 210.248 -5 -17.0707
    endloop
  endfacet
  facet normal 0.0115052 -0.999933 -0.000935967
    outer loop
      vertex 210.079 -5 -19.1544
      vertex 203.122 -5.08153 -17.5624
      vertex 203.267 -5.07809 -19.4626
    endloop
  endfacet
  facet normal 0.0115053 -0.999933 -0.00093583
    outer loop
      vertex 191.15 -5.21851 -18.3884
      vertex 122.847 -6 -23.1011
      vertex 191.273 -5.21558 -20.0052
    endloop
  endfacet
  facet normal -0.119709 0 0.992809
    outer loop
      vertex 118.119 -0.0147757 -17.1374
      vertex 198.972 -5 -7.38849
      vertex 198.972 -1 -7.38849
    endloop
  endfacet
  facet normal -0.119709 0 0.992809
    outer loop
      vertex 118.119 -5.97811 -17.1374
      vertex 198.972 -5 -7.38849
      vertex 118.119 -0.0147757 -17.1374
    endloop
  endfacet
  facet normal -0.119709 -7.95237e-05 0.992809
    outer loop
      vertex 117.767 -5.98951 -17.1798
      vertex 118.119 -5.97811 -17.1374
      vertex 117.767 -5.98445 -17.1798
    endloop
  endfacet
  facet normal -0.119708 -0.000106521 0.992809
    outer loop
      vertex 118.119 -5.97811 -17.1374
      vertex 117.767 -5.98951 -17.1798
      vertex 198.972 -5 -7.38849
    endloop
  endfacet
  facet normal 0.0114325 0.999935 0.000119245
    outer loop
      vertex 203.122 -0.918467 -17.5624
      vertex 203.11 -0.918348 -17.4038
      vertex 210.248 -1 -17.0707
    endloop
  endfacet
  facet normal 0.0114325 0.999935 0.000119516
    outer loop
      vertex 191.15 -0.781492 -18.3884
      vertex 122.826 -1.30458e-15 -21.1503
      vertex 191.118 -0.781173 -17.9635
    endloop
  endfacet
  facet normal 0.0114324 0.999935 0.000119737
    outer loop
      vertex 122.826 -1.30458e-15 -21.1503
      vertex 191.15 -0.781492 -18.3884
      vertex 122.847 -1.73472e-15 -23.1011
    endloop
  endfacet
  facet normal 0.0106597 -0.999893 0.0100627
    outer loop
      vertex 206.765 -5 -9.71929
      vertex 122.061 -6 -19.3559
      vertex 208.201 -5 -11.2395
    endloop
  endfacet
  facet normal -0.0235597 0 0.999722
    outer loop
      vertex 198.972 -1 -7.38849
      vertex 201.062 -5 -7.33924
      vertex 201.062 -1 -7.33924
    endloop
  endfacet
  facet normal -0.0235597 0 0.999722
    outer loop
      vertex 201.062 -5 -7.33924
      vertex 198.972 -1 -7.38849
      vertex 198.972 -5 -7.38849
    endloop
  endfacet
  facet normal 0.428146 0 -0.903709
    outer loop
      vertex 203.564 -5 -26.7414
      vertex 205.454 -1 -25.8464
      vertex 205.454 -5 -25.8464
    endloop
  endfacet
  facet normal 0.428146 0 -0.903709
    outer loop
      vertex 205.454 -1 -25.8464
      vertex 203.564 -5 -26.7414
      vertex 203.564 -1 -26.7414
    endloop
  endfacet
  facet normal 0.0118885 0.999808 -0.0155777
    outer loop
      vertex 205.454 -1 -25.8464
      vertex 120.754 -2.49945e-15 -26.3051
      vertex 207.116 -1 -24.5781
    endloop
  endfacet
  facet normal 0.0113696 -0.999934 0.00146665
    outer loop
      vertex 203.11 -5.08165 -17.4038
      vertex 209.981 -5 -14.9973
      vertex 202.965 -5.0805 -15.4927
    endloop
  endfacet
  facet normal 0.0113696 -0.999934 0.00146653
    outer loop
      vertex 209.981 -5 -14.9973
      vertex 203.11 -5.08165 -17.4038
      vertex 210.248 -5 -17.0707
    endloop
  endfacet
  facet normal 0.0113696 -0.999934 0.00146676
    outer loop
      vertex 190.994 -5.21785 -16.3378
      vertex 122.826 -6 -21.1503
      vertex 191.118 -5.21883 -17.9635
    endloop
  endfacet
  facet normal 0.568562 0 0.822641
    outer loop
      vertex 205.046 -1 -8.53067
      vertex 206.765 -5 -9.71929
      vertex 206.765 -1 -9.71929
    endloop
  endfacet
  facet normal 0.568562 0 0.822641
    outer loop
      vertex 206.765 -5 -9.71929
      vertex 205.046 -1 -8.53067
      vertex 205.046 -5 -8.53067
    endloop
  endfacet
  facet normal 0.854006 -0 0.520264
    outer loop
      vertex 208.201 -5 -11.2395
      vertex 209.288 -1 -13.0249
      vertex 208.201 -1 -11.2395
    endloop
  endfacet
  facet normal 0.854006 0 0.520264
    outer loop
      vertex 209.288 -1 -13.0249
      vertex 208.201 -5 -11.2395
      vertex 209.288 -5 -13.0249
    endloop
  endfacet
  facet normal 0.0235599 0 -0.999722
    outer loop
      vertex 199.44 -5 -27.2734
      vertex 201.53 -1 -27.2242
      vertex 201.53 -5 -27.2242
    endloop
  endfacet
  facet normal 0.0235599 0 -0.999722
    outer loop
      vertex 201.53 -1 -27.2242
      vertex 199.44 -5 -27.2734
      vertex 199.44 -1 -27.2734
    endloop
  endfacet
  facet normal 0.184809 0 0.982775
    outer loop
      vertex 201.062 -1 -7.33924
      vertex 203.116 -5 -7.72559
      vertex 203.116 -1 -7.72559
    endloop
  endfacet
  facet normal 0.184809 0 0.982775
    outer loop
      vertex 203.116 -5 -7.72559
      vertex 201.062 -1 -7.33924
      vertex 201.062 -5 -7.33924
    endloop
  endfacet
  facet normal 0.010978 -0.999917 0.00668782
    outer loop
      vertex 208.201 -5 -11.2395
      vertex 122.061 -6 -19.3559
      vertex 209.288 -5 -13.0249
    endloop
  endfacet
  facet normal 0.0106597 0.999893 0.0100627
    outer loop
      vertex 208.201 -1 -11.2395
      vertex 122.061 -9.29354e-16 -19.3559
      vertex 206.765 -1 -9.71929
    endloop
  endfacet
  facet normal 0.0115053 0.999933 -0.000935795
    outer loop
      vertex 210.079 -1 -19.1544
      vertex 203.122 -0.918467 -17.5624
      vertex 210.248 -1 -17.0707
    endloop
  endfacet
  facet normal 0.0115053 0.999933 -0.000935809
    outer loop
      vertex 203.122 -0.918467 -17.5624
      vertex 210.079 -1 -19.1544
      vertex 203.267 -0.921908 -19.4626
    endloop
  endfacet
  facet normal 0.0115053 0.999933 -0.00093583
    outer loop
      vertex 191.273 -0.78442 -20.0052
      vertex 122.847 -1.73472e-15 -23.1011
      vertex 191.15 -0.781492 -18.3884
    endloop
  endfacet
  facet normal -0.00295898 -0.992176 0.124809
    outer loop
      vertex 117.767 -5.98977 -17.1819
      vertex 198.972 -5 -7.38849
      vertex 117.767 -5.98951 -17.1798
    endloop
  endfacet
  facet normal -0.00293705 -0.992199 0.12463
    outer loop
      vertex 198.972 -5 -7.38849
      vertex 117.767 -5.98977 -17.1819
      vertex 201.062 -5 -7.33924
    endloop
  endfacet
  facet normal 0.727175 -0 0.686452
    outer loop
      vertex 206.765 -5 -9.71929
      vertex 208.201 -1 -11.2395
      vertex 206.765 -1 -9.71929
    endloop
  endfacet
  facet normal 0.727175 0 0.686452
    outer loop
      vertex 208.201 -1 -11.2395
      vertex 206.765 -5 -9.71929
      vertex 208.201 -5 -11.2395
    endloop
  endfacet
  facet normal 0.0118885 -0.999808 -0.0155777
    outer loop
      vertex 207.116 -5 -24.5781
      vertex 120.754 -6 -26.3051
      vertex 205.454 -5 -25.8464
    endloop
  endfacet
  facet normal -0.00114842 -0.993967 0.109671
    outer loop
      vertex 117.767 -5.98977 -17.1819
      vertex 118.857 -6 -17.2632
      vertex 201.062 -5 -7.33924
    endloop
  endfacet
  facet normal -0.00114857 -0.993968 0.109669
    outer loop
      vertex 118.857 -6 -17.2632
      vertex 117.767 -5.98977 -17.1819
      vertex 117.749 -6 -17.2748
    endloop
  endfacet
  facet normal 0.958073 0 -0.286524
    outer loop
      vertex 210.079 -5 -19.1544
      vertex 209.48 -1 -21.1573
      vertex 210.079 -1 -19.1544
    endloop
  endfacet
  facet normal 0.958073 0 -0.286524
    outer loop
      vertex 209.48 -1 -21.1573
      vertex 210.079 -5 -19.1544
      vertex 209.48 -5 -21.1573
    endloop
  endfacet
  facet normal 0.758702 0 -0.651437
    outer loop
      vertex 208.477 -5 -22.9919
      vertex 207.116 -1 -24.5781
      vertex 208.477 -1 -22.9919
    endloop
  endfacet
  facet normal 0.758702 0 -0.651437
    outer loop
      vertex 207.116 -1 -24.5781
      vertex 208.477 -5 -22.9919
      vertex 207.116 -5 -24.5781
    endloop
  endfacet
  facet normal 0.0116471 0.999921 -0.00468214
    outer loop
      vertex 209.48 -1 -21.1573
      vertex 122.119 -2.15431e-15 -24.9112
      vertex 122.847 -1.73472e-15 -23.1011
    endloop
  endfacet
  facet normal 0.0119383 -0.999611 -0.0251988
    outer loop
      vertex 205.454 -5 -25.8464
      vertex 120.754 -6 -26.3051
      vertex 203.564 -5 -26.7414
    endloop
  endfacet
  facet normal 0.230898 0 -0.972978
    outer loop
      vertex 201.53 -5 -27.2242
      vertex 203.564 -1 -26.7414
      vertex 203.564 -5 -26.7414
    endloop
  endfacet
  facet normal 0.230898 0 -0.972978
    outer loop
      vertex 203.564 -1 -26.7414
      vertex 201.53 -5 -27.2242
      vertex 201.53 -1 -27.2242
    endloop
  endfacet
  facet normal -0.00293705 0.992199 0.12463
    outer loop
      vertex 118.129 -0.0145291 -17.1392
      vertex 198.972 -1 -7.38849
      vertex 201.062 -1 -7.33924
    endloop
  endfacet
  facet normal -0.00294095 0.992195 0.124662
    outer loop
      vertex 198.972 -1 -7.38849
      vertex 118.129 -0.0145291 -17.1392
      vertex 118.119 -0.0147757 -17.1374
    endloop
  endfacet
  facet normal 0.0116201 0.999926 -0.00347513
    outer loop
      vertex 209.48 -1 -21.1573
      vertex 203.267 -0.921908 -19.4626
      vertex 210.079 -1 -19.1544
    endloop
  endfacet
  facet normal 0.0116201 0.999926 -0.00347499
    outer loop
      vertex 203.267 -0.921908 -19.4626
      vertex 209.48 -1 -21.1573
      vertex 203.328 -0.925432 -20.2709
    endloop
  endfacet
  facet normal 0.0116201 0.999926 -0.00347522
    outer loop
      vertex 209.48 -1 -21.1573
      vertex 191.363 -0.789546 -21.1811
      vertex 203.328 -0.925432 -20.2709
    endloop
  endfacet
  facet normal 0.0116201 0.999926 -0.00347496
    outer loop
      vertex 191.363 -0.789546 -21.1811
      vertex 209.48 -1 -21.1573
      vertex 122.847 -1.73472e-15 -23.1011
    endloop
  endfacet
  facet normal 0.0116201 0.999926 -0.00347512
    outer loop
      vertex 191.273 -0.78442 -20.0052
      vertex 191.363 -0.789546 -21.1811
      vertex 122.847 -1.73472e-15 -23.1011
    endloop
  endfacet
  facet normal 0.010978 0.999917 0.00668782
    outer loop
      vertex 209.288 -1 -13.0249
      vertex 122.061 -9.29354e-16 -19.3559
      vertex 208.201 -1 -11.2395
    endloop
  endfacet
  facet normal 0.943512 -0 0.331339
    outer loop
      vertex 209.288 -5 -13.0249
      vertex 209.981 -1 -14.9973
      vertex 209.288 -1 -13.0249
    endloop
  endfacet
  facet normal 0.943512 0 0.331339
    outer loop
      vertex 209.981 -1 -14.9973
      vertex 209.288 -5 -13.0249
      vertex 209.981 -5 -14.9973
    endloop
  endfacet
  facet normal 0.991784 -0 0.127927
    outer loop
      vertex 209.981 -5 -14.9973
      vertex 210.248 -1 -17.0707
      vertex 209.981 -1 -14.9973
    endloop
  endfacet
  facet normal 0.991784 0 0.127927
    outer loop
      vertex 210.248 -1 -17.0707
      vertex 209.981 -5 -14.9973
      vertex 210.248 -5 -17.0707
    endloop
  endfacet
  facet normal 0.0101955 -0.999839 0.0147517
    outer loop
      vertex 205.046 -5 -8.53067
      vertex 120.667 -6 -17.9909
      vertex 206.765 -5 -9.71929
    endloop
  endfacet
  facet normal -0.00221332 0 -0.999998
    outer loop
      vertex 117.009 -6 -27.091
      vertex 199.44 -1 -27.2734
      vertex 199.44 -5 -27.2734
    endloop
  endfacet
  facet normal -0.00221332 0 -0.999998
    outer loop
      vertex 199.44 -1 -27.2734
      vertex 117.009 -6 -27.091
      vertex 117.009 -2.77556e-15 -27.091
    endloop
  endfacet
  facet normal 0.0118035 -0.999879 -0.0101347
    outer loop
      vertex 208.477 -5 -22.9919
      vertex 122.119 -6 -24.9112
      vertex 207.116 -5 -24.5781
    endloop
  endfacet
  facet normal 0.0118089 -0.999863 -0.0115641
    outer loop
      vertex 122.119 -6 -24.9112
      vertex 120.754 -6 -26.3051
      vertex 207.116 -5 -24.5781
    endloop
  endfacet
  facet normal 0.0101334 0.902776 -0.429991
    outer loop
      vertex 199.44 -1 -27.2734
      vertex 118.96 -2.7176e-15 -27.0705
      vertex 201.53 -1 -27.2242
    endloop
  endfacet
  facet normal 0.0114324 -0.999935 0.000120369
    outer loop
      vertex 210.248 -5 -17.0707
      vertex 203.11 -5.08165 -17.4038
      vertex 203.122 -5.08153 -17.5624
    endloop
  endfacet
  facet normal 0.0114325 -0.999935 0.000118817
    outer loop
      vertex 122.826 -6 -21.1503
      vertex 191.15 -5.21851 -18.3884
      vertex 191.118 -5.21883 -17.9635
    endloop
  endfacet
  facet normal 0.0114324 -0.999935 0.000119737
    outer loop
      vertex 191.15 -5.21851 -18.3884
      vertex 122.826 -6 -21.1503
      vertex 122.847 -6 -23.1011
    endloop
  endfacet
  facet normal 0.0111192 -0.999927 0.00474276
    outer loop
      vertex 209.288 -5 -13.0249
      vertex 122.061 -6 -19.3559
      vertex 122.826 -6 -21.1503
    endloop
  endfacet
  facet normal 0.0111955 -0.99993 0.00393183
    outer loop
      vertex 209.288 -5 -13.0249
      vertex 190.908 -5.21434 -15.1984
      vertex 202.873 -5.07679 -14.2882
    endloop
  endfacet
  facet normal 0.0111955 -0.99993 0.0039317
    outer loop
      vertex 190.908 -5.21434 -15.1984
      vertex 122.826 -6 -21.1503
      vertex 190.994 -5.21785 -16.3378
    endloop
  endfacet
  facet normal 0.0111956 -0.99993 0.00393096
    outer loop
      vertex 122.826 -6 -21.1503
      vertex 190.908 -5.21434 -15.1984
      vertex 209.288 -5 -13.0249
    endloop
  endfacet
  facet normal 0.0111955 -0.99993 0.00393144
    outer loop
      vertex 202.965 -5.0805 -15.4927
      vertex 209.288 -5 -13.0249
      vertex 202.873 -5.07679 -14.2882
    endloop
  endfacet
  facet normal 0.0111955 -0.99993 0.00393159
    outer loop
      vertex 209.288 -5 -13.0249
      vertex 202.965 -5.0805 -15.4927
      vertex 209.981 -5 -14.9973
    endloop
  endfacet
  facet normal 0.0105758 -0.999886 0.0107996
    outer loop
      vertex 206.765 -5 -9.71929
      vertex 120.667 -6 -17.9909
      vertex 122.061 -6 -19.3559
    endloop
  endfacet
  facet normal 0.3851 0 0.922875
    outer loop
      vertex 203.116 -1 -7.72559
      vertex 205.046 -5 -8.53067
      vertex 205.046 -1 -8.53067
    endloop
  endfacet
  facet normal 0.3851 0 0.922875
    outer loop
      vertex 205.046 -5 -8.53067
      vertex 203.116 -1 -7.72559
      vertex 203.116 -5 -7.72559
    endloop
  endfacet
  facet normal 0.00933873 -0.999706 0.0223798
    outer loop
      vertex 203.116 -5 -7.72559
      vertex 120.667 -6 -17.9909
      vertex 205.046 -5 -8.53067
    endloop
  endfacet
  facet normal 0.877566 0 -0.479456
    outer loop
      vertex 209.48 -5 -21.1573
      vertex 208.477 -1 -22.9919
      vertex 209.48 -1 -21.1573
    endloop
  endfacet
  facet normal 0.877566 0 -0.479456
    outer loop
      vertex 208.477 -1 -22.9919
      vertex 209.48 -5 -21.1573
      vertex 208.477 -5 -22.9919
    endloop
  endfacet
  facet normal 0.00723807 -0.722733 -0.69109
    outer loop
      vertex 118.96 -6 -27.0705
      vertex 117.009 -6 -27.091
      vertex 199.44 -5 -27.2734
    endloop
  endfacet
  facet normal 0.0101334 -0.902776 -0.429991
    outer loop
      vertex 201.53 -5 -27.2242
      vertex 118.96 -6 -27.0705
      vertex 199.44 -5 -27.2734
    endloop
  endfacet
  facet normal 0.0119229 -0.999538 -0.0279529
    outer loop
      vertex 120.754 -6 -26.3051
      vertex 118.96 -6 -27.0705
      vertex 203.564 -5 -26.7414
    endloop
  endfacet
  facet normal 0.0120004 -0.998649 -0.0505683
    outer loop
      vertex 203.564 -5 -26.7414
      vertex 118.96 -6 -27.0705
      vertex 201.53 -5 -27.2242
    endloop
  endfacet
  facet normal 0.0105758 0.999886 0.0107996
    outer loop
      vertex 122.061 -9.29354e-16 -19.3559
      vertex 120.667 -6.66176e-16 -17.9909
      vertex 206.765 -1 -9.71929
    endloop
  endfacet
  facet normal 0.0111192 0.999927 0.00474276
    outer loop
      vertex 122.826 -1.30458e-15 -21.1503
      vertex 122.061 -9.29354e-16 -19.3559
      vertex 209.288 -1 -13.0249
    endloop
  endfacet
  facet normal 0.0118089 0.999863 -0.0115641
    outer loop
      vertex 207.116 -1 -24.5781
      vertex 120.754 -2.49945e-15 -26.3051
      vertex 122.119 -2.15431e-15 -24.9112
    endloop
  endfacet
  facet normal 0.00740264 -0.999197 0.0393658
    outer loop
      vertex 201.062 -5 -7.33924
      vertex 118.857 -6 -17.2632
      vertex 203.116 -5 -7.72559
    endloop
  endfacet
  facet normal 0.0092577 -0.999692 0.0230293
    outer loop
      vertex 203.116 -5 -7.72559
      vertex 118.857 -6 -17.2632
      vertex 120.667 -6 -17.9909
    endloop
  endfacet
  facet normal 0.0117209 -0.999911 -0.00640372
    outer loop
      vertex 209.48 -5 -21.1573
      vertex 122.119 -6 -24.9112
      vertex 208.477 -5 -22.9919
    endloop
  endfacet
  facet normal 0.0116471 -0.999921 -0.00468214
    outer loop
      vertex 122.847 -6 -23.1011
      vertex 122.119 -6 -24.9112
      vertex 209.48 -5 -21.1573
    endloop
  endfacet
  facet normal 0.0117209 0.999911 -0.00640372
    outer loop
      vertex 208.477 -1 -22.9919
      vertex 122.119 -2.15431e-15 -24.9112
      vertex 209.48 -1 -21.1573
    endloop
  endfacet
  facet normal 0.0118035 0.999879 -0.0101347
    outer loop
      vertex 207.116 -1 -24.5781
      vertex 122.119 -2.15431e-15 -24.9112
      vertex 208.477 -1 -22.9919
    endloop
  endfacet
  facet normal 0.0092577 0.999692 0.0230293
    outer loop
      vertex 120.667 -6.66176e-16 -17.9909
      vertex 118.857 -5.55112e-16 -17.2632
      vertex 203.116 -1 -7.72559
    endloop
  endfacet
  facet normal 0.606684 0 -0.794943
    outer loop
      vertex 205.454 -5 -25.8464
      vertex 207.116 -1 -24.5781
      vertex 207.116 -5 -24.5781
    endloop
  endfacet
  facet normal 0.606684 0 -0.794943
    outer loop
      vertex 207.116 -1 -24.5781
      vertex 205.454 -5 -25.8464
      vertex 205.454 -1 -25.8464
    endloop
  endfacet
  facet normal 0.0119383 0.999611 -0.0251988
    outer loop
      vertex 203.564 -1 -26.7414
      vertex 120.754 -2.49945e-15 -26.3051
      vertex 205.454 -1 -25.8464
    endloop
  endfacet
  facet normal 0.00723807 0.722733 -0.69109
    outer loop
      vertex 199.44 -1 -27.2734
      vertex 117.009 -2.77556e-15 -27.091
      vertex 118.96 -2.7176e-15 -27.0705
    endloop
  endfacet
  facet normal 0.0111955 0.99993 0.0039316
    outer loop
      vertex 202.965 -0.919498 -15.4927
      vertex 209.288 -1 -13.0249
      vertex 209.981 -1 -14.9973
    endloop
  endfacet
  facet normal 0.0111955 0.99993 0.00393153
    outer loop
      vertex 209.288 -1 -13.0249
      vertex 202.965 -0.919498 -15.4927
      vertex 202.873 -0.923208 -14.2882
    endloop
  endfacet
  facet normal 0.0111955 0.99993 0.00393166
    outer loop
      vertex 190.908 -0.785661 -15.1984
      vertex 209.288 -1 -13.0249
      vertex 202.873 -0.923208 -14.2882
    endloop
  endfacet
  facet normal 0.0111955 0.99993 0.00393149
    outer loop
      vertex 190.908 -0.785661 -15.1984
      vertex 122.826 -1.30458e-15 -21.1503
      vertex 209.288 -1 -13.0249
    endloop
  endfacet
  facet normal 0.0111955 0.99993 0.00393159
    outer loop
      vertex 122.826 -1.30458e-15 -21.1503
      vertex 190.908 -0.785661 -15.1984
      vertex 190.994 -0.782151 -16.3378
    endloop
  endfacet
  facet normal 0.0113696 0.999934 0.00146653
    outer loop
      vertex 203.11 -0.918348 -17.4038
      vertex 209.981 -1 -14.9973
      vertex 210.248 -1 -17.0707
    endloop
  endfacet
  facet normal 0.0113696 0.999934 0.00146659
    outer loop
      vertex 209.981 -1 -14.9973
      vertex 203.11 -0.918348 -17.4038
      vertex 202.965 -0.919498 -15.4927
    endloop
  endfacet
  facet normal 0.0113696 0.999934 0.00146662
    outer loop
      vertex 191.118 -0.781173 -17.9635
      vertex 122.826 -1.30458e-15 -21.1503
      vertex 190.994 -0.782151 -16.3378
    endloop
  endfacet
  facet normal -0.00114851 0.993967 0.109672
    outer loop
      vertex 118.857 -5.55112e-16 -17.2632
      vertex 118.129 -0.0145291 -17.1392
      vertex 201.062 -1 -7.33924
    endloop
  endfacet
  facet normal 0.00740264 0.999197 0.0393658
    outer loop
      vertex 203.116 -1 -7.72559
      vertex 118.857 -5.55112e-16 -17.2632
      vertex 201.062 -1 -7.33924
    endloop
  endfacet
  facet normal 0.0119229 0.999538 -0.0279529
    outer loop
      vertex 203.564 -1 -26.7414
      vertex 118.96 -2.7176e-15 -27.0705
      vertex 120.754 -2.49945e-15 -26.3051
    endloop
  endfacet
  facet normal 0.0120004 0.998649 -0.0505683
    outer loop
      vertex 201.53 -1 -27.2242
      vertex 118.96 -2.7176e-15 -27.0705
      vertex 203.564 -1 -26.7414
    endloop
  endfacet
  facet normal 0.00933873 0.999706 0.0223798
    outer loop
      vertex 205.046 -1 -8.53067
      vertex 120.667 -6.66176e-16 -17.9909
      vertex 203.116 -1 -7.72559
    endloop
  endfacet
  facet normal 0.0101955 0.999839 0.0147517
    outer loop
      vertex 206.765 -1 -9.71929
      vertex 120.667 -6.66176e-16 -17.9909
      vertex 205.046 -1 -8.53067
    endloop
  endfacet
  facet normal 0.047091 -0.939549 0.33916
    outer loop
      vertex -0.450417 -2.5 1.98236
      vertex 0.784908 -2.13036 2.83484
      vertex -0.316834 -2.23688 2.69272
    endloop
  endfacet
  facet normal 0.0470911 -0.93955 0.339159
    outer loop
      vertex 0.784908 -2.13036 2.83484
      vertex -0.450417 -2.5 1.98236
      vertex 2.5746 -2.1438 2.54912
    endloop
  endfacet
  facet normal 0.047091 -0.939549 0.33916
    outer loop
      vertex 18.8708 -3.09811 -2.35721
      vertex 2.5746 -2.1438 2.54912
      vertex -0.450417 -2.5 1.98236
    endloop
  endfacet
  facet normal 0.047091 -0.939549 0.33916
    outer loop
      vertex 2.5746 -2.1438 2.54912
      vertex 18.8708 -3.09811 -2.35721
      vertex 28.4143 -2.43794 -1.85348
    endloop
  endfacet
  facet normal 0.047091 -0.939549 0.33916
    outer loop
      vertex 71.1061 -4.70774 -14.0689
      vertex 28.4143 -2.43794 -1.85348
      vertex 18.8708 -3.09811 -2.35721
    endloop
  endfacet
  facet normal 0.0470911 -0.939549 0.33916
    outer loop
      vertex 28.4143 -2.43794 -1.85348
      vertex 71.1061 -4.70774 -14.0689
      vertex 85.5816 -5.15254 -17.311
    endloop
  endfacet
  facet normal -0.982623 0.0174514 0.18479
    outer loop
      vertex 117.829 -3.4558 -17.0881
      vertex 117.767 -5.98445 -17.1798
      vertex 117.786 -5.96824 -17.0808
    endloop
  endfacet
  facet normal -0.982557 0.0173699 0.185147
    outer loop
      vertex 117.767 -5.98445 -17.1798
      vertex 117.767 -5.98977 -17.1819
      vertex 117.767 -5.98951 -17.1798
    endloop
  endfacet
  facet normal -0.982622 0.0174511 0.184798
    outer loop
      vertex 117.749 -6 -17.2748
      vertex 117.767 -5.98445 -17.1798
      vertex 117.829 -3.4558 -17.0881
    endloop
  endfacet
  facet normal -0.982625 0.0174525 0.184781
    outer loop
      vertex 117.749 -6 -17.2748
      vertex 117.829 -3.4558 -17.0881
      vertex 116.494 -6 -23.9507
    endloop
  endfacet
  facet normal -0.982622 0.0175201 0.184787
    outer loop
      vertex 117.767 -5.98445 -17.1798
      vertex 117.749 -6 -17.2748
      vertex 117.767 -5.98977 -17.1819
    endloop
  endfacet
  facet normal 0.047091 -0.939549 0.33916
    outer loop
      vertex 85.5816 -5.15254 -17.311
      vertex 117.829 -3.4558 -17.0881
      vertex 28.4143 -2.43794 -1.85348
    endloop
  endfacet
  facet normal 0.047091 -0.939549 0.33916
    outer loop
      vertex 113.161 -6 -23.4879
      vertex 117.829 -3.4558 -17.0881
      vertex 85.5816 -5.15254 -17.311
    endloop
  endfacet
  facet normal 0.0470911 -0.939549 0.33916
    outer loop
      vertex 117.829 -3.4558 -17.0881
      vertex 113.161 -6 -23.4879
      vertex 116.494 -6 -23.9507
    endloop
  endfacet
  facet normal 0.0607907 0.939689 0.336583
    outer loop
      vertex 0.0789093 -1.5 1.20249
      vertex 0.784908 -2.13036 2.83484
      vertex 2.5746 -2.1438 2.54912
    endloop
  endfacet
  facet normal 0.0607908 0.939689 0.336583
    outer loop
      vertex 0.784908 -2.13036 2.83484
      vertex 0.0789093 -1.5 1.20249
      vertex -0.316834 -2.00818 2.69272
    endloop
  endfacet
  facet normal 0.0607906 0.939689 0.336583
    outer loop
      vertex -0.316834 -2.00818 2.69272
      vertex 0.0789093 -1.5 1.20249
      vertex -0.534091 -1.5803 1.5374
    endloop
  endfacet
  facet normal 0.0607907 0.939689 0.336583
    outer loop
      vertex 2.5746 -2.1438 2.54912
      vertex 8.69885 -1.38033 -0.68846
      vertex 0.0789093 -1.5 1.20249
    endloop
  endfacet
  facet normal 0.0607907 0.939689 0.336583
    outer loop
      vertex 2.5746 -2.1438 2.54912
      vertex 14.5713 -1.30183 -1.96825
      vertex 8.69885 -1.38033 -0.68846
    endloop
  endfacet
  facet normal 0.0607907 0.939689 0.336583
    outer loop
      vertex 117.878 -2.56629 -17.0964
      vertex 14.5713 -1.30183 -1.96825
      vertex 2.5746 -2.1438 2.54912
    endloop
  endfacet
  facet normal 0.0607907 0.939689 0.336583
    outer loop
      vertex 117.878 -2.56629 -17.0964
      vertex 113.124 -2.06764e-15 -23.4025
      vertex 14.5713 -1.30183 -1.96825
    endloop
  endfacet
  facet normal 0.0607907 0.939689 0.336583
    outer loop
      vertex 113.124 -2.06764e-15 -23.4025
      vertex 117.878 -2.56629 -17.0964
      vertex 116.568 -2.11062e-15 -24.0246
    endloop
  endfacet
  facet normal -0.982771 -0.00261772 0.184808
    outer loop
      vertex 117.878 -2.56629 -17.0964
      vertex 117.838 -5.85389e-16 -17.2739
      vertex 116.568 -2.11062e-15 -24.0246
    endloop
  endfacet
  facet normal -0.982772 -0.00261804 0.184804
    outer loop
      vertex 117.838 -5.85389e-16 -17.2739
      vertex 117.878 -2.56629 -17.0964
      vertex 117.871 -0.0125268 -17.0953
    endloop
  endfacet
  facet normal 0.997119 -0 0.0758544
    outer loop
      vertex 191.118 -5.21883 -17.9635
      vertex 191.118 -0.781173 -17.9635
      vertex 190.994 -0.782151 -16.3378
    endloop
  endfacet
  facet normal 0.997121 0 0.0758299
    outer loop
      vertex 191.118 -0.781173 -17.9635
      vertex 191.118 -5.21883 -17.9635
      vertex 191.15 -0.781492 -18.3884
    endloop
  endfacet
  facet normal 0.997119 -0 0.0758503
    outer loop
      vertex 190.994 -5.21785 -16.3378
      vertex 190.994 -0.782151 -16.3378
      vertex 190.908 -0.785661 -15.1984
    endloop
  endfacet
  facet normal 0.997121 -0 0.0758299
    outer loop
      vertex 191.15 -5.21851 -18.3884
      vertex 191.15 -0.781492 -18.3884
      vertex 191.118 -5.21883 -17.9635
    endloop
  endfacet
  facet normal 0.997119 -0 0.075847
    outer loop
      vertex 191.273 -5.21558 -20.0052
      vertex 191.273 -0.78442 -20.0052
      vertex 191.15 -5.21851 -18.3884
    endloop
  endfacet
  facet normal 0.997119 0 0.0758503
    outer loop
      vertex 190.994 -5.21785 -16.3378
      vertex 190.908 -0.785661 -15.1984
      vertex 190.908 -5.21434 -15.1984
    endloop
  endfacet
  facet normal 0.997119 0 0.0758495
    outer loop
      vertex 191.363 -0.789546 -21.1811
      vertex 191.273 -5.21558 -20.0052
      vertex 191.363 -5.21045 -21.1811
    endloop
  endfacet
  facet normal 0.997119 0 0.0758544
    outer loop
      vertex 190.994 -0.782151 -16.3378
      vertex 190.994 -5.21785 -16.3378
      vertex 191.118 -5.21883 -17.9635
    endloop
  endfacet
  facet normal 0.997119 0 0.0758495
    outer loop
      vertex 191.273 -0.78442 -20.0052
      vertex 191.273 -5.21558 -20.0052
      vertex 191.363 -0.789546 -21.1811
    endloop
  endfacet
  facet normal 0.997119 0 0.075847
    outer loop
      vertex 191.15 -0.781492 -18.3884
      vertex 191.15 -5.21851 -18.3884
      vertex 191.273 -0.78442 -20.0052
    endloop
  endfacet
  facet normal -0.0758487 0 0.997119
    outer loop
      vertex 191.363 -0.789546 -21.1811
      vertex 203.328 -5.07457 -20.2709
      vertex 203.328 -0.925432 -20.2709
    endloop
  endfacet
  facet normal -0.0758487 0 0.997119
    outer loop
      vertex 203.328 -5.07457 -20.2709
      vertex 191.363 -0.789546 -21.1811
      vertex 191.363 -5.21045 -21.1811
    endloop
  endfacet
  facet normal -0.997123 0 -0.0758013
    outer loop
      vertex 203.11 -5.08165 -17.4038
      vertex 203.11 -0.918348 -17.4038
      vertex 203.122 -0.918467 -17.5624
    endloop
  endfacet
  facet normal -0.997119 0 -0.0758494
    outer loop
      vertex 203.122 -5.08153 -17.5624
      vertex 203.122 -0.918467 -17.5624
      vertex 203.267 -0.921908 -19.4626
    endloop
  endfacet
  facet normal -0.997119 -0 -0.0758524
    outer loop
      vertex 203.11 -0.918348 -17.4038
      vertex 203.11 -5.08165 -17.4038
      vertex 202.965 -0.919498 -15.4927
    endloop
  endfacet
  facet normal -0.997119 0 -0.075856
    outer loop
      vertex 203.267 -5.07809 -19.4626
      vertex 203.267 -0.921908 -19.4626
      vertex 203.328 -0.925432 -20.2709
    endloop
  endfacet
  facet normal -0.997119 0 -0.075856
    outer loop
      vertex 203.267 -5.07809 -19.4626
      vertex 203.328 -0.925432 -20.2709
      vertex 203.328 -5.07457 -20.2709
    endloop
  endfacet
  facet normal -0.997119 -0 -0.0758494
    outer loop
      vertex 203.267 -0.921908 -19.4626
      vertex 203.267 -5.07809 -19.4626
      vertex 203.122 -5.08153 -17.5624
    endloop
  endfacet
  facet normal -0.997123 -0 -0.0758013
    outer loop
      vertex 203.122 -0.918467 -17.5624
      vertex 203.122 -5.08153 -17.5624
      vertex 203.11 -5.08165 -17.4038
    endloop
  endfacet
  facet normal -0.99712 -0 -0.075844
    outer loop
      vertex 202.873 -0.923208 -14.2882
      vertex 202.965 -5.0805 -15.4927
      vertex 202.873 -5.07679 -14.2882
    endloop
  endfacet
  facet normal -0.997119 0 -0.0758524
    outer loop
      vertex 202.965 -5.0805 -15.4927
      vertex 202.965 -0.919498 -15.4927
      vertex 203.11 -5.08165 -17.4038
    endloop
  endfacet
  facet normal -0.99712 -0 -0.075844
    outer loop
      vertex 202.965 -0.919498 -15.4927
      vertex 202.965 -5.0805 -15.4927
      vertex 202.873 -0.923208 -14.2882
    endloop
  endfacet
  facet normal 0.0758488 0 -0.997119
    outer loop
      vertex 190.908 -5.21434 -15.1984
      vertex 202.873 -0.923208 -14.2882
      vertex 202.873 -5.07679 -14.2882
    endloop
  endfacet
  facet normal 0.0758488 0 -0.997119
    outer loop
      vertex 202.873 -0.923208 -14.2882
      vertex 190.908 -5.21434 -15.1984
      vertex 190.908 -0.785661 -15.1984
    endloop
  endfacet
endsolid OpenSCAD_Model
