solid OpenSCAD_Model
  facet normal -1 0 0
    outer loop
      vertex -2 -5.75 5.5
      vertex -2 -10.5 5.5
      vertex -2 -5.75 8
    endloop
  endfacet
  facet normal -1 0 0
    outer loop
      vertex -2 7.5 2.5
      vertex -2 10 6
      vertex -2 10 -2.5
    endloop
  endfacet
  facet normal -1 0 0
    outer loop
      vertex -2 7.5 5.5
      vertex -2 10 6
      vertex -2 7.5 2.5
    endloop
  endfacet
  facet normal -1 0 0
    outer loop
      vertex -2 10 -2.5
      vertex -2 5.75 0
      vertex -2 7.5 2.5
    endloop
  endfacet
  facet normal -1 0 0
    outer loop
      vertex -2 10 -2.5
      vertex -2 -5.75 0
      vertex -2 5.75 0
    endloop
  endfacet
  facet normal -1 0 0
    outer loop
      vertex -2 -10 -2.5
      vertex -2 -5.75 0
      vertex -2 10 -2.5
    endloop
  endfacet
  facet normal -1 0 0
    outer loop
      vertex -2 -10 2.5
      vertex -2 -5.75 0
      vertex -2 -10 -2.5
    endloop
  endfacet
  facet normal -1 0 0
    outer loop
      vertex -2 -5.75 0
      vertex -2 -10 2.5
      vertex -2 -5.75 2.5
    endloop
  endfacet
  facet normal -1 0 0
    outer loop
      vertex -2 5.75 8
      vertex -2 10 6
      vertex -2 7.5 5.5
    endloop
  endfacet
  facet normal -1 0 0
    outer loop
      vertex -2 5.75 8
      vertex -2 7.5 5.5
      vertex -2 5.75 5.5
    endloop
  endfacet
  facet normal -1 0 0
    outer loop
      vertex -2 10 6
      vertex -2 5.75 8
      vertex -2 10 10.5
    endloop
  endfacet
  facet normal -1 0 0
    outer loop
      vertex -2 -5.75 8
      vertex -2 10 10.5
      vertex -2 5.75 8
    endloop
  endfacet
  facet normal -1 0 0
    outer loop
      vertex -2 -5.75 8
      vertex -2 -11 10.5
      vertex -2 10 10.5
    endloop
  endfacet
  facet normal -1 0 0
    outer loop
      vertex -2 -11 10.5
      vertex -2 -5.75 8
      vertex -2 -10.5 5.5
    endloop
  endfacet
  facet normal -1 -0 0
    outer loop
      vertex -2 7.5 2.5
      vertex -2 5.75 0
      vertex -2 5.75 2.5
    endloop
  endfacet
  facet normal -1 0 0
    outer loop
      vertex -2 -11.5 2.5
      vertex -2 -10.5 5.5
      vertex -2 -10.5 2.5
    endloop
  endfacet
  facet normal -1 0 0
    outer loop
      vertex -2 -11.5 10.5
      vertex -2 -10.5 5.5
      vertex -2 -11.5 2.5
    endloop
  endfacet
  facet normal -1 0 0
    outer loop
      vertex -2 -10.5 5.5
      vertex -2 -11.5 10.5
      vertex -2 -11 10.5
    endloop
  endfacet
  facet normal -0 0 1
    outer loop
      vertex -2 -5.75 2.5
      vertex 2 -10 2.5
      vertex 2 -5.75 2.5
    endloop
  endfacet
  facet normal 0 0 1
    outer loop
      vertex 2 -10 2.5
      vertex -2 -5.75 2.5
      vertex -2 -10 2.5
    endloop
  endfacet
  facet normal -0 0 1
    outer loop
      vertex -2 7.5 2.5
      vertex 2 5.75 2.5
      vertex 2 7.5 2.5
    endloop
  endfacet
  facet normal 0 0 1
    outer loop
      vertex 2 5.75 2.5
      vertex -2 7.5 2.5
      vertex -2 5.75 2.5
    endloop
  endfacet
  facet normal 1 0 0
    outer loop
      vertex 2 -5.75 2.5
      vertex 2 -10 2.5
      vertex 2 -5.75 0
    endloop
  endfacet
  facet normal 1 -0 0
    outer loop
      vertex 2 5.75 8
      vertex 2 10 6
      vertex 2 10 10.5
    endloop
  endfacet
  facet normal 1 0 0
    outer loop
      vertex 2 7.5 2.5
      vertex 2 10 6
      vertex 2 7.5 5.5
    endloop
  endfacet
  facet normal 1 0 0
    outer loop
      vertex 2 10 6
      vertex 2 5.75 8
      vertex 2 7.5 5.5
    endloop
  endfacet
  facet normal 1 0 0
    outer loop
      vertex 2 10 10.5
      vertex 2 -5.75 8
      vertex 2 5.75 8
    endloop
  endfacet
  facet normal 1 0 0
    outer loop
      vertex 2 -5.75 8
      vertex 2 -10.5 5.5
      vertex 2 -5.75 5.5
    endloop
  endfacet
  facet normal 1 -0 0
    outer loop
      vertex 2 -11 10.5
      vertex 2 -5.75 8
      vertex 2 10 10.5
    endloop
  endfacet
  facet normal 1 0 0
    outer loop
      vertex 2 -11 10.5
      vertex 2 -10.5 5.5
      vertex 2 -5.75 8
    endloop
  endfacet
  facet normal 1 -0 0
    outer loop
      vertex 2 -11.5 10.5
      vertex 2 -10.5 5.5
      vertex 2 -11 10.5
    endloop
  endfacet
  facet normal 1 0 0
    outer loop
      vertex 2 -10.5 5.5
      vertex 2 -11.5 10.5
      vertex 2 -11.5 2.5
    endloop
  endfacet
  facet normal 1 0 0
    outer loop
      vertex 2 -10.5 5.5
      vertex 2 -11.5 2.5
      vertex 2 -10.5 2.5
    endloop
  endfacet
  facet normal 1 0 0
    outer loop
      vertex 2 10 6
      vertex 2 7.5 2.5
      vertex 2 10 -2.5
    endloop
  endfacet
  facet normal 1 0 0
    outer loop
      vertex 2 5.75 0
      vertex 2 7.5 2.5
      vertex 2 5.75 2.5
    endloop
  endfacet
  facet normal 1 0 0
    outer loop
      vertex 2 7.5 2.5
      vertex 2 5.75 0
      vertex 2 10 -2.5
    endloop
  endfacet
  facet normal 1 -0 0
    outer loop
      vertex 2 -5.75 0
      vertex 2 10 -2.5
      vertex 2 5.75 0
    endloop
  endfacet
  facet normal 1 0 0
    outer loop
      vertex 2 -5.75 0
      vertex 2 -10 -2.5
      vertex 2 10 -2.5
    endloop
  endfacet
  facet normal 1 0 0
    outer loop
      vertex 2 -10 -2.5
      vertex 2 -5.75 0
      vertex 2 -10 2.5
    endloop
  endfacet
  facet normal 1 0 0
    outer loop
      vertex 2 7.5 5.5
      vertex 2 5.75 8
      vertex 2 5.75 5.5
    endloop
  endfacet
  facet normal 0 1 -0
    outer loop
      vertex 2 10 -2.5
      vertex -2 10 6
      vertex 2 10 6
    endloop
  endfacet
  facet normal 0 1 0
    outer loop
      vertex -2 10 6
      vertex 2 10 -2.5
      vertex -2 10 -2.5
    endloop
  endfacet
  facet normal 0 0 -1
    outer loop
      vertex -2 -10 -2.5
      vertex 2 10 -2.5
      vertex 2 -10 -2.5
    endloop
  endfacet
  facet normal -0 0 -1
    outer loop
      vertex 2 10 -2.5
      vertex -2 -10 -2.5
      vertex -2 10 -2.5
    endloop
  endfacet
  facet normal 0 -1 0
    outer loop
      vertex -2 -10 -2.5
      vertex 2 -10 2.5
      vertex -2 -10 2.5
    endloop
  endfacet
  facet normal 0 -1 -0
    outer loop
      vertex 2 -10 2.5
      vertex -2 -10 -2.5
      vertex 2 -10 -2.5
    endloop
  endfacet
  facet normal -0 0 1
    outer loop
      vertex -2 5.75 0
      vertex 2 -5.75 0
      vertex 2 5.75 0
    endloop
  endfacet
  facet normal 0 0 1
    outer loop
      vertex 2 -5.75 0
      vertex -2 5.75 0
      vertex -2 -5.75 0
    endloop
  endfacet
  facet normal 0 1 -0
    outer loop
      vertex 2 -5.75 0
      vertex -2 -5.75 2.5
      vertex 2 -5.75 2.5
    endloop
  endfacet
  facet normal 0 1 0
    outer loop
      vertex -2 -5.75 2.5
      vertex 2 -5.75 0
      vertex -2 -5.75 0
    endloop
  endfacet
  facet normal 0 -1 0
    outer loop
      vertex -2 5.75 0
      vertex 2 5.75 2.5
      vertex -2 5.75 2.5
    endloop
  endfacet
  facet normal 0 -1 -0
    outer loop
      vertex 2 5.75 2.5
      vertex -2 5.75 0
      vertex 2 5.75 0
    endloop
  endfacet
  facet normal 0 0 -1
    outer loop
      vertex -2 5.75 5.5
      vertex 2 7.5 5.5
      vertex 2 5.75 5.5
    endloop
  endfacet
  facet normal -0 0 -1
    outer loop
      vertex 2 7.5 5.5
      vertex -2 5.75 5.5
      vertex -2 7.5 5.5
    endloop
  endfacet
  facet normal 0 0 -1
    outer loop
      vertex -2 -10.5 5.5
      vertex 2 -5.75 5.5
      vertex 2 -10.5 5.5
    endloop
  endfacet
  facet normal -0 0 -1
    outer loop
      vertex 2 -5.75 5.5
      vertex -2 -10.5 5.5
      vertex -2 -5.75 5.5
    endloop
  endfacet
  facet normal -0 0 1
    outer loop
      vertex -2 10 10.5
      vertex 2 -11 10.5
      vertex 2 10 10.5
    endloop
  endfacet
  facet normal 0 0 1
    outer loop
      vertex 2 -11 10.5
      vertex -2 10 10.5
      vertex -2 -11 10.5
    endloop
  endfacet
  facet normal 0 1 -0
    outer loop
      vertex 2 10 6
      vertex -2 10 10.5
      vertex 2 10 10.5
    endloop
  endfacet
  facet normal 0 1 0
    outer loop
      vertex -2 10 10.5
      vertex 2 10 6
      vertex -2 10 6
    endloop
  endfacet
  facet normal 0 1 -0
    outer loop
      vertex 2 -5.75 5.5
      vertex -2 -5.75 8
      vertex 2 -5.75 8
    endloop
  endfacet
  facet normal 0 1 0
    outer loop
      vertex -2 -5.75 8
      vertex 2 -5.75 5.5
      vertex -2 -5.75 5.5
    endloop
  endfacet
  facet normal 0 0 -1
    outer loop
      vertex -2 -5.75 8
      vertex 2 5.75 8
      vertex 2 -5.75 8
    endloop
  endfacet
  facet normal -0 0 -1
    outer loop
      vertex 2 5.75 8
      vertex -2 -5.75 8
      vertex -2 5.75 8
    endloop
  endfacet
  facet normal 0 -1 0
    outer loop
      vertex -2 5.75 5.5
      vertex 2 5.75 8
      vertex -2 5.75 8
    endloop
  endfacet
  facet normal 0 -1 -0
    outer loop
      vertex 2 5.75 8
      vertex -2 5.75 5.5
      vertex 2 5.75 5.5
    endloop
  endfacet
  facet normal 0 -1 0
    outer loop
      vertex -2 7.5 2.5
      vertex 2 7.5 5.5
      vertex -2 7.5 5.5
    endloop
  endfacet
  facet normal 0 -1 -0
    outer loop
      vertex 2 7.5 5.5
      vertex -2 7.5 2.5
      vertex 2 7.5 2.5
    endloop
  endfacet
  facet normal -0 0 1
    outer loop
      vertex -2 -11 10.5
      vertex 2 -11.5 10.5
      vertex 2 -11 10.5
    endloop
  endfacet
  facet normal 0 0 1
    outer loop
      vertex 2 -11.5 10.5
      vertex -2 -11 10.5
      vertex -2 -11.5 10.5
    endloop
  endfacet
  facet normal 0 1 -0
    outer loop
      vertex 2 -10.5 2.5
      vertex -2 -10.5 5.5
      vertex 2 -10.5 5.5
    endloop
  endfacet
  facet normal 0 1 0
    outer loop
      vertex -2 -10.5 5.5
      vertex 2 -10.5 2.5
      vertex -2 -10.5 2.5
    endloop
  endfacet
  facet normal 0 0 -1
    outer loop
      vertex -2 -11.5 2.5
      vertex 2 -10.5 2.5
      vertex 2 -11.5 2.5
    endloop
  endfacet
  facet normal -0 0 -1
    outer loop
      vertex 2 -10.5 2.5
      vertex -2 -11.5 2.5
      vertex -2 -10.5 2.5
    endloop
  endfacet
  facet normal 0 -1 0
    outer loop
      vertex -2 -11.5 2.5
      vertex 2 -11.5 10.5
      vertex -2 -11.5 10.5
    endloop
  endfacet
  facet normal 0 -1 -0
    outer loop
      vertex 2 -11.5 10.5
      vertex -2 -11.5 2.5
      vertex 2 -11.5 2.5
    endloop
  endfacet
endsolid OpenSCAD_Model
