solid OpenSCAD_Model
  facet normal -1 0 0
    outer loop
      vertex -5 -62.5 -1
      vertex -5 62.5 1
      vertex -5 62.5 -1
    endloop
  endfacet
  facet normal -1 -0 0
    outer loop
      vertex -5 62.5 1
      vertex -5 -62.5 -1
      vertex -5 -62.5 1
    endloop
  endfacet
  facet normal -0 0 1
    outer loop
      vertex 0.309016 -46.9511 1
      vertex 1 -48.5 1
      vertex 1 -46 1
    endloop
  endfacet
  facet normal 0 0 1
    outer loop
      vertex 0.309016 -46.9511 1
      vertex 0.309016 -47.5489 1
      vertex 1 -48.5 1
    endloop
  endfacet
  facet normal 0 0 1
    outer loop
      vertex -0.809016 -46.5878 1
      vertex 0.309016 -47.5489 1
      vertex 0.309016 -46.9511 1
    endloop
  endfacet
  facet normal 0 0 1
    outer loop
      vertex 0.309016 -47.5489 1
      vertex -0.809016 -46.5878 1
      vertex -0.809016 -47.9122 1
    endloop
  endfacet
  facet normal -0 0 1
    outer loop
      vertex 0.309016 -44.4511 1
      vertex 1 -46 1
      vertex 1 -43.5 1
    endloop
  endfacet
  facet normal 0 0 1
    outer loop
      vertex 0.309016 -44.4511 1
      vertex 0.309016 -45.0489 1
      vertex 1 -46 1
    endloop
  endfacet
  facet normal 0 0 1
    outer loop
      vertex -0.809016 -44.0878 1
      vertex 0.309016 -45.0489 1
      vertex 0.309016 -44.4511 1
    endloop
  endfacet
  facet normal 0 0 1
    outer loop
      vertex 0.309016 -45.0489 1
      vertex -0.809016 -44.0878 1
      vertex -0.809016 -45.4122 1
    endloop
  endfacet
  facet normal -0 0 1
    outer loop
      vertex 0.309016 -41.9511 1
      vertex 1 -43.5 1
      vertex 1 -41 1
    endloop
  endfacet
  facet normal 0 0 1
    outer loop
      vertex 0.309016 -41.9511 1
      vertex 0.309016 -42.5489 1
      vertex 1 -43.5 1
    endloop
  endfacet
  facet normal 0 0 1
    outer loop
      vertex -0.809016 -41.5878 1
      vertex 0.309016 -42.5489 1
      vertex 0.309016 -41.9511 1
    endloop
  endfacet
  facet normal 0 0 1
    outer loop
      vertex 0.309016 -42.5489 1
      vertex -0.809016 -41.5878 1
      vertex -0.809016 -42.9122 1
    endloop
  endfacet
  facet normal 0 0 1
    outer loop
      vertex 1.24698 55.9363 1
      vertex 0.309016 -40.0489 1
      vertex 1 -41 1
    endloop
  endfacet
  facet normal -0 0 1
    outer loop
      vertex -0.445042 55.5501 1
      vertex 0.309016 -40.0489 1
      vertex 1.24698 55.9363 1
    endloop
  endfacet
  facet normal 0 0 1
    outer loop
      vertex -0.445042 55.5501 1
      vertex -0.809016 -40.4122 1
      vertex 0.309016 -40.0489 1
    endloop
  endfacet
  facet normal 0 0 1
    outer loop
      vertex -3.88377 -56.5427 1
      vertex -0.809016 -41.5878 1
      vertex -0.809016 -40.4122 1
    endloop
  endfacet
  facet normal 0 0 1
    outer loop
      vertex -0.809016 -41.5878 1
      vertex -3.88377 -56.5427 1
      vertex -0.809016 -42.9122 1
    endloop
  endfacet
  facet normal 0 0 1
    outer loop
      vertex -0.809016 -42.9122 1
      vertex -3.88377 -56.5427 1
      vertex -0.809016 -44.0878 1
    endloop
  endfacet
  facet normal 0 0 1
    outer loop
      vertex -0.809016 -44.0878 1
      vertex -3.88377 -56.5427 1
      vertex -0.809016 -45.4122 1
    endloop
  endfacet
  facet normal 0 -0 1
    outer loop
      vertex -2.99404 -54.8475 1
      vertex -0.809016 -45.4122 1
      vertex -3.88377 -56.5427 1
    endloop
  endfacet
  facet normal 0 0 1
    outer loop
      vertex -0.809016 -46.5878 1
      vertex -2.99404 -54.8475 1
      vertex -0.809016 -47.9122 1
    endloop
  endfacet
  facet normal 0 0 1
    outer loop
      vertex -0.809016 -47.9122 1
      vertex -2.99404 -54.8475 1
      vertex -0.809016 -49.0878 1
    endloop
  endfacet
  facet normal 0 0 1
    outer loop
      vertex -1.80194 56.6322 1
      vertex -0.809016 -40.4122 1
      vertex -0.445042 55.5501 1
    endloop
  endfacet
  facet normal 0 0 1
    outer loop
      vertex -5 62.5 1
      vertex -0.809016 -40.4122 1
      vertex -1.80194 56.6322 1
    endloop
  endfacet
  facet normal 0 0 1
    outer loop
      vertex -0.809016 -49.0878 1
      vertex -2.99404 -54.8475 1
      vertex -1.41842 -53.7599 1
    endloop
  endfacet
  facet normal 0 0 1
    outer loop
      vertex 5 62.5 1
      vertex 4 -57.5 1
      vertex 5 -62.5 1
    endloop
  endfacet
  facet normal -0 0 1
    outer loop
      vertex 1 -41 1
      vertex 4 -57.5 1
      vertex 5 62.5 1
    endloop
  endfacet
  facet normal 0 0 1
    outer loop
      vertex 4 -57.5 1
      vertex 1 -41 1
      vertex 3.54182 -55.6411 1
    endloop
  endfacet
  facet normal 0 0 1
    outer loop
      vertex 1.24698 55.9363 1
      vertex 5 62.5 1
      vertex 2 57.5 1
    endloop
  endfacet
  facet normal 0 0 1
    outer loop
      vertex 5 62.5 1
      vertex 1.24698 59.0637 1
      vertex 2 57.5 1
    endloop
  endfacet
  facet normal 0 0 1
    outer loop
      vertex 5 62.5 1
      vertex -0.445042 59.4499 1
      vertex 1.24698 59.0637 1
    endloop
  endfacet
  facet normal 0 0 1
    outer loop
      vertex -5 62.5 1
      vertex -1.80194 56.6322 1
      vertex -1.80194 58.3678 1
    endloop
  endfacet
  facet normal 0 -0 1
    outer loop
      vertex -3.88377 -56.5427 1
      vertex -0.809016 -40.4122 1
      vertex -5 62.5 1
    endloop
  endfacet
  facet normal 0 0 1
    outer loop
      vertex -5 -62.5 1
      vertex -3.88377 -56.5427 1
      vertex -5 62.5 1
    endloop
  endfacet
  facet normal 0 0 1
    outer loop
      vertex -0.809016 -45.4122 1
      vertex -2.99404 -54.8475 1
      vertex -0.809016 -46.5878 1
    endloop
  endfacet
  facet normal 0 0 1
    outer loop
      vertex -0.445042 59.4499 1
      vertex -5 62.5 1
      vertex -1.80194 58.3678 1
    endloop
  endfacet
  facet normal -0 0 1
    outer loop
      vertex -5 62.5 1
      vertex -0.445042 59.4499 1
      vertex 5 62.5 1
    endloop
  endfacet
  facet normal -0 0 1
    outer loop
      vertex 3.54182 -59.3589 1
      vertex 5 -62.5 1
      vertex 4 -57.5 1
    endloop
  endfacet
  facet normal -0 0 1
    outer loop
      vertex 2.27226 -60.7919 1
      vertex 5 -62.5 1
      vertex 3.54182 -59.3589 1
    endloop
  endfacet
  facet normal -0 0 1
    outer loop
      vertex 0.482146 -61.4708 1
      vertex 5 -62.5 1
      vertex 2.27226 -60.7919 1
    endloop
  endfacet
  facet normal 0 0 1
    outer loop
      vertex -5 -62.5 1
      vertex 0.482146 -61.4708 1
      vertex -1.41842 -61.2401 1
    endloop
  endfacet
  facet normal 0 0 1
    outer loop
      vertex 0.482146 -61.4708 1
      vertex -5 -62.5 1
      vertex 5 -62.5 1
    endloop
  endfacet
  facet normal 0 0 1
    outer loop
      vertex -2.99404 -60.1525 1
      vertex -5 -62.5 1
      vertex -1.41842 -61.2401 1
    endloop
  endfacet
  facet normal 0 0 1
    outer loop
      vertex -3.88377 -58.4573 1
      vertex -5 -62.5 1
      vertex -2.99404 -60.1525 1
    endloop
  endfacet
  facet normal 0 0 1
    outer loop
      vertex -3.88377 -56.5427 1
      vertex -5 -62.5 1
      vertex -3.88377 -58.4573 1
    endloop
  endfacet
  facet normal 0 0 1
    outer loop
      vertex 5 62.5 1
      vertex 1.24698 55.9363 1
      vertex 1 -41 1
    endloop
  endfacet
  facet normal -0 0 1
    outer loop
      vertex 1 -43.5 1
      vertex 3.54182 -55.6411 1
      vertex 1 -41 1
    endloop
  endfacet
  facet normal -0 0 1
    outer loop
      vertex 1 -46 1
      vertex 3.54182 -55.6411 1
      vertex 1 -43.5 1
    endloop
  endfacet
  facet normal -0 0 1
    outer loop
      vertex 1 -48.5 1
      vertex 3.54182 -55.6411 1
      vertex 1 -46 1
    endloop
  endfacet
  facet normal 0 0 1
    outer loop
      vertex 3.54182 -55.6411 1
      vertex 1 -48.5 1
      vertex 2.27226 -54.2081 1
    endloop
  endfacet
  facet normal -0 0 1
    outer loop
      vertex 0.309016 -49.4511 1
      vertex 2.27226 -54.2081 1
      vertex 1 -48.5 1
    endloop
  endfacet
  facet normal 0 0 1
    outer loop
      vertex 2.27226 -54.2081 1
      vertex 0.309016 -49.4511 1
      vertex 0.482146 -53.5292 1
    endloop
  endfacet
  facet normal 0 0 1
    outer loop
      vertex -1.41842 -53.7599 1
      vertex 0.309016 -49.4511 1
      vertex -0.809016 -49.0878 1
    endloop
  endfacet
  facet normal 0 0 1
    outer loop
      vertex 0.309016 -49.4511 1
      vertex -1.41842 -53.7599 1
      vertex 0.482146 -53.5292 1
    endloop
  endfacet
  facet normal 1 -0 0
    outer loop
      vertex 5 -62.5 1
      vertex 5 62.5 -1
      vertex 5 62.5 1
    endloop
  endfacet
  facet normal 1 0 0
    outer loop
      vertex 5 62.5 -1
      vertex 5 -62.5 1
      vertex 5 -62.5 -1
    endloop
  endfacet
  facet normal 0 1 -0
    outer loop
      vertex 5 62.5 -1
      vertex -5 62.5 1
      vertex 5 62.5 1
    endloop
  endfacet
  facet normal 0 1 0
    outer loop
      vertex -5 62.5 1
      vertex 5 62.5 -1
      vertex -5 62.5 -1
    endloop
  endfacet
  facet normal 0 0 -1
    outer loop
      vertex 0.309016 -42.5489 -1
      vertex 1 -41 -1
      vertex 1 -43.5 -1
    endloop
  endfacet
  facet normal 0 0 -1
    outer loop
      vertex 0.309016 -42.5489 -1
      vertex 0.309016 -41.9511 -1
      vertex 1 -41 -1
    endloop
  endfacet
  facet normal 0 0 -1
    outer loop
      vertex -0.809016 -42.9122 -1
      vertex 0.309016 -41.9511 -1
      vertex 0.309016 -42.5489 -1
    endloop
  endfacet
  facet normal -0 0 -1
    outer loop
      vertex 0.309016 -41.9511 -1
      vertex -0.809016 -42.9122 -1
      vertex -0.809016 -41.5878 -1
    endloop
  endfacet
  facet normal 0 0 -1
    outer loop
      vertex 0.309016 -45.0489 -1
      vertex 1 -43.5 -1
      vertex 1 -46 -1
    endloop
  endfacet
  facet normal 0 0 -1
    outer loop
      vertex 0.309016 -45.0489 -1
      vertex 0.309016 -44.4511 -1
      vertex 1 -43.5 -1
    endloop
  endfacet
  facet normal 0 0 -1
    outer loop
      vertex -0.809016 -45.4122 -1
      vertex 0.309016 -44.4511 -1
      vertex 0.309016 -45.0489 -1
    endloop
  endfacet
  facet normal -0 0 -1
    outer loop
      vertex 0.309016 -44.4511 -1
      vertex -0.809016 -45.4122 -1
      vertex -0.809016 -44.0878 -1
    endloop
  endfacet
  facet normal 0 0 -1
    outer loop
      vertex 0.309016 -47.5489 -1
      vertex 1 -46 -1
      vertex 1 -48.5 -1
    endloop
  endfacet
  facet normal 0 0 -1
    outer loop
      vertex 0.309016 -47.5489 -1
      vertex 0.309016 -46.9511 -1
      vertex 1 -46 -1
    endloop
  endfacet
  facet normal 0 0 -1
    outer loop
      vertex -0.809016 -47.9122 -1
      vertex 0.309016 -46.9511 -1
      vertex 0.309016 -47.5489 -1
    endloop
  endfacet
  facet normal -0 0 -1
    outer loop
      vertex 0.309016 -46.9511 -1
      vertex -0.809016 -47.9122 -1
      vertex -0.809016 -46.5878 -1
    endloop
  endfacet
  facet normal 0 0 -1
    outer loop
      vertex 5 62.5 -1
      vertex 1.24698 55.9363 -1
      vertex 2 57.5 -1
    endloop
  endfacet
  facet normal 0 0 -1
    outer loop
      vertex 3.54182 -55.6411 -1
      vertex 1 -48.5 -1
      vertex 1 -46 -1
    endloop
  endfacet
  facet normal 0 0 -1
    outer loop
      vertex 0.309016 -49.4511 -1
      vertex 2.27226 -54.2081 -1
      vertex 0.482146 -53.5292 -1
    endloop
  endfacet
  facet normal 0 0 -1
    outer loop
      vertex 2.27226 -54.2081 -1
      vertex 0.309016 -49.4511 -1
      vertex 1 -48.5 -1
    endloop
  endfacet
  facet normal 0 0 -1
    outer loop
      vertex -1.41842 -53.7599 -1
      vertex 0.309016 -49.4511 -1
      vertex 0.482146 -53.5292 -1
    endloop
  endfacet
  facet normal 0 0 -1
    outer loop
      vertex -2.99404 -54.8475 -1
      vertex -0.809016 -47.9122 -1
      vertex -0.809016 -49.0878 -1
    endloop
  endfacet
  facet normal -0 0 -1
    outer loop
      vertex -0.809016 -47.9122 -1
      vertex -2.99404 -54.8475 -1
      vertex -0.809016 -46.5878 -1
    endloop
  endfacet
  facet normal -0 0 -1
    outer loop
      vertex -0.809016 -46.5878 -1
      vertex -2.99404 -54.8475 -1
      vertex -0.809016 -45.4122 -1
    endloop
  endfacet
  facet normal 0 0 -1
    outer loop
      vertex -3.88377 -56.5427 -1
      vertex -0.809016 -45.4122 -1
      vertex -2.99404 -54.8475 -1
    endloop
  endfacet
  facet normal -0 0 -1
    outer loop
      vertex -0.809016 -45.4122 -1
      vertex -3.88377 -56.5427 -1
      vertex -0.809016 -44.0878 -1
    endloop
  endfacet
  facet normal -0 0 -1
    outer loop
      vertex -0.809016 -44.0878 -1
      vertex -3.88377 -56.5427 -1
      vertex -0.809016 -42.9122 -1
    endloop
  endfacet
  facet normal 0 0 -1
    outer loop
      vertex -2.99404 -54.8475 -1
      vertex -0.809016 -49.0878 -1
      vertex -1.41842 -53.7599 -1
    endloop
  endfacet
  facet normal -0 0 -1
    outer loop
      vertex 0.309016 -49.4511 -1
      vertex -1.41842 -53.7599 -1
      vertex -0.809016 -49.0878 -1
    endloop
  endfacet
  facet normal 0 0 -1
    outer loop
      vertex 5 -62.5 -1
      vertex 4 -57.5 -1
      vertex 5 62.5 -1
    endloop
  endfacet
  facet normal 0 0 -1
    outer loop
      vertex 5 -62.5 -1
      vertex 3.54182 -59.3589 -1
      vertex 4 -57.5 -1
    endloop
  endfacet
  facet normal 0 0 -1
    outer loop
      vertex 5 -62.5 -1
      vertex 2.27226 -60.7919 -1
      vertex 3.54182 -59.3589 -1
    endloop
  endfacet
  facet normal 0 0 -1
    outer loop
      vertex 5 -62.5 -1
      vertex 0.482146 -61.4708 -1
      vertex 2.27226 -60.7919 -1
    endloop
  endfacet
  facet normal 0 0 -1
    outer loop
      vertex -5 -62.5 -1
      vertex 0.482146 -61.4708 -1
      vertex 5 -62.5 -1
    endloop
  endfacet
  facet normal -0 0 -1
    outer loop
      vertex -3.88377 -58.4573 -1
      vertex -5 -62.5 -1
      vertex -3.88377 -56.5427 -1
    endloop
  endfacet
  facet normal -0 0 -1
    outer loop
      vertex -2.99404 -60.1525 -1
      vertex -5 -62.5 -1
      vertex -3.88377 -58.4573 -1
    endloop
  endfacet
  facet normal -0 0 -1
    outer loop
      vertex -1.41842 -61.2401 -1
      vertex -5 -62.5 -1
      vertex -2.99404 -60.1525 -1
    endloop
  endfacet
  facet normal -0 0 -1
    outer loop
      vertex 0.482146 -61.4708 -1
      vertex -5 -62.5 -1
      vertex -1.41842 -61.2401 -1
    endloop
  endfacet
  facet normal 0 0 -1
    outer loop
      vertex 3.54182 -55.6411 -1
      vertex 5 62.5 -1
      vertex 4 -57.5 -1
    endloop
  endfacet
  facet normal 0 0 -1
    outer loop
      vertex 1 -48.5 -1
      vertex 3.54182 -55.6411 -1
      vertex 2.27226 -54.2081 -1
    endloop
  endfacet
  facet normal 0 0 -1
    outer loop
      vertex 1.24698 55.9363 -1
      vertex 5 62.5 -1
      vertex 3.54182 -55.6411 -1
    endloop
  endfacet
  facet normal 0 0 -1
    outer loop
      vertex 1.24698 59.0637 -1
      vertex 5 62.5 -1
      vertex 2 57.5 -1
    endloop
  endfacet
  facet normal 0 0 -1
    outer loop
      vertex -0.445042 59.4499 -1
      vertex 5 62.5 -1
      vertex 1.24698 59.0637 -1
    endloop
  endfacet
  facet normal 0 0 -1
    outer loop
      vertex -0.809016 -40.4122 -1
      vertex -5 62.5 -1
      vertex -1.80194 56.6322 -1
    endloop
  endfacet
  facet normal 0 0 -1
    outer loop
      vertex -5 62.5 -1
      vertex -3.88377 -56.5427 -1
      vertex -5 -62.5 -1
    endloop
  endfacet
  facet normal 0 0 -1
    outer loop
      vertex -0.445042 59.4499 -1
      vertex -5 62.5 -1
      vertex 5 62.5 -1
    endloop
  endfacet
  facet normal 0 0 -1
    outer loop
      vertex -1.80194 58.3678 -1
      vertex -5 62.5 -1
      vertex -0.445042 59.4499 -1
    endloop
  endfacet
  facet normal 0 0 -1
    outer loop
      vertex -1.80194 56.6322 -1
      vertex -5 62.5 -1
      vertex -1.80194 58.3678 -1
    endloop
  endfacet
  facet normal 0 0 -1
    outer loop
      vertex 3.54182 -55.6411 -1
      vertex 1 -46 -1
      vertex 1 -43.5 -1
    endloop
  endfacet
  facet normal 0 0 -1
    outer loop
      vertex 3.54182 -55.6411 -1
      vertex 1 -43.5 -1
      vertex 1 -41 -1
    endloop
  endfacet
  facet normal 0 0 -1
    outer loop
      vertex 3.54182 -55.6411 -1
      vertex 1 -41 -1
      vertex 1.24698 55.9363 -1
    endloop
  endfacet
  facet normal 0 0 -1
    outer loop
      vertex 0.309016 -40.0489 -1
      vertex 1.24698 55.9363 -1
      vertex 1 -41 -1
    endloop
  endfacet
  facet normal 0 0 -1
    outer loop
      vertex 0.309016 -40.0489 -1
      vertex -0.445042 55.5501 -1
      vertex 1.24698 55.9363 -1
    endloop
  endfacet
  facet normal 0 0 -1
    outer loop
      vertex -0.809016 -40.4122 -1
      vertex -0.445042 55.5501 -1
      vertex 0.309016 -40.0489 -1
    endloop
  endfacet
  facet normal -0 0 -1
    outer loop
      vertex -0.809016 -42.9122 -1
      vertex -3.88377 -56.5427 -1
      vertex -0.809016 -41.5878 -1
    endloop
  endfacet
  facet normal -0 0 -1
    outer loop
      vertex -0.809016 -41.5878 -1
      vertex -3.88377 -56.5427 -1
      vertex -0.809016 -40.4122 -1
    endloop
  endfacet
  facet normal 0 0 -1
    outer loop
      vertex -5 62.5 -1
      vertex -0.809016 -40.4122 -1
      vertex -3.88377 -56.5427 -1
    endloop
  endfacet
  facet normal 0 0 -1
    outer loop
      vertex -0.809016 -40.4122 -1
      vertex -1.80194 56.6322 -1
      vertex -0.445042 55.5501 -1
    endloop
  endfacet
  facet normal 0 -1 0
    outer loop
      vertex -5 -62.5 -1
      vertex 5 -62.5 1
      vertex -5 -62.5 1
    endloop
  endfacet
  facet normal 0 -1 -0
    outer loop
      vertex 5 -62.5 1
      vertex -5 -62.5 -1
      vertex 5 -62.5 -1
    endloop
  endfacet
  facet normal -0.970942 -0.239316 0
    outer loop
      vertex 4 -57.5 -1
      vertex 3.54182 -55.6411 1
      vertex 3.54182 -55.6411 -1
    endloop
  endfacet
  facet normal -0.970942 -0.239316 0
    outer loop
      vertex 3.54182 -55.6411 1
      vertex 4 -57.5 -1
      vertex 4 -57.5 1
    endloop
  endfacet
  facet normal 1 -0 0
    outer loop
      vertex -3.88377 -58.4573 1
      vertex -3.88377 -56.5427 -1
      vertex -3.88377 -56.5427 1
    endloop
  endfacet
  facet normal 1 0 0
    outer loop
      vertex -3.88377 -56.5427 -1
      vertex -3.88377 -58.4573 1
      vertex -3.88377 -58.4573 -1
    endloop
  endfacet
  facet normal 0.120537 -0.992709 0
    outer loop
      vertex -1.41842 -53.7599 -1
      vertex 0.482146 -53.5292 1
      vertex -1.41842 -53.7599 1
    endloop
  endfacet
  facet normal 0.120537 -0.992709 0
    outer loop
      vertex 0.482146 -53.5292 1
      vertex -1.41842 -53.7599 -1
      vertex 0.482146 -53.5292 -1
    endloop
  endfacet
  facet normal -0.74851 -0.663123 0
    outer loop
      vertex 3.54182 -55.6411 -1
      vertex 2.27226 -54.2081 1
      vertex 2.27226 -54.2081 -1
    endloop
  endfacet
  facet normal -0.74851 -0.663123 0
    outer loop
      vertex 2.27226 -54.2081 1
      vertex 3.54182 -55.6411 -1
      vertex 3.54182 -55.6411 1
    endloop
  endfacet
  facet normal 0.568065 -0.822984 0
    outer loop
      vertex -2.99404 -54.8475 -1
      vertex -1.41842 -53.7599 1
      vertex -2.99404 -54.8475 1
    endloop
  endfacet
  facet normal 0.568065 -0.822984 0
    outer loop
      vertex -1.41842 -53.7599 1
      vertex -2.99404 -54.8475 -1
      vertex -1.41842 -53.7599 -1
    endloop
  endfacet
  facet normal -0.354604 0.935017 0
    outer loop
      vertex 2.27226 -60.7919 -1
      vertex 0.482146 -61.4708 1
      vertex 2.27226 -60.7919 1
    endloop
  endfacet
  facet normal -0.354604 0.935017 0
    outer loop
      vertex 0.482146 -61.4708 1
      vertex 2.27226 -60.7919 -1
      vertex 0.482146 -61.4708 -1
    endloop
  endfacet
  facet normal -0.354606 -0.935016 0
    outer loop
      vertex 0.482146 -53.5292 -1
      vertex 2.27226 -54.2081 1
      vertex 0.482146 -53.5292 1
    endloop
  endfacet
  facet normal -0.354606 -0.935016 -0
    outer loop
      vertex 2.27226 -54.2081 1
      vertex 0.482146 -53.5292 -1
      vertex 2.27226 -54.2081 -1
    endloop
  endfacet
  facet normal 0.885456 -0.464723 0
    outer loop
      vertex -3.88377 -56.5427 1
      vertex -2.99404 -54.8475 -1
      vertex -2.99404 -54.8475 1
    endloop
  endfacet
  facet normal 0.885456 -0.464723 0
    outer loop
      vertex -2.99404 -54.8475 -1
      vertex -3.88377 -56.5427 1
      vertex -3.88377 -56.5427 -1
    endloop
  endfacet
  facet normal 0.885456 0.464723 0
    outer loop
      vertex -2.99404 -60.1525 1
      vertex -3.88377 -58.4573 -1
      vertex -3.88377 -58.4573 1
    endloop
  endfacet
  facet normal 0.885456 0.464723 0
    outer loop
      vertex -3.88377 -58.4573 -1
      vertex -2.99404 -60.1525 1
      vertex -2.99404 -60.1525 -1
    endloop
  endfacet
  facet normal -0.74851 0.663123 0
    outer loop
      vertex 2.27226 -60.7919 -1
      vertex 3.54182 -59.3589 1
      vertex 3.54182 -59.3589 -1
    endloop
  endfacet
  facet normal -0.74851 0.663123 0
    outer loop
      vertex 3.54182 -59.3589 1
      vertex 2.27226 -60.7919 -1
      vertex 2.27226 -60.7919 1
    endloop
  endfacet
  facet normal -0.970942 0.239316 0
    outer loop
      vertex 3.54182 -59.3589 -1
      vertex 4 -57.5 1
      vertex 4 -57.5 -1
    endloop
  endfacet
  facet normal -0.970942 0.239316 0
    outer loop
      vertex 4 -57.5 1
      vertex 3.54182 -59.3589 -1
      vertex 3.54182 -59.3589 1
    endloop
  endfacet
  facet normal 0.120535 0.992709 -0
    outer loop
      vertex 0.482146 -61.4708 -1
      vertex -1.41842 -61.2401 1
      vertex 0.482146 -61.4708 1
    endloop
  endfacet
  facet normal 0.120535 0.992709 0
    outer loop
      vertex -1.41842 -61.2401 1
      vertex 0.482146 -61.4708 -1
      vertex -1.41842 -61.2401 -1
    endloop
  endfacet
  facet normal 0.568066 0.822983 -0
    outer loop
      vertex -1.41842 -61.2401 -1
      vertex -2.99404 -60.1525 1
      vertex -1.41842 -61.2401 1
    endloop
  endfacet
  facet normal 0.568066 0.822983 0
    outer loop
      vertex -2.99404 -60.1525 1
      vertex -1.41842 -61.2401 -1
      vertex -2.99404 -60.1525 -1
    endloop
  endfacet
  facet normal -0.900969 -0.433884 0
    outer loop
      vertex 2 57.5 -1
      vertex 1.24698 59.0637 1
      vertex 1.24698 59.0637 -1
    endloop
  endfacet
  facet normal -0.900969 -0.433884 0
    outer loop
      vertex 1.24698 59.0637 1
      vertex 2 57.5 -1
      vertex 2 57.5 1
    endloop
  endfacet
  facet normal 1 -0 0
    outer loop
      vertex -1.80194 56.6322 1
      vertex -1.80194 58.3678 -1
      vertex -1.80194 58.3678 1
    endloop
  endfacet
  facet normal 1 0 0
    outer loop
      vertex -1.80194 58.3678 -1
      vertex -1.80194 56.6322 1
      vertex -1.80194 56.6322 -1
    endloop
  endfacet
  facet normal 0.62349 -0.781831 0
    outer loop
      vertex -1.80194 58.3678 -1
      vertex -0.445042 59.4499 1
      vertex -1.80194 58.3678 1
    endloop
  endfacet
  facet normal 0.62349 -0.781831 0
    outer loop
      vertex -0.445042 59.4499 1
      vertex -1.80194 58.3678 -1
      vertex -0.445042 59.4499 -1
    endloop
  endfacet
  facet normal -0.222521 -0.974928 0
    outer loop
      vertex -0.445042 59.4499 -1
      vertex 1.24698 59.0637 1
      vertex -0.445042 59.4499 1
    endloop
  endfacet
  facet normal -0.222521 -0.974928 -0
    outer loop
      vertex 1.24698 59.0637 1
      vertex -0.445042 59.4499 -1
      vertex 1.24698 59.0637 -1
    endloop
  endfacet
  facet normal -0.900969 0.433884 0
    outer loop
      vertex 1.24698 55.9363 -1
      vertex 2 57.5 1
      vertex 2 57.5 -1
    endloop
  endfacet
  facet normal -0.900969 0.433884 0
    outer loop
      vertex 2 57.5 1
      vertex 1.24698 55.9363 -1
      vertex 1.24698 55.9363 1
    endloop
  endfacet
  facet normal -0.222521 0.974928 0
    outer loop
      vertex 1.24698 55.9363 -1
      vertex -0.445042 55.5501 1
      vertex 1.24698 55.9363 1
    endloop
  endfacet
  facet normal -0.222521 0.974928 0
    outer loop
      vertex -0.445042 55.5501 1
      vertex 1.24698 55.9363 -1
      vertex -0.445042 55.5501 -1
    endloop
  endfacet
  facet normal 0.62349 0.781831 -0
    outer loop
      vertex -0.445042 55.5501 -1
      vertex -1.80194 56.6322 1
      vertex -0.445042 55.5501 1
    endloop
  endfacet
  facet normal 0.62349 0.781831 0
    outer loop
      vertex -1.80194 56.6322 1
      vertex -0.445042 55.5501 -1
      vertex -1.80194 56.6322 -1
    endloop
  endfacet
  facet normal -0.809017 -0.587785 0
    outer loop
      vertex 1 -48.5 -1
      vertex 0.309016 -47.5489 1
      vertex 0.309016 -47.5489 -1
    endloop
  endfacet
  facet normal -0.809017 -0.587785 0
    outer loop
      vertex 0.309016 -47.5489 1
      vertex 1 -48.5 -1
      vertex 1 -48.5 1
    endloop
  endfacet
  facet normal 1 -0 0
    outer loop
      vertex -0.809016 -49.0878 1
      vertex -0.809016 -47.9122 -1
      vertex -0.809016 -47.9122 1
    endloop
  endfacet
  facet normal 1 0 0
    outer loop
      vertex -0.809016 -47.9122 -1
      vertex -0.809016 -49.0878 1
      vertex -0.809016 -49.0878 -1
    endloop
  endfacet
  facet normal 0.309019 -0.951056 0
    outer loop
      vertex -0.809016 -47.9122 -1
      vertex 0.309016 -47.5489 1
      vertex -0.809016 -47.9122 1
    endloop
  endfacet
  facet normal 0.309019 -0.951056 0
    outer loop
      vertex 0.309016 -47.5489 1
      vertex -0.809016 -47.9122 -1
      vertex 0.309016 -47.5489 -1
    endloop
  endfacet
  facet normal 0.309019 0.951056 -0
    outer loop
      vertex 0.309016 -49.4511 -1
      vertex -0.809016 -49.0878 1
      vertex 0.309016 -49.4511 1
    endloop
  endfacet
  facet normal 0.309019 0.951056 0
    outer loop
      vertex -0.809016 -49.0878 1
      vertex 0.309016 -49.4511 -1
      vertex -0.809016 -49.0878 -1
    endloop
  endfacet
  facet normal -0.809017 0.587785 0
    outer loop
      vertex 0.309016 -49.4511 -1
      vertex 1 -48.5 1
      vertex 1 -48.5 -1
    endloop
  endfacet
  facet normal -0.809017 0.587785 0
    outer loop
      vertex 1 -48.5 1
      vertex 0.309016 -49.4511 -1
      vertex 0.309016 -49.4511 1
    endloop
  endfacet
  facet normal -0.809017 -0.587785 0
    outer loop
      vertex 1 -46 -1
      vertex 0.309016 -45.0489 1
      vertex 0.309016 -45.0489 -1
    endloop
  endfacet
  facet normal -0.809017 -0.587785 0
    outer loop
      vertex 0.309016 -45.0489 1
      vertex 1 -46 -1
      vertex 1 -46 1
    endloop
  endfacet
  facet normal 1 -0 0
    outer loop
      vertex -0.809016 -46.5878 1
      vertex -0.809016 -45.4122 -1
      vertex -0.809016 -45.4122 1
    endloop
  endfacet
  facet normal 1 0 0
    outer loop
      vertex -0.809016 -45.4122 -1
      vertex -0.809016 -46.5878 1
      vertex -0.809016 -46.5878 -1
    endloop
  endfacet
  facet normal 0.309019 -0.951056 0
    outer loop
      vertex -0.809016 -45.4122 -1
      vertex 0.309016 -45.0489 1
      vertex -0.809016 -45.4122 1
    endloop
  endfacet
  facet normal 0.309019 -0.951056 0
    outer loop
      vertex 0.309016 -45.0489 1
      vertex -0.809016 -45.4122 -1
      vertex 0.309016 -45.0489 -1
    endloop
  endfacet
  facet normal -0.809017 0.587785 0
    outer loop
      vertex 0.309016 -46.9511 -1
      vertex 1 -46 1
      vertex 1 -46 -1
    endloop
  endfacet
  facet normal -0.809017 0.587785 0
    outer loop
      vertex 1 -46 1
      vertex 0.309016 -46.9511 -1
      vertex 0.309016 -46.9511 1
    endloop
  endfacet
  facet normal 0.309019 0.951056 -0
    outer loop
      vertex 0.309016 -46.9511 -1
      vertex -0.809016 -46.5878 1
      vertex 0.309016 -46.9511 1
    endloop
  endfacet
  facet normal 0.309019 0.951056 0
    outer loop
      vertex -0.809016 -46.5878 1
      vertex 0.309016 -46.9511 -1
      vertex -0.809016 -46.5878 -1
    endloop
  endfacet
  facet normal -0.809017 -0.587785 0
    outer loop
      vertex 1 -43.5 -1
      vertex 0.309016 -42.5489 1
      vertex 0.309016 -42.5489 -1
    endloop
  endfacet
  facet normal -0.809017 -0.587785 0
    outer loop
      vertex 0.309016 -42.5489 1
      vertex 1 -43.5 -1
      vertex 1 -43.5 1
    endloop
  endfacet
  facet normal 1 -0 0
    outer loop
      vertex -0.809016 -44.0878 1
      vertex -0.809016 -42.9122 -1
      vertex -0.809016 -42.9122 1
    endloop
  endfacet
  facet normal 1 0 0
    outer loop
      vertex -0.809016 -42.9122 -1
      vertex -0.809016 -44.0878 1
      vertex -0.809016 -44.0878 -1
    endloop
  endfacet
  facet normal 0.309019 -0.951056 0
    outer loop
      vertex -0.809016 -42.9122 -1
      vertex 0.309016 -42.5489 1
      vertex -0.809016 -42.9122 1
    endloop
  endfacet
  facet normal 0.309019 -0.951056 0
    outer loop
      vertex 0.309016 -42.5489 1
      vertex -0.809016 -42.9122 -1
      vertex 0.309016 -42.5489 -1
    endloop
  endfacet
  facet normal -0.809017 0.587785 0
    outer loop
      vertex 0.309016 -44.4511 -1
      vertex 1 -43.5 1
      vertex 1 -43.5 -1
    endloop
  endfacet
  facet normal -0.809017 0.587785 0
    outer loop
      vertex 1 -43.5 1
      vertex 0.309016 -44.4511 -1
      vertex 0.309016 -44.4511 1
    endloop
  endfacet
  facet normal 0.309019 0.951056 -0
    outer loop
      vertex 0.309016 -44.4511 -1
      vertex -0.809016 -44.0878 1
      vertex 0.309016 -44.4511 1
    endloop
  endfacet
  facet normal 0.309019 0.951056 0
    outer loop
      vertex -0.809016 -44.0878 1
      vertex 0.309016 -44.4511 -1
      vertex -0.809016 -44.0878 -1
    endloop
  endfacet
  facet normal -0.809017 -0.587785 0
    outer loop
      vertex 1 -41 -1
      vertex 0.309016 -40.0489 1
      vertex 0.309016 -40.0489 -1
    endloop
  endfacet
  facet normal -0.809017 -0.587785 0
    outer loop
      vertex 0.309016 -40.0489 1
      vertex 1 -41 -1
      vertex 1 -41 1
    endloop
  endfacet
  facet normal 1 -0 0
    outer loop
      vertex -0.809016 -41.5878 1
      vertex -0.809016 -40.4122 -1
      vertex -0.809016 -40.4122 1
    endloop
  endfacet
  facet normal 1 0 0
    outer loop
      vertex -0.809016 -40.4122 -1
      vertex -0.809016 -41.5878 1
      vertex -0.809016 -41.5878 -1
    endloop
  endfacet
  facet normal 0.309019 -0.951056 0
    outer loop
      vertex -0.809016 -40.4122 -1
      vertex 0.309016 -40.0489 1
      vertex -0.809016 -40.4122 1
    endloop
  endfacet
  facet normal 0.309019 -0.951056 0
    outer loop
      vertex 0.309016 -40.0489 1
      vertex -0.809016 -40.4122 -1
      vertex 0.309016 -40.0489 -1
    endloop
  endfacet
  facet normal 0.309019 0.951056 -0
    outer loop
      vertex 0.309016 -41.9511 -1
      vertex -0.809016 -41.5878 1
      vertex 0.309016 -41.9511 1
    endloop
  endfacet
  facet normal 0.309019 0.951056 0
    outer loop
      vertex -0.809016 -41.5878 1
      vertex 0.309016 -41.9511 -1
      vertex -0.809016 -41.5878 -1
    endloop
  endfacet
  facet normal -0.809017 0.587785 0
    outer loop
      vertex 0.309016 -41.9511 -1
      vertex 1 -41 1
      vertex 1 -41 -1
    endloop
  endfacet
  facet normal -0.809017 0.587785 0
    outer loop
      vertex 1 -41 1
      vertex 0.309016 -41.9511 -1
      vertex 0.309016 -41.9511 1
    endloop
  endfacet
endsolid OpenSCAD_Model
