solid OpenSCAD_Model
  facet normal -1 0 0
    outer loop
      vertex -5 17.5 -3.75
      vertex -5 12.5 -1.25
      vertex -5 17.5 3.75
    endloop
  endfacet
  facet normal -1 0 0
    outer loop
      vertex -5 17.5 -3.75
      vertex -5 -12.5 -1.25
      vertex -5 12.5 -1.25
    endloop
  endfacet
  facet normal -1 0 0
    outer loop
      vertex -5 -17.5 -3.75
      vertex -5 -12.5 -1.25
      vertex -5 17.5 -3.75
    endloop
  endfacet
  facet normal -1 0 0
    outer loop
      vertex -5 -17.5 3.75
      vertex -5 -12.5 -1.25
      vertex -5 -17.5 -3.75
    endloop
  endfacet
  facet normal -1 0 0
    outer loop
      vertex -5 -12.5 -1.25
      vertex -5 -17.5 3.75
      vertex -5 -12.5 3.75
    endloop
  endfacet
  facet normal -1 -0 0
    outer loop
      vertex -5 17.5 3.75
      vertex -5 12.5 -1.25
      vertex -5 12.5 3.75
    endloop
  endfacet
  facet normal -0 0 1
    outer loop
      vertex -5 -12.5 3.75
      vertex 5 -17.5 3.75
      vertex 5 -12.5 3.75
    endloop
  endfacet
  facet normal 0 0 1
    outer loop
      vertex 5 -17.5 3.75
      vertex -5 -12.5 3.75
      vertex -5 -17.5 3.75
    endloop
  endfacet
  facet normal -0 0 1
    outer loop
      vertex -5 17.5 3.75
      vertex 5 12.5 3.75
      vertex 5 17.5 3.75
    endloop
  endfacet
  facet normal 0 0 1
    outer loop
      vertex 5 12.5 3.75
      vertex -5 17.5 3.75
      vertex -5 12.5 3.75
    endloop
  endfacet
  facet normal 1 0 0
    outer loop
      vertex 5 -12.5 3.75
      vertex 5 -17.5 3.75
      vertex 5 -12.5 -1.25
    endloop
  endfacet
  facet normal 1 0 0
    outer loop
      vertex 5 12.5 -1.25
      vertex 5 17.5 3.75
      vertex 5 12.5 3.75
    endloop
  endfacet
  facet normal 1 0 0
    outer loop
      vertex 5 17.5 3.75
      vertex 5 12.5 -1.25
      vertex 5 17.5 -3.75
    endloop
  endfacet
  facet normal 1 -0 0
    outer loop
      vertex 5 -12.5 -1.25
      vertex 5 17.5 -3.75
      vertex 5 12.5 -1.25
    endloop
  endfacet
  facet normal 1 0 0
    outer loop
      vertex 5 -12.5 -1.25
      vertex 5 -17.5 -3.75
      vertex 5 17.5 -3.75
    endloop
  endfacet
  facet normal 1 0 0
    outer loop
      vertex 5 -17.5 -3.75
      vertex 5 -12.5 -1.25
      vertex 5 -17.5 3.75
    endloop
  endfacet
  facet normal 0 1 -0
    outer loop
      vertex 5 17.5 -3.75
      vertex -5 17.5 3.75
      vertex 5 17.5 3.75
    endloop
  endfacet
  facet normal 0 1 0
    outer loop
      vertex -5 17.5 3.75
      vertex 5 17.5 -3.75
      vertex -5 17.5 -3.75
    endloop
  endfacet
  facet normal 0 0 -1
    outer loop
      vertex -5 -17.5 -3.75
      vertex 5 17.5 -3.75
      vertex 5 -17.5 -3.75
    endloop
  endfacet
  facet normal -0 0 -1
    outer loop
      vertex 5 17.5 -3.75
      vertex -5 -17.5 -3.75
      vertex -5 17.5 -3.75
    endloop
  endfacet
  facet normal 0 -1 0
    outer loop
      vertex -5 -17.5 -3.75
      vertex 5 -17.5 3.75
      vertex -5 -17.5 3.75
    endloop
  endfacet
  facet normal 0 -1 -0
    outer loop
      vertex 5 -17.5 3.75
      vertex -5 -17.5 -3.75
      vertex 5 -17.5 -3.75
    endloop
  endfacet
  facet normal 0 -1 0
    outer loop
      vertex -5 12.5 -1.25
      vertex 5 12.5 3.75
      vertex -5 12.5 3.75
    endloop
  endfacet
  facet normal 0 -1 -0
    outer loop
      vertex 5 12.5 3.75
      vertex -5 12.5 -1.25
      vertex 5 12.5 -1.25
    endloop
  endfacet
  facet normal -0 0 1
    outer loop
      vertex -5 12.5 -1.25
      vertex 5 -12.5 -1.25
      vertex 5 12.5 -1.25
    endloop
  endfacet
  facet normal 0 0 1
    outer loop
      vertex 5 -12.5 -1.25
      vertex -5 12.5 -1.25
      vertex -5 -12.5 -1.25
    endloop
  endfacet
  facet normal 0 1 -0
    outer loop
      vertex 5 -12.5 -1.25
      vertex -5 -12.5 3.75
      vertex 5 -12.5 3.75
    endloop
  endfacet
  facet normal 0 1 0
    outer loop
      vertex -5 -12.5 3.75
      vertex 5 -12.5 -1.25
      vertex -5 -12.5 -1.25
    endloop
  endfacet
endsolid OpenSCAD_Model
