solid OpenSCAD_Model
  facet normal 0.994522 -0 0.104529
    outer loop
      vertex 9.78148 -0.999999 2.07912
      vertex 10 1 0
      vertex 9.78148 1 2.07912
    endloop
  endfacet
  facet normal 0.994522 0 0.104529
    outer loop
      vertex 10 1 0
      vertex 9.78148 -0.999999 2.07912
      vertex 10 -1 0
    endloop
  endfacet
  facet normal 0 1 0
    outer loop
      vertex 6 1 3.5
      vertex 7.52999 1 6.5
      vertex 8.09017 1 5.87785
    endloop
  endfacet
  facet normal 0 1 0
    outer loop
      vertex 7.52999 1 6.5
      vertex 6 1 3.5
      vertex -7.52999 1 6.5
    endloop
  endfacet
  facet normal 0 1 0
    outer loop
      vertex 6 1 3.5
      vertex 8.09017 1 5.87785
      vertex 9.13545 1 4.06737
    endloop
  endfacet
  facet normal 0 1 -0
    outer loop
      vertex -6 1 3.5
      vertex -7.52999 1 6.5
      vertex 6 1 3.5
    endloop
  endfacet
  facet normal 0 1 0
    outer loop
      vertex -7.52999 1 6.5
      vertex -6 1 3.5
      vertex -8.09017 1 5.87785
    endloop
  endfacet
  facet normal 0 1 0
    outer loop
      vertex 9.78148 1 2.07912
      vertex 6 1 3.5
      vertex 9.13545 1 4.06737
    endloop
  endfacet
  facet normal 0 1 0
    outer loop
      vertex 6 1 0
      vertex 9.78148 1 2.07912
      vertex 10 1 0
    endloop
  endfacet
  facet normal 0 1 0
    outer loop
      vertex 9.78148 1 2.07912
      vertex 6 1 0
      vertex 6 1 3.5
    endloop
  endfacet
  facet normal 0 1 0
    outer loop
      vertex -8.09017 1 5.87785
      vertex -6 1 3.5
      vertex -9.13545 1 4.06737
    endloop
  endfacet
  facet normal 0 1 0
    outer loop
      vertex -6 1 3.5
      vertex -9.78148 1 2.07912
      vertex -9.13545 1 4.06737
    endloop
  endfacet
  facet normal 0 1 -0
    outer loop
      vertex -6 1 0
      vertex -9.78148 1 2.07912
      vertex -6 1 3.5
    endloop
  endfacet
  facet normal 0 1 0
    outer loop
      vertex -9.78148 1 2.07912
      vertex -6 1 0
      vertex -10 1 0
    endloop
  endfacet
  facet normal 0.951057 -0 0.309017
    outer loop
      vertex 9.13545 -0.999999 4.06737
      vertex 9.78148 1 2.07912
      vertex 9.13545 1 4.06737
    endloop
  endfacet
  facet normal 0.951057 0 0.309017
    outer loop
      vertex 9.78148 1 2.07912
      vertex 9.13545 -0.999999 4.06737
      vertex 9.78148 -0.999999 2.07912
    endloop
  endfacet
  facet normal -0.994522 0 0.104529
    outer loop
      vertex -10 1 0
      vertex -9.78148 -0.999999 2.07912
      vertex -9.78148 1 2.07912
    endloop
  endfacet
  facet normal -0.994522 0 0.104529
    outer loop
      vertex -9.78148 -0.999999 2.07912
      vertex -10 1 0
      vertex -10 -1 0
    endloop
  endfacet
  facet normal 0 -1 0
    outer loop
      vertex -9.78148 -1 -2.07912
      vertex -6 -1 0
      vertex -10 -1 0
    endloop
  endfacet
  facet normal 0 -1 0
    outer loop
      vertex -9.78148 -1 -2.07912
      vertex -6 -1 -3.5
      vertex -6 -1 0
    endloop
  endfacet
  facet normal 0 -1 0
    outer loop
      vertex -8.09017 -1 -5.87785
      vertex -6 -1 -3.5
      vertex -9.13545 -1 -4.06737
    endloop
  endfacet
  facet normal 0 -1 0
    outer loop
      vertex -9.13545 -1 -4.06737
      vertex -6 -1 -3.5
      vertex -9.78148 -1 -2.07912
    endloop
  endfacet
  facet normal 0 -1 0
    outer loop
      vertex 6 -1 0
      vertex 9.78148 -1 -2.07912
      vertex 10 -1 0
    endloop
  endfacet
  facet normal 0 -1 0
    outer loop
      vertex 6 -1 -3.5
      vertex 9.78148 -1 -2.07912
      vertex 6 -1 0
    endloop
  endfacet
  facet normal 0 -1 0
    outer loop
      vertex 6 -1 -3.5
      vertex 9.13545 -1 -4.06737
      vertex 9.78148 -1 -2.07912
    endloop
  endfacet
  facet normal 0 -1 -0
    outer loop
      vertex -6 -1 -3.5
      vertex -7.52999 -1 -6.5
      vertex 6 -1 -3.5
    endloop
  endfacet
  facet normal 0 -1 0
    outer loop
      vertex -6 -1 -3.5
      vertex -8.09017 -1 -5.87785
      vertex -7.52999 -1 -6.5
    endloop
  endfacet
  facet normal 0 -1 0
    outer loop
      vertex 7.52999 -1 -6.5
      vertex 6 -1 -3.5
      vertex -7.52999 -1 -6.5
    endloop
  endfacet
  facet normal -0 -1 0
    outer loop
      vertex 8.09017 -1 -5.87785
      vertex 6 -1 -3.5
      vertex 7.52999 -1 -6.5
    endloop
  endfacet
  facet normal 0 -1 0
    outer loop
      vertex 6 -1 -3.5
      vertex 8.09017 -1 -5.87785
      vertex 9.13545 -1 -4.06737
    endloop
  endfacet
  facet normal 0 1 -1.02179e-07
    outer loop
      vertex 10 1 0
      vertex 6 1 -3.5
      vertex 6 1 0
    endloop
  endfacet
  facet normal 0 1 -7.94729e-08
    outer loop
      vertex 6 1 -3.5
      vertex 4.14737 0.999999 -6.5
      vertex -6 1 -3.5
    endloop
  endfacet
  facet normal -4.32246e-08 1 -5.27798e-08
    outer loop
      vertex 4.14737 0.999999 -6.5
      vertex 6 1 -3.5
      vertex 10 1 0
    endloop
  endfacet
  facet normal 0 1 -1.02179e-07
    outer loop
      vertex -6 1 -3.5
      vertex -10 1 0
      vertex -6 1 0
    endloop
  endfacet
  facet normal 4.32246e-08 1 -5.27798e-08
    outer loop
      vertex -6 1 -3.5
      vertex -4.14737 0.999999 -6.5
      vertex -10 1 0
    endloop
  endfacet
  facet normal 0 1 -7.94729e-08
    outer loop
      vertex -4.14737 0.999999 -6.5
      vertex -6 1 -3.5
      vertex 4.14737 0.999999 -6.5
    endloop
  endfacet
  facet normal 0.743145 0 -0.669131
    outer loop
      vertex 8.09017 -1 -5.87785
      vertex 7.52999 0.999999 -6.5
      vertex 8.09017 0.999999 -5.87785
    endloop
  endfacet
  facet normal 0.743145 0 -0.669131
    outer loop
      vertex 7.52999 0.999999 -6.5
      vertex 8.09017 -1 -5.87785
      vertex 7.52999 -1 -6.5
    endloop
  endfacet
  facet normal -5.27428e-08 -1 1.39189e-07
    outer loop
      vertex -5.27747 -0.999999 6.5
      vertex -10 -1 0
      vertex -4.14737 -0.999999 6.5
    endloop
  endfacet
  facet normal 0 -1 7.94729e-08
    outer loop
      vertex -4.14737 -0.999999 6.5
      vertex -6 -1 3.5
      vertex 4.14737 -0.999999 6.5
    endloop
  endfacet
  facet normal 4.32246e-08 -1 5.27798e-08
    outer loop
      vertex -10 -1 0
      vertex -6 -1 3.5
      vertex -4.14737 -0.999999 6.5
    endloop
  endfacet
  facet normal 0 -1 1.02179e-07
    outer loop
      vertex -6 -1 3.5
      vertex -10 -1 0
      vertex -6 -1 0
    endloop
  endfacet
  facet normal 0 -1 7.94729e-08
    outer loop
      vertex 6 -1 3.5
      vertex 4.14737 -0.999999 6.5
      vertex -6 -1 3.5
    endloop
  endfacet
  facet normal -4.32246e-08 -1 5.27798e-08
    outer loop
      vertex 6 -1 3.5
      vertex 10 -1 0
      vertex 4.14737 -0.999999 6.5
    endloop
  endfacet
  facet normal 0 -1 1.02179e-07
    outer loop
      vertex 10 -1 0
      vertex 6 -1 3.5
      vertex 6 -1 0
    endloop
  endfacet
  facet normal 6.1464e-08 -1 1.45526e-07
    outer loop
      vertex 6.24722 -0.999999 6.5
      vertex 5.27747 -0.999999 6.5
      vertex 10 -1 0
    endloop
  endfacet
  facet normal 0.866026 -0 0.5
    outer loop
      vertex 8.09017 -0.999999 5.87785
      vertex 9.13545 1 4.06737
      vertex 8.09017 1 5.87785
    endloop
  endfacet
  facet normal 0.866026 0 0.5
    outer loop
      vertex 9.13545 1 4.06737
      vertex 8.09017 -0.999999 5.87785
      vertex 9.13545 -0.999999 4.06737
    endloop
  endfacet
  facet normal -0.743145 0 0.669131
    outer loop
      vertex -8.09017 -0.999999 5.87785
      vertex -7.52999 1 6.5
      vertex -8.09017 1 5.87785
    endloop
  endfacet
  facet normal -0.743145 0 0.669131
    outer loop
      vertex -7.52999 1 6.5
      vertex -8.09017 -0.999999 5.87785
      vertex -7.52999 -0.999999 6.5
    endloop
  endfacet
  facet normal -6.42747e-07 -1 3.7109e-07
    outer loop
      vertex -9.13545 -0.999999 4.06737
      vertex -10 -1 0
      vertex -8.09017 -0.999999 5.87785
    endloop
  endfacet
  facet normal -2.81521e-07 1 -2.5372e-07
    outer loop
      vertex -7.10601 0.999999 -6.5
      vertex -8.09017 0.999999 -5.87785
      vertex -10 1 0
    endloop
  endfacet
  facet normal -2.81172e-07 1 -2.53169e-07
    outer loop
      vertex -8.09017 0.999999 -5.87785
      vertex -7.10601 0.999999 -6.5
      vertex -7.52999 0.999999 -6.5
    endloop
  endfacet
  facet normal 5.27428e-08 1 -1.39189e-07
    outer loop
      vertex 5.27747 0.999999 -6.5
      vertex 4.14737 0.999999 -6.5
      vertex 10 1 0
    endloop
  endfacet
  facet normal 2.08672e-06 1 -6.78016e-07
    outer loop
      vertex 9.78148 0.999999 -2.07912
      vertex 9.13545 0.999999 -4.06737
      vertex 10 1 0
    endloop
  endfacet
  facet normal 2.81172e-07 -1 2.53169e-07
    outer loop
      vertex 7.10601 -0.999999 6.5
      vertex 8.09017 -0.999999 5.87785
      vertex 7.52999 -0.999999 6.5
    endloop
  endfacet
  facet normal 2.81521e-07 -1 2.5372e-07
    outer loop
      vertex 8.09017 -0.999999 5.87785
      vertex 7.10601 -0.999999 6.5
      vertex 10 -1 0
    endloop
  endfacet
  facet normal 0.743145 -0 0.669131
    outer loop
      vertex 7.52999 -0.999999 6.5
      vertex 8.09017 1 5.87785
      vertex 7.52999 1 6.5
    endloop
  endfacet
  facet normal 0.743145 0 0.669131
    outer loop
      vertex 8.09017 1 5.87785
      vertex 7.52999 -0.999999 6.5
      vertex 8.09017 -0.999999 5.87785
    endloop
  endfacet
  facet normal 5.27428e-08 -1 1.39189e-07
    outer loop
      vertex 5.27747 -0.999999 6.5
      vertex 4.14737 -0.999999 6.5
      vertex 10 -1 0
    endloop
  endfacet
  facet normal -0.866026 0 0.5
    outer loop
      vertex -9.13545 -0.999999 4.06737
      vertex -8.09017 1 5.87785
      vertex -9.13545 1 4.06737
    endloop
  endfacet
  facet normal -0.866026 0 0.5
    outer loop
      vertex -8.09017 1 5.87785
      vertex -9.13545 -0.999999 4.06737
      vertex -8.09017 -0.999999 5.87785
    endloop
  endfacet
  facet normal -1.38811e-07 -1 1.90182e-07
    outer loop
      vertex -7.10601 -0.999999 6.5
      vertex -10 -1 0
      vertex -6.24722 -0.999999 6.5
    endloop
  endfacet
  facet normal -2.08672e-06 -1 6.78016e-07
    outer loop
      vertex -9.78148 -0.999999 2.07912
      vertex -10 -1 0
      vertex -9.13545 -0.999999 4.06737
    endloop
  endfacet
  facet normal 6.42747e-07 1 -3.7109e-07
    outer loop
      vertex 9.13545 0.999999 -4.06737
      vertex 8.09017 0.999999 -5.87785
      vertex 10 1 0
    endloop
  endfacet
  facet normal 0.994522 0 -0.104529
    outer loop
      vertex 10 -1 0
      vertex 9.78148 0.999999 -2.07912
      vertex 10 1 0
    endloop
  endfacet
  facet normal 0.994522 0 -0.104529
    outer loop
      vertex 9.78148 0.999999 -2.07912
      vertex 10 -1 0
      vertex 9.78148 -1 -2.07912
    endloop
  endfacet
  facet normal -2.08672e-06 1 -6.78016e-07
    outer loop
      vertex -9.78148 0.999999 -2.07912
      vertex -10 1 0
      vertex -9.13545 0.999999 -4.06737
    endloop
  endfacet
  facet normal 6.1464e-08 1 -1.45526e-07
    outer loop
      vertex 6.24722 0.999999 -6.5
      vertex 5.27747 0.999999 -6.5
      vertex 10 1 0
    endloop
  endfacet
  facet normal 6.42747e-07 -1 3.7109e-07
    outer loop
      vertex 9.13545 -0.999999 4.06737
      vertex 8.09017 -0.999999 5.87785
      vertex 10 -1 0
    endloop
  endfacet
  facet normal 2.08672e-06 -1 6.78016e-07
    outer loop
      vertex 9.78148 -0.999999 2.07912
      vertex 9.13545 -0.999999 4.06737
      vertex 10 -1 0
    endloop
  endfacet
  facet normal 1.38811e-07 -1 1.90182e-07
    outer loop
      vertex 7.10601 -0.999999 6.5
      vertex 6.24722 -0.999999 6.5
      vertex 10 -1 0
    endloop
  endfacet
  facet normal -6.1464e-08 -1 1.45526e-07
    outer loop
      vertex -6.24722 -0.999999 6.5
      vertex -10 -1 0
      vertex -5.27747 -0.999999 6.5
    endloop
  endfacet
  facet normal -0.951057 0 0.309017
    outer loop
      vertex -9.78148 -0.999999 2.07912
      vertex -9.13545 1 4.06737
      vertex -9.78148 1 2.07912
    endloop
  endfacet
  facet normal -0.951057 0 0.309017
    outer loop
      vertex -9.13545 1 4.06737
      vertex -9.78148 -0.999999 2.07912
      vertex -9.13545 -0.999999 4.06737
    endloop
  endfacet
  facet normal -2.81172e-07 -1 2.53169e-07
    outer loop
      vertex -8.09017 -0.999999 5.87785
      vertex -7.10601 -0.999999 6.5
      vertex -7.52999 -0.999999 6.5
    endloop
  endfacet
  facet normal -2.81521e-07 -1 2.5372e-07
    outer loop
      vertex -7.10601 -0.999999 6.5
      vertex -8.09017 -0.999999 5.87785
      vertex -10 -1 0
    endloop
  endfacet
  facet normal 0.951057 0 -0.309017
    outer loop
      vertex 9.78148 -1 -2.07912
      vertex 9.13545 0.999999 -4.06737
      vertex 9.78148 0.999999 -2.07912
    endloop
  endfacet
  facet normal 0.951057 0 -0.309017
    outer loop
      vertex 9.13545 0.999999 -4.06737
      vertex 9.78148 -1 -2.07912
      vertex 9.13545 -1 -4.06737
    endloop
  endfacet
  facet normal -0.866026 0 -0.5
    outer loop
      vertex -8.09017 -1 -5.87785
      vertex -9.13545 0.999999 -4.06737
      vertex -8.09017 0.999999 -5.87785
    endloop
  endfacet
  facet normal -0.866026 -0 -0.5
    outer loop
      vertex -9.13545 0.999999 -4.06737
      vertex -8.09017 -1 -5.87785
      vertex -9.13545 -1 -4.06737
    endloop
  endfacet
  facet normal -0.951057 0 -0.309017
    outer loop
      vertex -9.13545 -1 -4.06737
      vertex -9.78148 0.999999 -2.07912
      vertex -9.13545 0.999999 -4.06737
    endloop
  endfacet
  facet normal -0.951057 -0 -0.309017
    outer loop
      vertex -9.78148 0.999999 -2.07912
      vertex -9.13545 -1 -4.06737
      vertex -9.78148 -1 -2.07912
    endloop
  endfacet
  facet normal -0.994522 0 -0.104529
    outer loop
      vertex -9.78148 -1 -2.07912
      vertex -10 1 0
      vertex -9.78148 0.999999 -2.07912
    endloop
  endfacet
  facet normal -0.994522 -0 -0.104529
    outer loop
      vertex -10 1 0
      vertex -9.78148 -1 -2.07912
      vertex -10 -1 0
    endloop
  endfacet
  facet normal 1.38811e-07 1 -1.90182e-07
    outer loop
      vertex 7.10601 0.999999 -6.5
      vertex 6.24722 0.999999 -6.5
      vertex 10 1 0
    endloop
  endfacet
  facet normal 2.81172e-07 1 -2.53169e-07
    outer loop
      vertex 7.10601 0.999999 -6.5
      vertex 8.09017 0.999999 -5.87785
      vertex 7.52999 0.999999 -6.5
    endloop
  endfacet
  facet normal 2.81521e-07 1 -2.5372e-07
    outer loop
      vertex 8.09017 0.999999 -5.87785
      vertex 7.10601 0.999999 -6.5
      vertex 10 1 0
    endloop
  endfacet
  facet normal 0.866026 0 -0.5
    outer loop
      vertex 9.13545 -1 -4.06737
      vertex 8.09017 0.999999 -5.87785
      vertex 9.13545 0.999999 -4.06737
    endloop
  endfacet
  facet normal 0.866026 0 -0.5
    outer loop
      vertex 8.09017 0.999999 -5.87785
      vertex 9.13545 -1 -4.06737
      vertex 8.09017 -1 -5.87785
    endloop
  endfacet
  facet normal -5.27428e-08 1 -1.39189e-07
    outer loop
      vertex -5.27747 0.999999 -6.5
      vertex -10 1 0
      vertex -4.14737 0.999999 -6.5
    endloop
  endfacet
  facet normal -6.1464e-08 1 -1.45526e-07
    outer loop
      vertex -6.24722 0.999999 -6.5
      vertex -10 1 0
      vertex -5.27747 0.999999 -6.5
    endloop
  endfacet
  facet normal -6.42747e-07 1 -3.7109e-07
    outer loop
      vertex -9.13545 0.999999 -4.06737
      vertex -10 1 0
      vertex -8.09017 0.999999 -5.87785
    endloop
  endfacet
  facet normal -0.743145 0 -0.669131
    outer loop
      vertex -7.52999 -1 -6.5
      vertex -8.09017 0.999999 -5.87785
      vertex -7.52999 0.999999 -6.5
    endloop
  endfacet
  facet normal -0.743145 -0 -0.669131
    outer loop
      vertex -8.09017 0.999999 -5.87785
      vertex -7.52999 -1 -6.5
      vertex -8.09017 -1 -5.87785
    endloop
  endfacet
  facet normal -1.38811e-07 1 -1.90182e-07
    outer loop
      vertex -7.10601 0.999999 -6.5
      vertex -10 1 0
      vertex -6.24722 0.999999 -6.5
    endloop
  endfacet
  facet normal 1 0 0
    outer loop
      vertex -6 -1 0
      vertex -6 1 0
      vertex -6 1 3.5
    endloop
  endfacet
  facet normal 1 0 0
    outer loop
      vertex -6 -1 0
      vertex -6 1 3.5
      vertex -6 -1 3.5
    endloop
  endfacet
  facet normal 1 0 0
    outer loop
      vertex -6 1 0
      vertex -6 -1 0
      vertex -6 1 -3.5
    endloop
  endfacet
  facet normal 1 0 0
    outer loop
      vertex -6 1 -3.5
      vertex -6 -1 0
      vertex -6 -1 -3.5
    endloop
  endfacet
  facet normal 0 0 -1
    outer loop
      vertex -6 -1 3.5
      vertex 6 1 3.5
      vertex 6 -1 3.5
    endloop
  endfacet
  facet normal -0 0 -1
    outer loop
      vertex 6 1 3.5
      vertex -6 -1 3.5
      vertex -6 1 3.5
    endloop
  endfacet
  facet normal -1 0 0
    outer loop
      vertex 6 -1 0
      vertex 6 1 0
      vertex 6 1 -3.5
    endloop
  endfacet
  facet normal -1 0 0
    outer loop
      vertex 6 1 0
      vertex 6 -1 0
      vertex 6 1 3.5
    endloop
  endfacet
  facet normal -1 0 0
    outer loop
      vertex 6 -1 0
      vertex 6 1 -3.5
      vertex 6 -1 -3.5
    endloop
  endfacet
  facet normal -1 -0 0
    outer loop
      vertex 6 1 3.5
      vertex 6 -1 0
      vertex 6 -1 3.5
    endloop
  endfacet
  facet normal -0 0 1
    outer loop
      vertex -6 1 -3.5
      vertex 6 -1 -3.5
      vertex 6 1 -3.5
    endloop
  endfacet
  facet normal 0 0 1
    outer loop
      vertex 6 -1 -3.5
      vertex -6 1 -3.5
      vertex -6 -1 -3.5
    endloop
  endfacet
  facet normal 0 0 -1
    outer loop
      vertex 7.52999 -1 -6.5
      vertex 7.10601 0.999999 -6.5
      vertex 7.52999 0.999999 -6.5
    endloop
  endfacet
  facet normal 0 0 -1
    outer loop
      vertex 7.52999 -1 -6.5
      vertex 6.24722 0.999999 -6.5
      vertex 7.10601 0.999999 -6.5
    endloop
  endfacet
  facet normal 0 0 -1
    outer loop
      vertex 7.52999 -1 -6.5
      vertex 5.27747 0.999999 -6.5
      vertex 6.24722 0.999999 -6.5
    endloop
  endfacet
  facet normal 0 0 -1
    outer loop
      vertex 7.52999 -1 -6.5
      vertex 4.14737 0.999999 -6.5
      vertex 5.27747 0.999999 -6.5
    endloop
  endfacet
  facet normal 0 0 -1
    outer loop
      vertex 7.52999 -1 -6.5
      vertex -4.14737 0.999999 -6.5
      vertex 4.14737 0.999999 -6.5
    endloop
  endfacet
  facet normal 0 0 -1
    outer loop
      vertex -7.52999 -1 -6.5
      vertex -4.14737 0.999999 -6.5
      vertex 7.52999 -1 -6.5
    endloop
  endfacet
  facet normal 0 0 -1
    outer loop
      vertex -4.14737 0.999999 -6.5
      vertex -7.52999 -1 -6.5
      vertex -5.27747 0.999999 -6.5
    endloop
  endfacet
  facet normal 0 0 -1
    outer loop
      vertex -5.27747 0.999999 -6.5
      vertex -7.52999 -1 -6.5
      vertex -6.24722 0.999999 -6.5
    endloop
  endfacet
  facet normal 0 0 -1
    outer loop
      vertex -6.24722 0.999999 -6.5
      vertex -7.52999 -1 -6.5
      vertex -7.10601 0.999999 -6.5
    endloop
  endfacet
  facet normal 0 0 -1
    outer loop
      vertex -7.10601 0.999999 -6.5
      vertex -7.52999 -1 -6.5
      vertex -7.52999 0.999999 -6.5
    endloop
  endfacet
  facet normal 0 0 1
    outer loop
      vertex 7.52999 1 6.5
      vertex 7.10601 -0.999999 6.5
      vertex 7.52999 -0.999999 6.5
    endloop
  endfacet
  facet normal 0 0 1
    outer loop
      vertex 7.52999 1 6.5
      vertex 6.24722 -0.999999 6.5
      vertex 7.10601 -0.999999 6.5
    endloop
  endfacet
  facet normal 0 0 1
    outer loop
      vertex 7.52999 1 6.5
      vertex 5.27747 -0.999999 6.5
      vertex 6.24722 -0.999999 6.5
    endloop
  endfacet
  facet normal 0 0 1
    outer loop
      vertex 7.52999 1 6.5
      vertex 4.14737 -0.999999 6.5
      vertex 5.27747 -0.999999 6.5
    endloop
  endfacet
  facet normal 0 0 1
    outer loop
      vertex 7.52999 1 6.5
      vertex -4.14737 -0.999999 6.5
      vertex 4.14737 -0.999999 6.5
    endloop
  endfacet
  facet normal -0 0 1
    outer loop
      vertex -7.52999 1 6.5
      vertex -4.14737 -0.999999 6.5
      vertex 7.52999 1 6.5
    endloop
  endfacet
  facet normal 0 0 1
    outer loop
      vertex -4.14737 -0.999999 6.5
      vertex -7.52999 1 6.5
      vertex -5.27747 -0.999999 6.5
    endloop
  endfacet
  facet normal 0 0 1
    outer loop
      vertex -5.27747 -0.999999 6.5
      vertex -7.52999 1 6.5
      vertex -6.24722 -0.999999 6.5
    endloop
  endfacet
  facet normal 0 0 1
    outer loop
      vertex -6.24722 -0.999999 6.5
      vertex -7.52999 1 6.5
      vertex -7.10601 -0.999999 6.5
    endloop
  endfacet
  facet normal 0 0 1
    outer loop
      vertex -7.10601 -0.999999 6.5
      vertex -7.52999 1 6.5
      vertex -7.52999 -0.999999 6.5
    endloop
  endfacet
endsolid OpenSCAD_Model
