solid OpenSCAD_Model
  facet normal -1 0 0
    outer loop
      vertex -5 -22.5 -2.5
      vertex -5 22.5 2.5
      vertex -5 22.5 -2.5
    endloop
  endfacet
  facet normal -1 -0 0
    outer loop
      vertex -5 22.5 2.5
      vertex -5 -22.5 -2.5
      vertex -5 -22.5 2.5
    endloop
  endfacet
  facet normal -0 0 1
    outer loop
      vertex 2.80902 19.0489 2.5
      vertex 3.5 -20 2.5
      vertex 3.5 20 2.5
    endloop
  endfacet
  facet normal 0 0 1
    outer loop
      vertex 2.80902 19.0489 2.5
      vertex 2.80902 -19.0489 2.5
      vertex 3.5 -20 2.5
    endloop
  endfacet
  facet normal 0 0 1
    outer loop
      vertex 1.69098 19.4122 2.5
      vertex 2.80902 -19.0489 2.5
      vertex 2.80902 19.0489 2.5
    endloop
  endfacet
  facet normal 0 0 1
    outer loop
      vertex 2.80902 -19.0489 2.5
      vertex 1.69098 19.4122 2.5
      vertex 1.69098 -19.4122 2.5
    endloop
  endfacet
  facet normal 0 0 1
    outer loop
      vertex 5 22.5 2.5
      vertex 3.5 20 2.5
      vertex 5 -22.5 2.5
    endloop
  endfacet
  facet normal 0 0 1
    outer loop
      vertex 5 22.5 2.5
      vertex 2.80902 20.9511 2.5
      vertex 3.5 20 2.5
    endloop
  endfacet
  facet normal 0 0 1
    outer loop
      vertex 5 22.5 2.5
      vertex 1.69098 20.5878 2.5
      vertex 2.80902 20.9511 2.5
    endloop
  endfacet
  facet normal 0 0 1
    outer loop
      vertex -5 22.5 2.5
      vertex 1.69098 19.4122 2.5
      vertex 1.69098 20.5878 2.5
    endloop
  endfacet
  facet normal 0 0 1
    outer loop
      vertex 1.69098 19.4122 2.5
      vertex -5 22.5 2.5
      vertex 1.69098 -19.4122 2.5
    endloop
  endfacet
  facet normal 0 0 1
    outer loop
      vertex -5 -22.5 2.5
      vertex 1.69098 -19.4122 2.5
      vertex -5 22.5 2.5
    endloop
  endfacet
  facet normal -0 0 1
    outer loop
      vertex -5 22.5 2.5
      vertex 1.69098 20.5878 2.5
      vertex 5 22.5 2.5
    endloop
  endfacet
  facet normal -0 0 1
    outer loop
      vertex 3.5 -20 2.5
      vertex 5 -22.5 2.5
      vertex 3.5 20 2.5
    endloop
  endfacet
  facet normal -0 0 1
    outer loop
      vertex 2.80902 -20.9511 2.5
      vertex 5 -22.5 2.5
      vertex 3.5 -20 2.5
    endloop
  endfacet
  facet normal 0 0 1
    outer loop
      vertex 1.69098 -20.5878 2.5
      vertex 5 -22.5 2.5
      vertex 2.80902 -20.9511 2.5
    endloop
  endfacet
  facet normal 0 0 1
    outer loop
      vertex 1.69098 -20.5878 2.5
      vertex -5 -22.5 2.5
      vertex 5 -22.5 2.5
    endloop
  endfacet
  facet normal 0 0 1
    outer loop
      vertex 1.69098 -19.4122 2.5
      vertex -5 -22.5 2.5
      vertex 1.69098 -20.5878 2.5
    endloop
  endfacet
  facet normal 1 -0 0
    outer loop
      vertex 5 -22.5 2.5
      vertex 5 22.5 -2.5
      vertex 5 22.5 2.5
    endloop
  endfacet
  facet normal 1 0 0
    outer loop
      vertex 5 22.5 -2.5
      vertex 5 -22.5 2.5
      vertex 5 -22.5 -2.5
    endloop
  endfacet
  facet normal 0 1 -0
    outer loop
      vertex 5 22.5 -2.5
      vertex -5 22.5 2.5
      vertex 5 22.5 2.5
    endloop
  endfacet
  facet normal 0 1 0
    outer loop
      vertex -5 22.5 2.5
      vertex 5 22.5 -2.5
      vertex -5 22.5 -2.5
    endloop
  endfacet
  facet normal 0 0 -1
    outer loop
      vertex 2.80902 -19.0489 -2.5
      vertex 3.5 20 -2.5
      vertex 3.5 -20 -2.5
    endloop
  endfacet
  facet normal 0 0 -1
    outer loop
      vertex 2.80902 -19.0489 -2.5
      vertex 2.80902 19.0489 -2.5
      vertex 3.5 20 -2.5
    endloop
  endfacet
  facet normal 0 0 -1
    outer loop
      vertex 1.69098 -19.4122 -2.5
      vertex 2.80902 19.0489 -2.5
      vertex 2.80902 -19.0489 -2.5
    endloop
  endfacet
  facet normal -0 0 -1
    outer loop
      vertex 2.80902 19.0489 -2.5
      vertex 1.69098 -19.4122 -2.5
      vertex 1.69098 19.4122 -2.5
    endloop
  endfacet
  facet normal 0 0 -1
    outer loop
      vertex 5 -22.5 -2.5
      vertex 3.5 -20 -2.5
      vertex 5 22.5 -2.5
    endloop
  endfacet
  facet normal 0 0 -1
    outer loop
      vertex 5 -22.5 -2.5
      vertex 2.80902 -20.9511 -2.5
      vertex 3.5 -20 -2.5
    endloop
  endfacet
  facet normal 0 0 -1
    outer loop
      vertex 5 -22.5 -2.5
      vertex 1.69098 -20.5878 -2.5
      vertex 2.80902 -20.9511 -2.5
    endloop
  endfacet
  facet normal 0 0 -1
    outer loop
      vertex -5 -22.5 -2.5
      vertex 1.69098 -19.4122 -2.5
      vertex 1.69098 -20.5878 -2.5
    endloop
  endfacet
  facet normal -0 0 -1
    outer loop
      vertex 1.69098 -19.4122 -2.5
      vertex -5 -22.5 -2.5
      vertex 1.69098 19.4122 -2.5
    endloop
  endfacet
  facet normal 0 0 -1
    outer loop
      vertex -5 22.5 -2.5
      vertex 1.69098 19.4122 -2.5
      vertex -5 -22.5 -2.5
    endloop
  endfacet
  facet normal 0 0 -1
    outer loop
      vertex -5 -22.5 -2.5
      vertex 1.69098 -20.5878 -2.5
      vertex 5 -22.5 -2.5
    endloop
  endfacet
  facet normal 0 0 -1
    outer loop
      vertex 3.5 20 -2.5
      vertex 5 22.5 -2.5
      vertex 3.5 -20 -2.5
    endloop
  endfacet
  facet normal 0 0 -1
    outer loop
      vertex 2.80902 20.9511 -2.5
      vertex 5 22.5 -2.5
      vertex 3.5 20 -2.5
    endloop
  endfacet
  facet normal 0 0 -1
    outer loop
      vertex 1.69098 20.5878 -2.5
      vertex 5 22.5 -2.5
      vertex 2.80902 20.9511 -2.5
    endloop
  endfacet
  facet normal 0 0 -1
    outer loop
      vertex 1.69098 20.5878 -2.5
      vertex -5 22.5 -2.5
      vertex 5 22.5 -2.5
    endloop
  endfacet
  facet normal 0 0 -1
    outer loop
      vertex 1.69098 19.4122 -2.5
      vertex -5 22.5 -2.5
      vertex 1.69098 20.5878 -2.5
    endloop
  endfacet
  facet normal 0 -1 0
    outer loop
      vertex -5 -22.5 -2.5
      vertex 5 -22.5 2.5
      vertex -5 -22.5 2.5
    endloop
  endfacet
  facet normal 0 -1 -0
    outer loop
      vertex 5 -22.5 2.5
      vertex -5 -22.5 -2.5
      vertex 5 -22.5 -2.5
    endloop
  endfacet
  facet normal -0.809017 -0.587785 0
    outer loop
      vertex 3.5 -20 -2.5
      vertex 2.80902 -19.0489 2.5
      vertex 2.80902 -19.0489 -2.5
    endloop
  endfacet
  facet normal -0.809017 -0.587785 0
    outer loop
      vertex 2.80902 -19.0489 2.5
      vertex 3.5 -20 -2.5
      vertex 3.5 -20 2.5
    endloop
  endfacet
  facet normal 1 -0 0
    outer loop
      vertex 1.69098 -20.5878 2.5
      vertex 1.69098 -19.4122 -2.5
      vertex 1.69098 -19.4122 2.5
    endloop
  endfacet
  facet normal 1 0 0
    outer loop
      vertex 1.69098 -19.4122 -2.5
      vertex 1.69098 -20.5878 2.5
      vertex 1.69098 -20.5878 -2.5
    endloop
  endfacet
  facet normal 0.309017 -0.951056 0
    outer loop
      vertex 1.69098 -19.4122 -2.5
      vertex 2.80902 -19.0489 2.5
      vertex 1.69098 -19.4122 2.5
    endloop
  endfacet
  facet normal 0.309017 -0.951056 0
    outer loop
      vertex 2.80902 -19.0489 2.5
      vertex 1.69098 -19.4122 -2.5
      vertex 2.80902 -19.0489 -2.5
    endloop
  endfacet
  facet normal -0.809017 0.587785 0
    outer loop
      vertex 2.80902 -20.9511 -2.5
      vertex 3.5 -20 2.5
      vertex 3.5 -20 -2.5
    endloop
  endfacet
  facet normal -0.809017 0.587785 0
    outer loop
      vertex 3.5 -20 2.5
      vertex 2.80902 -20.9511 -2.5
      vertex 2.80902 -20.9511 2.5
    endloop
  endfacet
  facet normal 0.309019 0.951056 -0
    outer loop
      vertex 2.80902 -20.9511 -2.5
      vertex 1.69098 -20.5878 2.5
      vertex 2.80902 -20.9511 2.5
    endloop
  endfacet
  facet normal 0.309019 0.951056 0
    outer loop
      vertex 1.69098 -20.5878 2.5
      vertex 2.80902 -20.9511 -2.5
      vertex 1.69098 -20.5878 -2.5
    endloop
  endfacet
  facet normal -0.809017 -0.587785 0
    outer loop
      vertex 3.5 20 -2.5
      vertex 2.80902 20.9511 2.5
      vertex 2.80902 20.9511 -2.5
    endloop
  endfacet
  facet normal -0.809017 -0.587785 0
    outer loop
      vertex 2.80902 20.9511 2.5
      vertex 3.5 20 -2.5
      vertex 3.5 20 2.5
    endloop
  endfacet
  facet normal 1 -0 0
    outer loop
      vertex 1.69098 19.4122 2.5
      vertex 1.69098 20.5878 -2.5
      vertex 1.69098 20.5878 2.5
    endloop
  endfacet
  facet normal 1 0 0
    outer loop
      vertex 1.69098 20.5878 -2.5
      vertex 1.69098 19.4122 2.5
      vertex 1.69098 19.4122 -2.5
    endloop
  endfacet
  facet normal 0.309019 -0.951056 0
    outer loop
      vertex 1.69098 20.5878 -2.5
      vertex 2.80902 20.9511 2.5
      vertex 1.69098 20.5878 2.5
    endloop
  endfacet
  facet normal 0.309019 -0.951056 0
    outer loop
      vertex 2.80902 20.9511 2.5
      vertex 1.69098 20.5878 -2.5
      vertex 2.80902 20.9511 -2.5
    endloop
  endfacet
  facet normal -0.809017 0.587785 0
    outer loop
      vertex 2.80902 19.0489 -2.5
      vertex 3.5 20 2.5
      vertex 3.5 20 -2.5
    endloop
  endfacet
  facet normal -0.809017 0.587785 0
    outer loop
      vertex 3.5 20 2.5
      vertex 2.80902 19.0489 -2.5
      vertex 2.80902 19.0489 2.5
    endloop
  endfacet
  facet normal 0.309017 0.951056 -0
    outer loop
      vertex 2.80902 19.0489 -2.5
      vertex 1.69098 19.4122 2.5
      vertex 2.80902 19.0489 2.5
    endloop
  endfacet
  facet normal 0.309017 0.951056 0
    outer loop
      vertex 1.69098 19.4122 2.5
      vertex 2.80902 19.0489 -2.5
      vertex 1.69098 19.4122 -2.5
    endloop
  endfacet
endsolid OpenSCAD_Model
