solid OpenSCAD_Model
  facet normal 0 0 1
    outer loop
      vertex 25.8694 5.41342 150
      vertex 27.3694 6.41342 150
      vertex 26.2855 8.03553 150
    endloop
  endfacet
  facet normal 0 0 1
    outer loop
      vertex 27.3694 6.41342 150
      vertex 25.8694 5.41342 150
      vertex 27.7003 4.75 150
    endloop
  endfacet
  facet normal 0 0 1
    outer loop
      vertex 27.7003 4.75 150
      vertex 25.8694 5.41342 150
      vertex 26.0014 4.75 150
    endloop
  endfacet
  facet normal 0 0 1
    outer loop
      vertex 26.2855 8.03553 150
      vertex 24.7855 7.03553 150
      vertex 25.8694 5.41342 150
    endloop
  endfacet
  facet normal 0 0 1
    outer loop
      vertex 24.6634 9.1194 150
      vertex 24.7855 7.03553 150
      vertex 26.2855 8.03553 150
    endloop
  endfacet
  facet normal 0 0 1
    outer loop
      vertex 24.6634 9.1194 150
      vertex 23.1634 8.1194 150
      vertex 24.7855 7.03553 150
    endloop
  endfacet
  facet normal 0 0 1
    outer loop
      vertex 22.75 9.5 150
      vertex 23.1634 8.1194 150
      vertex 24.6634 9.1194 150
    endloop
  endfacet
  facet normal 0 0 1
    outer loop
      vertex 22.75 9.5 150
      vertex 21.25 8.5 150
      vertex 23.1634 8.1194 150
    endloop
  endfacet
  facet normal 0 0 1
    outer loop
      vertex 22.75 9.5 150
      vertex -21.25 8.5 150
      vertex 21.25 8.5 150
    endloop
  endfacet
  facet normal -0 0 1
    outer loop
      vertex -22.75 9.5 150
      vertex -21.25 8.5 150
      vertex 22.75 9.5 150
    endloop
  endfacet
  facet normal 0 0 1
    outer loop
      vertex -22.75 9.5 150
      vertex -23.1634 8.1194 150
      vertex -21.25 8.5 150
    endloop
  endfacet
  facet normal -0 0 1
    outer loop
      vertex -24.6634 9.1194 150
      vertex -23.1634 8.1194 150
      vertex -22.75 9.5 150
    endloop
  endfacet
  facet normal 0 0 1
    outer loop
      vertex -24.6634 9.1194 150
      vertex -24.7855 7.03553 150
      vertex -23.1634 8.1194 150
    endloop
  endfacet
  facet normal -0 0 1
    outer loop
      vertex -26.2855 8.03553 150
      vertex -24.7855 7.03553 150
      vertex -24.6634 9.1194 150
    endloop
  endfacet
  facet normal 0 0 1
    outer loop
      vertex -27.75 4.5 150
      vertex -25.8694 5.41342 150
      vertex -27.3694 6.41342 150
    endloop
  endfacet
  facet normal -0 0 1
    outer loop
      vertex -27.3694 6.41342 150
      vertex -25.8694 5.41342 150
      vertex -26.2855 8.03553 150
    endloop
  endfacet
  facet normal 0 0 1
    outer loop
      vertex -24.7855 7.03553 150
      vertex -26.2855 8.03553 150
      vertex -25.8694 5.41342 150
    endloop
  endfacet
  facet normal -0 0 1
    outer loop
      vertex 26.25 -11.5 150
      vertex 27.75 -12.5 150
      vertex 27.75 -2.75 150
    endloop
  endfacet
  facet normal 0 0 1
    outer loop
      vertex 25.8694 -13.4134 150
      vertex 27.75 -12.5 150
      vertex 26.25 -11.5 150
    endloop
  endfacet
  facet normal 0 0 1
    outer loop
      vertex 26.25 -11.5 150
      vertex 27.75 -2.75 150
      vertex 26.25 -2.75 150
    endloop
  endfacet
  facet normal 0 0 1
    outer loop
      vertex 27.75 -12.5 150
      vertex 25.8694 -13.4134 150
      vertex 27.3694 -14.4134 150
    endloop
  endfacet
  facet normal 0 0 1
    outer loop
      vertex 27.3694 -14.4134 150
      vertex 25.8694 -13.4134 150
      vertex 26.2855 -16.0355 150
    endloop
  endfacet
  facet normal -0 0 1
    outer loop
      vertex 24.7855 -15.0355 150
      vertex 26.2855 -16.0355 150
      vertex 25.8694 -13.4134 150
    endloop
  endfacet
  facet normal 0 0 1
    outer loop
      vertex 24.7855 -15.0355 150
      vertex 24.6634 -17.1194 150
      vertex 26.2855 -16.0355 150
    endloop
  endfacet
  facet normal -0 0 1
    outer loop
      vertex 23.1634 -16.1194 150
      vertex 24.6634 -17.1194 150
      vertex 24.7855 -15.0355 150
    endloop
  endfacet
  facet normal 0 0 1
    outer loop
      vertex 23.1634 -16.1194 150
      vertex 22.75 -17.5 150
      vertex 24.6634 -17.1194 150
    endloop
  endfacet
  facet normal -0 0 1
    outer loop
      vertex 21.25 -16.5 150
      vertex 22.75 -17.5 150
      vertex 23.1634 -16.1194 150
    endloop
  endfacet
  facet normal -0 0 1
    outer loop
      vertex -21.25 -16.5 150
      vertex 22.75 -17.5 150
      vertex 21.25 -16.5 150
    endloop
  endfacet
  facet normal 0 0 1
    outer loop
      vertex -21.25 -16.5 150
      vertex -22.75 -17.5 150
      vertex 22.75 -17.5 150
    endloop
  endfacet
  facet normal 0 0 1
    outer loop
      vertex -23.1634 -16.1194 150
      vertex -22.75 -17.5 150
      vertex -21.25 -16.5 150
    endloop
  endfacet
  facet normal 0 0 1
    outer loop
      vertex -23.1634 -16.1194 150
      vertex -24.6634 -17.1194 150
      vertex -22.75 -17.5 150
    endloop
  endfacet
  facet normal 0 0 1
    outer loop
      vertex -24.7855 -15.0355 150
      vertex -24.6634 -17.1194 150
      vertex -23.1634 -16.1194 150
    endloop
  endfacet
  facet normal 0 0 1
    outer loop
      vertex -26.2855 -16.0355 150
      vertex -24.7855 -15.0355 150
      vertex -25.8694 -13.4134 150
    endloop
  endfacet
  facet normal 0 0 1
    outer loop
      vertex -24.7855 -15.0355 150
      vertex -26.2855 -16.0355 150
      vertex -24.6634 -17.1194 150
    endloop
  endfacet
  facet normal -0 0 1
    outer loop
      vertex -27.75 -12.5 150
      vertex -25.8694 -13.4134 150
      vertex -26.25 -11.5 150
    endloop
  endfacet
  facet normal 0 0 1
    outer loop
      vertex -26.25 3.5 150
      vertex -27.75 4.5 150
      vertex -26.25 -11.5 150
    endloop
  endfacet
  facet normal 0 0 1
    outer loop
      vertex -25.8694 5.41342 150
      vertex -27.75 4.5 150
      vertex -26.25 3.5 150
    endloop
  endfacet
  facet normal 0 0 1
    outer loop
      vertex -27.75 -12.5 150
      vertex -26.25 -11.5 150
      vertex -27.75 4.5 150
    endloop
  endfacet
  facet normal 0 0 1
    outer loop
      vertex -25.8694 -13.4134 150
      vertex -27.75 -12.5 150
      vertex -27.3694 -14.4134 150
    endloop
  endfacet
  facet normal 0 0 1
    outer loop
      vertex -25.8694 -13.4134 150
      vertex -27.3694 -14.4134 150
      vertex -26.2855 -16.0355 150
    endloop
  endfacet
  facet normal 0 1 0
    outer loop
      vertex 22.75 9.5 150
      vertex 16.1487 9.5 31.6186
      vertex -22.75 9.5 150
    endloop
  endfacet
  facet normal 0 1 0
    outer loop
      vertex 22.75 9.5 150
      vertex 16.2314 9.5 31.5908
      vertex 16.1487 9.5 31.6186
    endloop
  endfacet
  facet normal 0 1 0
    outer loop
      vertex 16.2314 9.5 31.5908
      vertex 22.75 9.5 0
      vertex -16.2314 9.5 31.5908
    endloop
  endfacet
  facet normal 0 1 -0
    outer loop
      vertex 22.75 9.5 0
      vertex 16.2314 9.5 31.5908
      vertex 22.75 9.5 150
    endloop
  endfacet
  facet normal 0 1 -0
    outer loop
      vertex -16.1487 9.5 31.6186
      vertex -22.75 9.5 150
      vertex 16.1487 9.5 31.6186
    endloop
  endfacet
  facet normal 0 1 -0
    outer loop
      vertex -16.2314 9.5 31.5908
      vertex -22.75 9.5 150
      vertex -16.1487 9.5 31.6186
    endloop
  endfacet
  facet normal 0 1 0
    outer loop
      vertex -16.2314 9.5 31.5908
      vertex -22.75 9.5 0
      vertex -22.75 9.5 150
    endloop
  endfacet
  facet normal 0 1 0
    outer loop
      vertex -22.75 9.5 0
      vertex -16.2314 9.5 31.5908
      vertex 22.75 9.5 0
    endloop
  endfacet
  facet normal 0.195091 0.980785 -0
    outer loop
      vertex 24.6634 9.1194 0
      vertex 22.75 9.5 150
      vertex 24.6634 9.1194 150
    endloop
  endfacet
  facet normal 0.195091 0.980785 0
    outer loop
      vertex 22.75 9.5 150
      vertex 24.6634 9.1194 0
      vertex 22.75 9.5 0
    endloop
  endfacet
  facet normal -0.980785 -0.195091 0
    outer loop
      vertex -27.3694 -14.4134 0
      vertex -27.75 -12.5 150
      vertex -27.75 -12.5 0
    endloop
  endfacet
  facet normal -0.980785 -0.195091 0
    outer loop
      vertex -27.75 -12.5 150
      vertex -27.3694 -14.4134 0
      vertex -27.3694 -14.4134 150
    endloop
  endfacet
  facet normal -0.195091 0.980785 0
    outer loop
      vertex -22.75 9.5 0
      vertex -24.6634 9.1194 150
      vertex -22.75 9.5 150
    endloop
  endfacet
  facet normal -0.195091 0.980785 0
    outer loop
      vertex -24.6634 9.1194 150
      vertex -22.75 9.5 0
      vertex -24.6634 9.1194 0
    endloop
  endfacet
  facet normal -0.55557 0.83147 0
    outer loop
      vertex -24.6634 9.1194 0
      vertex -26.2855 8.03553 150
      vertex -24.6634 9.1194 150
    endloop
  endfacet
  facet normal -0.55557 0.83147 0
    outer loop
      vertex -26.2855 8.03553 150
      vertex -24.6634 9.1194 0
      vertex -26.2855 8.03553 0
    endloop
  endfacet
  facet normal 0 -1 0
    outer loop
      vertex 4.75 -17.5 0
      vertex 16.65 -17.5 1.5
      vertex 4.75 -17.5 1.5
    endloop
  endfacet
  facet normal 0 -1 -0
    outer loop
      vertex 16.65 -17.5 1.5
      vertex 4.75 -17.5 0
      vertex 16.65 -17.5 0
    endloop
  endfacet
  facet normal 0 -1 0
    outer loop
      vertex -16.65 -17.5 0
      vertex -4.75 -17.5 1.5
      vertex -16.65 -17.5 1.5
    endloop
  endfacet
  facet normal 0 -1 -0
    outer loop
      vertex -4.75 -17.5 1.5
      vertex -16.65 -17.5 0
      vertex -4.75 -17.5 0
    endloop
  endfacet
  facet normal 0 -1 0
    outer loop
      vertex -16.65 -17.5 1.5
      vertex -22.75 -17.5 150
      vertex -22.75 -17.5 1.5
    endloop
  endfacet
  facet normal 0 -1 0
    outer loop
      vertex -4.75 -17.5 1.5
      vertex -22.75 -17.5 150
      vertex -16.65 -17.5 1.5
    endloop
  endfacet
  facet normal 0 -1 0
    outer loop
      vertex -22.75 -17.5 150
      vertex -4.75 -17.5 1.5
      vertex 22.75 -17.5 150
    endloop
  endfacet
  facet normal 0 -1 0
    outer loop
      vertex 4.75 -17.5 1.5
      vertex 22.75 -17.5 150
      vertex -4.75 -17.5 1.5
    endloop
  endfacet
  facet normal 0 -1 0
    outer loop
      vertex 16.65 -17.5 1.5
      vertex 22.75 -17.5 150
      vertex 4.75 -17.5 1.5
    endloop
  endfacet
  facet normal 0 -1 -0
    outer loop
      vertex 22.75 -17.5 150
      vertex 16.65 -17.5 1.5
      vertex 22.75 -17.5 1.5
    endloop
  endfacet
  facet normal -0.55557 -0.83147 -6.55795e-10
    outer loop
      vertex -26.2855 -16.0355 150
      vertex -26.15 -16.1261 1.5
      vertex -24.6634 -17.1194 150
    endloop
  endfacet
  facet normal -0.555569 -0.83147 0
    outer loop
      vertex -26.2855 -16.0355 0
      vertex -26.15 -16.1261 1.5
      vertex -26.2855 -16.0355 150
    endloop
  endfacet
  facet normal -0.555569 -0.83147 -0
    outer loop
      vertex -26.15 -16.1261 1.5
      vertex -26.2855 -16.0355 0
      vertex -26.15 -16.1261 0
    endloop
  endfacet
  facet normal -0.55557 -0.83147 -0
    outer loop
      vertex -24.6634 -17.1194 150
      vertex -26.15 -16.1261 1.5
      vertex -24.6634 -17.1194 1.5
    endloop
  endfacet
  facet normal 0.195091 -0.980785 0
    outer loop
      vertex 22.75 -17.5 1.5
      vertex 24.6634 -17.1194 150
      vertex 22.75 -17.5 150
    endloop
  endfacet
  facet normal 0.195091 -0.980785 0
    outer loop
      vertex 24.6634 -17.1194 150
      vertex 22.75 -17.5 1.5
      vertex 24.6634 -17.1194 1.5
    endloop
  endfacet
  facet normal 0.980785 0.195091 -0
    outer loop
      vertex 27.7003 4.75 60
      vertex 27.3694 6.41342 150
      vertex 27.7003 4.75 150
    endloop
  endfacet
  facet normal 0.980785 0.195091 0
    outer loop
      vertex 27.3694 6.41342 150
      vertex 27.7003 4.75 60
      vertex 27.3694 6.41342 0
    endloop
  endfacet
  facet normal 0.980785 0.195091 -0
    outer loop
      vertex 27.75 4.5 0
      vertex 27.7003 4.75 60
      vertex 27.75 4.5 60
    endloop
  endfacet
  facet normal 0.980785 0.195091 1.70179e-09
    outer loop
      vertex 27.7003 4.75 60
      vertex 27.75 4.5 0
      vertex 27.3694 6.41342 0
    endloop
  endfacet
  facet normal -0.195091 -0.980785 0
    outer loop
      vertex -24.6634 -17.1194 1.5
      vertex -22.75 -17.5 150
      vertex -24.6634 -17.1194 150
    endloop
  endfacet
  facet normal -0.195091 -0.980785 -0
    outer loop
      vertex -22.75 -17.5 150
      vertex -24.6634 -17.1194 1.5
      vertex -22.75 -17.5 1.5
    endloop
  endfacet
  facet normal 0 0 -1
    outer loop
      vertex -27.3694 -14.4134 0
      vertex -26.15 -16.1261 0
      vertex -26.2855 -16.0355 0
    endloop
  endfacet
  facet normal 0 0 -1
    outer loop
      vertex -4.75 -17.5 0
      vertex -16.65 -17.5 0
      vertex -4.75 0 0
    endloop
  endfacet
  facet normal 0 0 -1
    outer loop
      vertex 16.65 -17.5 0
      vertex 4.75 -17.5 0
      vertex 16.65 0 0
    endloop
  endfacet
  facet normal 0 0 -1
    outer loop
      vertex 26.15 -16.1261 0
      vertex 27.75 -12.5 0
      vertex 27.3694 -14.4134 0
    endloop
  endfacet
  facet normal 0 0 -1
    outer loop
      vertex 27.75 -12.5 0
      vertex 26.15 0 0
      vertex 27.75 4.5 0
    endloop
  endfacet
  facet normal 0 0 -1
    outer loop
      vertex 26.15 -16.1261 0
      vertex 27.3694 -14.4134 0
      vertex 26.2855 -16.0355 0
    endloop
  endfacet
  facet normal 0 0 -1
    outer loop
      vertex 22.75 9.5 0
      vertex 27.75 4.5 0
      vertex 26.15 0 0
    endloop
  endfacet
  facet normal -0 0 -1
    outer loop
      vertex 27.75 -12.5 0
      vertex 26.15 -16.1261 0
      vertex 26.15 0 0
    endloop
  endfacet
  facet normal 0 0 -1
    outer loop
      vertex 27.75 4.5 0
      vertex 22.75 9.5 0
      vertex 27.3694 6.41342 0
    endloop
  endfacet
  facet normal 0 0 -1
    outer loop
      vertex 27.3694 6.41342 0
      vertex 22.75 9.5 0
      vertex 26.2855 8.03553 0
    endloop
  endfacet
  facet normal 0 0 -1
    outer loop
      vertex 26.2855 8.03553 0
      vertex 22.75 9.5 0
      vertex 24.6634 9.1194 0
    endloop
  endfacet
  facet normal 0 0 -1
    outer loop
      vertex 16.65 0 0
      vertex 22.75 9.5 0
      vertex 26.15 0 0
    endloop
  endfacet
  facet normal 0 0 -1
    outer loop
      vertex 4.75 0 0
      vertex 16.65 0 0
      vertex 4.75 -17.5 0
    endloop
  endfacet
  facet normal 0 0 -1
    outer loop
      vertex 16.65 0 0
      vertex 4.75 0 0
      vertex 22.75 9.5 0
    endloop
  endfacet
  facet normal 0 0 -1
    outer loop
      vertex -4.75 0 0
      vertex 22.75 9.5 0
      vertex 4.75 0 0
    endloop
  endfacet
  facet normal 0 0 -1
    outer loop
      vertex -16.65 0 0
      vertex -4.75 0 0
      vertex -16.65 -17.5 0
    endloop
  endfacet
  facet normal 0 0 -1
    outer loop
      vertex -22.75 9.5 0
      vertex -4.75 0 0
      vertex -16.65 0 0
    endloop
  endfacet
  facet normal 0 0 -1
    outer loop
      vertex -4.75 0 0
      vertex -22.75 9.5 0
      vertex 22.75 9.5 0
    endloop
  endfacet
  facet normal 0 0 -1
    outer loop
      vertex -26.15 0 0
      vertex -22.75 9.5 0
      vertex -16.65 0 0
    endloop
  endfacet
  facet normal 0 0 -1
    outer loop
      vertex -27.75 4.5 0
      vertex -22.75 9.5 0
      vertex -26.15 0 0
    endloop
  endfacet
  facet normal 0 0 -1
    outer loop
      vertex -22.75 9.5 0
      vertex -27.75 4.5 0
      vertex -24.6634 9.1194 0
    endloop
  endfacet
  facet normal 0 0 -1
    outer loop
      vertex -26.15 -16.1261 0
      vertex -27.75 -12.5 0
      vertex -26.15 0 0
    endloop
  endfacet
  facet normal 0 0 -1
    outer loop
      vertex -26.15 -16.1261 0
      vertex -27.3694 -14.4134 0
      vertex -27.75 -12.5 0
    endloop
  endfacet
  facet normal 0 0 -1
    outer loop
      vertex -27.75 4.5 0
      vertex -26.15 0 0
      vertex -27.75 -12.5 0
    endloop
  endfacet
  facet normal 0 0 -1
    outer loop
      vertex -24.6634 9.1194 0
      vertex -27.75 4.5 0
      vertex -26.2855 8.03553 0
    endloop
  endfacet
  facet normal 0 0 -1
    outer loop
      vertex -26.2855 8.03553 0
      vertex -27.75 4.5 0
      vertex -27.3694 6.41342 0
    endloop
  endfacet
  facet normal -1 0 0
    outer loop
      vertex -27.75 -12.5 0
      vertex -27.75 4.5 150
      vertex -27.75 4.5 0
    endloop
  endfacet
  facet normal -1 -0 0
    outer loop
      vertex -27.75 4.5 150
      vertex -27.75 -12.5 0
      vertex -27.75 -12.5 150
    endloop
  endfacet
  facet normal -0.980785 0.195091 0
    outer loop
      vertex -27.75 4.5 0
      vertex -27.3694 6.41342 150
      vertex -27.3694 6.41342 0
    endloop
  endfacet
  facet normal -0.980785 0.195091 0
    outer loop
      vertex -27.3694 6.41342 150
      vertex -27.75 4.5 0
      vertex -27.75 4.5 150
    endloop
  endfacet
  facet normal 0.55557 0.83147 -0
    outer loop
      vertex 26.2855 8.03553 0
      vertex 24.6634 9.1194 150
      vertex 26.2855 8.03553 150
    endloop
  endfacet
  facet normal 0.55557 0.83147 0
    outer loop
      vertex 24.6634 9.1194 150
      vertex 26.2855 8.03553 0
      vertex 24.6634 9.1194 0
    endloop
  endfacet
  facet normal 0.83147 0.55557 0
    outer loop
      vertex 27.3694 6.41342 150
      vertex 26.2855 8.03553 0
      vertex 26.2855 8.03553 150
    endloop
  endfacet
  facet normal 0.83147 0.55557 0
    outer loop
      vertex 26.2855 8.03553 0
      vertex 27.3694 6.41342 150
      vertex 27.3694 6.41342 0
    endloop
  endfacet
  facet normal 0.980785 -0.195091 0
    outer loop
      vertex 27.3694 -14.4134 150
      vertex 27.75 -12.5 0
      vertex 27.75 -12.5 150
    endloop
  endfacet
  facet normal 0.980785 -0.195091 0
    outer loop
      vertex 27.75 -12.5 0
      vertex 27.3694 -14.4134 150
      vertex 27.3694 -14.4134 0
    endloop
  endfacet
  facet normal 1 0 0
    outer loop
      vertex 27.75 -2.75 150
      vertex 27.75 -12.5 150
      vertex 27.75 -2.75 60
    endloop
  endfacet
  facet normal 1 -0 0
    outer loop
      vertex 27.75 -2.75 60
      vertex 27.75 4.5 0
      vertex 27.75 4.5 60
    endloop
  endfacet
  facet normal 1 0 0
    outer loop
      vertex 27.75 -2.75 60
      vertex 27.75 -12.5 0
      vertex 27.75 4.5 0
    endloop
  endfacet
  facet normal 1 0 0
    outer loop
      vertex 27.75 -12.5 0
      vertex 27.75 -2.75 60
      vertex 27.75 -12.5 150
    endloop
  endfacet
  facet normal -0.83147 0.55557 0
    outer loop
      vertex -27.3694 6.41342 0
      vertex -26.2855 8.03553 150
      vertex -26.2855 8.03553 0
    endloop
  endfacet
  facet normal -0.83147 0.55557 0
    outer loop
      vertex -26.2855 8.03553 150
      vertex -27.3694 6.41342 0
      vertex -27.3694 6.41342 150
    endloop
  endfacet
  facet normal -0.83147 -0.55557 0
    outer loop
      vertex -26.2855 -16.0355 0
      vertex -27.3694 -14.4134 150
      vertex -27.3694 -14.4134 0
    endloop
  endfacet
  facet normal -0.83147 -0.55557 0
    outer loop
      vertex -27.3694 -14.4134 150
      vertex -26.2855 -16.0355 0
      vertex -26.2855 -16.0355 150
    endloop
  endfacet
  facet normal 0.83147 -0.55557 0
    outer loop
      vertex 26.2855 -16.0355 150
      vertex 27.3694 -14.4134 0
      vertex 27.3694 -14.4134 150
    endloop
  endfacet
  facet normal 0.83147 -0.55557 0
    outer loop
      vertex 27.3694 -14.4134 0
      vertex 26.2855 -16.0355 150
      vertex 26.2855 -16.0355 0
    endloop
  endfacet
  facet normal 0.55557 -0.83147 0
    outer loop
      vertex 24.6634 -17.1194 1.5
      vertex 26.2855 -16.0355 150
      vertex 24.6634 -17.1194 150
    endloop
  endfacet
  facet normal 0.55557 -0.83147 -7.15585e-10
    outer loop
      vertex 26.15 -16.1261 1.5
      vertex 26.2855 -16.0355 150
      vertex 24.6634 -17.1194 1.5
    endloop
  endfacet
  facet normal 0.555569 -0.83147 0
    outer loop
      vertex 26.2855 -16.0355 0
      vertex 26.15 -16.1261 1.5
      vertex 26.15 -16.1261 0
    endloop
  endfacet
  facet normal 0.555569 -0.83147 0
    outer loop
      vertex 26.15 -16.1261 1.5
      vertex 26.2855 -16.0355 0
      vertex 26.2855 -16.0355 150
    endloop
  endfacet
  facet normal 0 -1 0
    outer loop
      vertex -4.825 8.5 1.77925
      vertex 10.5 8.5 9.80982
      vertex -10.5 8.5 9.88399
    endloop
  endfacet
  facet normal 0 -1 0
    outer loop
      vertex -4.825 8.5 1.77925
      vertex 4.875 8.5 1.77649
      vertex 10.5 8.5 9.80982
    endloop
  endfacet
  facet normal 0 -1 0
    outer loop
      vertex -4.825 8.5 1
      vertex 4.875 8.5 1.77649
      vertex -4.825 8.5 1.77925
    endloop
  endfacet
  facet normal 0 -1 -0
    outer loop
      vertex 4.875 8.5 1.77649
      vertex -4.825 8.5 1
      vertex 4.875 8.5 1
    endloop
  endfacet
  facet normal 0 -1 0
    outer loop
      vertex -21.25 8.5 27.8587
      vertex -10.5 8.5 9.88399
      vertex 21.25 8.5 27.8587
    endloop
  endfacet
  facet normal 0 -1 0
    outer loop
      vertex -21.25 8.5 1
      vertex -10.5 8.5 9.88399
      vertex -21.25 8.5 27.8587
    endloop
  endfacet
  facet normal 0 -1 0
    outer loop
      vertex -10.5 8.5 9.88399
      vertex -21.25 8.5 1
      vertex -16.575 8.5 1.20799
    endloop
  endfacet
  facet normal 0 -1 -0
    outer loop
      vertex -16.575 8.5 1.20799
      vertex -21.25 8.5 1
      vertex -16.575 8.5 1
    endloop
  endfacet
  facet normal 0 -1 0
    outer loop
      vertex 10.5 8.5 9.80982
      vertex 21.25 8.5 27.8587
      vertex -10.5 8.5 9.88399
    endloop
  endfacet
  facet normal 0 -1 0
    outer loop
      vertex 21.25 8.5 1
      vertex 10.5 8.5 9.80982
      vertex 16.625 8.5 1.06241
    endloop
  endfacet
  facet normal 0 -1 0
    outer loop
      vertex 21.25 8.5 1
      vertex 16.625 8.5 1.06241
      vertex 16.625 8.5 1
    endloop
  endfacet
  facet normal 0 -1 0
    outer loop
      vertex 10.5 8.5 9.80982
      vertex 21.25 8.5 1
      vertex 21.25 8.5 27.8587
    endloop
  endfacet
  facet normal 0 -1 0
    outer loop
      vertex -21.25 8.5 150
      vertex -16.6366 8.5 31.7224
      vertex 21.25 8.5 150
    endloop
  endfacet
  facet normal 0 -1 0
    outer loop
      vertex -21.25 8.5 150
      vertex -18.6011 8.5 31.0616
      vertex -16.6366 8.5 31.7224
    endloop
  endfacet
  facet normal -0 -1 0
    outer loop
      vertex -18.6011 8.5 31.0616
      vertex -21.25 8.5 150
      vertex -21.25 8.5 29.4783
    endloop
  endfacet
  facet normal 0 -1 0
    outer loop
      vertex 16.6366 8.5 31.7224
      vertex 21.25 8.5 150
      vertex -16.6366 8.5 31.7224
    endloop
  endfacet
  facet normal 0 -1 0
    outer loop
      vertex 18.6011 8.5 31.0616
      vertex 21.25 8.5 150
      vertex 16.6366 8.5 31.7224
    endloop
  endfacet
  facet normal 0 -1 -0
    outer loop
      vertex 21.25 8.5 150
      vertex 18.6011 8.5 31.0616
      vertex 21.25 8.5 29.4783
    endloop
  endfacet
  facet normal -0.195091 -0.980785 0
    outer loop
      vertex 21.25 8.5 1
      vertex 23.1634 8.1194 26.4383
      vertex 21.25 8.5 27.8587
    endloop
  endfacet
  facet normal -0.195091 -0.980785 -0
    outer loop
      vertex 23.1634 8.1194 26.4383
      vertex 21.25 8.5 1
      vertex 23.1634 8.1194 1
    endloop
  endfacet
  facet normal -0.195091 -0.980785 0
    outer loop
      vertex 21.25 8.5 29.4783
      vertex 23.1634 8.1194 150
      vertex 21.25 8.5 150
    endloop
  endfacet
  facet normal -0.195087 -0.980786 -5.6284e-08
    outer loop
      vertex 21.3168 8.48672 29.4419
      vertex 23.1634 8.1194 150
      vertex 21.25 8.5 29.4783
    endloop
  endfacet
  facet normal -0.195091 -0.980785 -0
    outer loop
      vertex 23.1634 8.1194 150
      vertex 21.3168 8.48672 29.4419
      vertex 23.1634 8.1194 27.819
    endloop
  endfacet
  facet normal 0.195091 -0.980785 0
    outer loop
      vertex -21.25 8.5 1
      vertex -23.1634 8.1194 26.4383
      vertex -23.1634 8.1194 1
    endloop
  endfacet
  facet normal 0.195091 -0.980785 0
    outer loop
      vertex -23.1634 8.1194 26.4383
      vertex -21.25 8.5 1
      vertex -21.25 8.5 27.8587
    endloop
  endfacet
  facet normal 0.195091 -0.980785 0
    outer loop
      vertex -23.1634 8.1194 150
      vertex -21.25 8.5 29.4783
      vertex -21.25 8.5 150
    endloop
  endfacet
  facet normal 0.195087 -0.980786 -5.6284e-08
    outer loop
      vertex -23.1634 8.1194 150
      vertex -21.3168 8.48672 29.4419
      vertex -21.25 8.5 29.4783
    endloop
  endfacet
  facet normal 0.195091 -0.980785 0
    outer loop
      vertex -21.3168 8.48672 29.4419
      vertex -23.1634 8.1194 150
      vertex -23.1634 8.1194 27.819
    endloop
  endfacet
  facet normal 0.55557 -0.83147 0
    outer loop
      vertex -23.1634 8.1194 1
      vertex -24.7855 7.03553 22.3933
      vertex -24.7855 7.03553 1
    endloop
  endfacet
  facet normal 0.55557 -0.83147 0
    outer loop
      vertex -24.7855 7.03553 22.3933
      vertex -23.1634 8.1194 1
      vertex -23.1634 8.1194 26.4383
    endloop
  endfacet
  facet normal 0.55557 -0.83147 0
    outer loop
      vertex -24.7855 7.03553 150
      vertex -23.1634 8.1194 27.819
      vertex -23.1634 8.1194 150
    endloop
  endfacet
  facet normal 0.555571 -0.831469 2.30217e-08
    outer loop
      vertex -24.7855 7.03553 150
      vertex -23.6472 7.79616 27.4547
      vertex -23.1634 8.1194 27.819
    endloop
  endfacet
  facet normal 0.55557 -0.83147 0
    outer loop
      vertex -23.6472 7.79616 27.4547
      vertex -24.7855 7.03553 150
      vertex -24.7855 7.03553 26.0364
    endloop
  endfacet
  facet normal 0 1 -0
    outer loop
      vertex -16.575 -16.5 1.20799
      vertex -16.65 -16.5 1.5
      vertex -10.5 -16.5 9.88399
    endloop
  endfacet
  facet normal 0 1 0
    outer loop
      vertex -16.65 -16.5 1
      vertex -16.575 -16.5 1.20799
      vertex -16.575 -16.5 1
    endloop
  endfacet
  facet normal 0 1 0
    outer loop
      vertex -16.575 -16.5 1.20799
      vertex -16.65 -16.5 1
      vertex -16.65 -16.5 1.5
    endloop
  endfacet
  facet normal 0 1 -0
    outer loop
      vertex 4.875 -16.5 1
      vertex 4.75 -16.5 1.5
      vertex 4.875 -16.5 1.77649
    endloop
  endfacet
  facet normal 0 1 0
    outer loop
      vertex 4.75 -16.5 1.5
      vertex 4.875 -16.5 1
      vertex 4.75 -16.5 1
    endloop
  endfacet
  facet normal 0 1 0
    outer loop
      vertex 21.25 -16.5 150
      vertex -10.5 -16.5 9.88399
      vertex -21.25 -16.5 150
    endloop
  endfacet
  facet normal 0 1 0
    outer loop
      vertex 21.25 -16.5 150
      vertex 10.5 -16.5 9.80982
      vertex -10.5 -16.5 9.88399
    endloop
  endfacet
  facet normal 0 1 -0
    outer loop
      vertex 21.25 -16.5 1.5
      vertex 10.5 -16.5 9.80982
      vertex 21.25 -16.5 150
    endloop
  endfacet
  facet normal 0 1 -0
    outer loop
      vertex 16.65 -16.5 1.5
      vertex 10.5 -16.5 9.80982
      vertex 21.25 -16.5 1.5
    endloop
  endfacet
  facet normal 0 1 0
    outer loop
      vertex 16.65 -16.5 1.5
      vertex 16.625 -16.5 1.06241
      vertex 10.5 -16.5 9.80982
    endloop
  endfacet
  facet normal 0 1 -0
    outer loop
      vertex 16.65 -16.5 1
      vertex 16.625 -16.5 1.06241
      vertex 16.65 -16.5 1.5
    endloop
  endfacet
  facet normal 0 1 0
    outer loop
      vertex 16.625 -16.5 1.06241
      vertex 16.65 -16.5 1
      vertex 16.625 -16.5 1
    endloop
  endfacet
  facet normal 0 1 0
    outer loop
      vertex -21.25 -16.5 1.5
      vertex -10.5 -16.5 9.88399
      vertex -16.65 -16.5 1.5
    endloop
  endfacet
  facet normal 0 1 0
    outer loop
      vertex -10.5 -16.5 9.88399
      vertex -21.25 -16.5 1.5
      vertex -21.25 -16.5 150
    endloop
  endfacet
  facet normal 0 1 0
    outer loop
      vertex 10.5 -16.5 9.80982
      vertex -4.825 -16.5 1.77925
      vertex -10.5 -16.5 9.88399
    endloop
  endfacet
  facet normal 0 1 -0
    outer loop
      vertex 4.875 -16.5 1.77649
      vertex -4.825 -16.5 1.77925
      vertex 10.5 -16.5 9.80982
    endloop
  endfacet
  facet normal 0 1 -0
    outer loop
      vertex 4.75 -16.5 1.5
      vertex -4.825 -16.5 1.77925
      vertex 4.875 -16.5 1.77649
    endloop
  endfacet
  facet normal 0 1 -0
    outer loop
      vertex -4.75 -16.5 1.5
      vertex -4.825 -16.5 1.77925
      vertex 4.75 -16.5 1.5
    endloop
  endfacet
  facet normal 0 1 0
    outer loop
      vertex -4.825 -16.5 1
      vertex -4.75 -16.5 1.5
      vertex -4.75 -16.5 1
    endloop
  endfacet
  facet normal 0 1 0
    outer loop
      vertex -4.75 -16.5 1.5
      vertex -4.825 -16.5 1
      vertex -4.825 -16.5 1.77925
    endloop
  endfacet
  facet normal 0.55557 0.83147 -0
    outer loop
      vertex -23.1634 -16.1194 1.5
      vertex -24.7855 -15.0355 150
      vertex -23.1634 -16.1194 150
    endloop
  endfacet
  facet normal 0.55557 0.83147 0
    outer loop
      vertex -24.7855 -15.0355 150
      vertex -23.1634 -16.1194 1.5
      vertex -24.7855 -15.0355 1.5
    endloop
  endfacet
  facet normal -0.980785 -0.195091 -0
    outer loop
      vertex 26.25 3.5 9.19847
      vertex 25.8694 5.41342 1
      vertex 26.25 3.5 1
    endloop
  endfacet
  facet normal -0.980785 -0.195091 0
    outer loop
      vertex 25.8694 5.41342 1
      vertex 26.25 3.5 9.19847
      vertex 25.8694 5.41342 16.3394
    endloop
  endfacet
  facet normal -0.980785 -0.195093 0
    outer loop
      vertex 25.8694 5.41342 20.2031
      vertex 26.0014 4.75 60
      vertex 25.8694 5.41342 150
    endloop
  endfacet
  facet normal -0.980785 -0.195091 -0
    outer loop
      vertex 26.25 3.5 60
      vertex 25.8694 5.41342 20.2031
      vertex 26.25 3.5 13.0622
    endloop
  endfacet
  facet normal -0.980785 -0.19509 5.23169e-08
    outer loop
      vertex 25.8694 5.41342 20.2031
      vertex 26.25 3.5 60
      vertex 26.0014 4.75 60
    endloop
  endfacet
  facet normal -0.980785 -0.195093 0
    outer loop
      vertex 25.8694 5.41342 150
      vertex 26.0014 4.75 60
      vertex 26.0014 4.75 150
    endloop
  endfacet
  facet normal 0.195091 0.980785 -0
    outer loop
      vertex -21.25 -16.5 1.5
      vertex -23.1634 -16.1194 150
      vertex -21.25 -16.5 150
    endloop
  endfacet
  facet normal 0.195091 0.980785 0
    outer loop
      vertex -23.1634 -16.1194 150
      vertex -21.25 -16.5 1.5
      vertex -23.1634 -16.1194 1.5
    endloop
  endfacet
  facet normal -0 0 1
    outer loop
      vertex -21.25 8.5 1
      vertex -16.575 1.30323 1
      vertex -16.575 8.5 1
    endloop
  endfacet
  facet normal -0 0 1
    outer loop
      vertex -23.1634 8.1194 1
      vertex -16.575 1.30323 1
      vertex -21.25 8.5 1
    endloop
  endfacet
  facet normal -0 0 1
    outer loop
      vertex -24.7855 7.03553 1
      vertex -16.575 1.30323 1
      vertex -23.1634 8.1194 1
    endloop
  endfacet
  facet normal -0 0 1
    outer loop
      vertex -25.8694 5.41342 1
      vertex -16.575 1.30323 1
      vertex -24.7855 7.03553 1
    endloop
  endfacet
  facet normal -0 0 1
    outer loop
      vertex -26.25 3.5 1
      vertex -16.575 1.30323 1
      vertex -25.8694 5.41342 1
    endloop
  endfacet
  facet normal 0 0 1
    outer loop
      vertex -16.575 1.30323 1
      vertex -26.25 3.5 1
      vertex -26.25 1.30323 1
    endloop
  endfacet
  facet normal 0 0 1
    outer loop
      vertex 16.625 1.30323 1
      vertex 26.25 3.5 1
      vertex 25.8694 5.41342 1
    endloop
  endfacet
  facet normal 0 0 1
    outer loop
      vertex 16.625 1.30323 1
      vertex 25.8694 5.41342 1
      vertex 24.7855 7.03553 1
    endloop
  endfacet
  facet normal 0 0 1
    outer loop
      vertex 16.625 1.30323 1
      vertex 24.7855 7.03553 1
      vertex 23.1634 8.1194 1
    endloop
  endfacet
  facet normal 0 0 1
    outer loop
      vertex 16.625 1.30323 1
      vertex 23.1634 8.1194 1
      vertex 21.25 8.5 1
    endloop
  endfacet
  facet normal 0 0 1
    outer loop
      vertex 16.625 1.30323 1
      vertex 21.25 8.5 1
      vertex 16.625 8.5 1
    endloop
  endfacet
  facet normal 0 0 1
    outer loop
      vertex 26.25 3.5 1
      vertex 16.625 1.30323 1
      vertex 26.25 1.30323 1
    endloop
  endfacet
  facet normal 0 0 1
    outer loop
      vertex -16.575 0.267949 1
      vertex -16.65 0 1
      vertex -16.575 -16.5 1
    endloop
  endfacet
  facet normal 0 0 1
    outer loop
      vertex -16.575 0.267949 1
      vertex -26.15 0 1
      vertex -16.65 0 1
    endloop
  endfacet
  facet normal -0 0 1
    outer loop
      vertex -26.25 0.267949 1
      vertex -26.15 0 1
      vertex -16.575 0.267949 1
    endloop
  endfacet
  facet normal 0 0 1
    outer loop
      vertex -26.25 -11.5 1
      vertex -26.15 0 1
      vertex -26.25 0.267949 1
    endloop
  endfacet
  facet normal 0 0 1
    outer loop
      vertex -26.15 0 1
      vertex -26.25 -11.5 1
      vertex -26.15 -12.0027 1
    endloop
  endfacet
  facet normal 0 0 1
    outer loop
      vertex -16.575 -16.5 1
      vertex -16.65 0 1
      vertex -16.65 -16.5 1
    endloop
  endfacet
  facet normal 0 0 1
    outer loop
      vertex 26.25 0.267949 1
      vertex 26.15 0 1
      vertex 26.25 -11.5 1
    endloop
  endfacet
  facet normal -0 0 1
    outer loop
      vertex 16.625 0.267949 1
      vertex 26.15 0 1
      vertex 26.25 0.267949 1
    endloop
  endfacet
  facet normal 0 0 1
    outer loop
      vertex 26.15 0 1
      vertex 16.625 0.267949 1
      vertex 16.65 0 1
    endloop
  endfacet
  facet normal 0 0 1
    outer loop
      vertex 16.625 -16.5 1
      vertex 16.65 0 1
      vertex 16.625 0.267949 1
    endloop
  endfacet
  facet normal 0 0 1
    outer loop
      vertex 16.65 0 1
      vertex 16.625 -16.5 1
      vertex 16.65 -16.5 1
    endloop
  endfacet
  facet normal 0 0 1
    outer loop
      vertex 26.25 -11.5 1
      vertex 26.15 0 1
      vertex 26.15 -12.0027 1
    endloop
  endfacet
  facet normal 0 0 1
    outer loop
      vertex 4.875 0.267949 1
      vertex 4.75 0 1
      vertex 4.875 -16.5 1
    endloop
  endfacet
  facet normal -0 0 1
    outer loop
      vertex -4.825 0.267949 1
      vertex 4.75 0 1
      vertex 4.875 0.267949 1
    endloop
  endfacet
  facet normal 0 0 1
    outer loop
      vertex 4.75 0 1
      vertex -4.825 0.267949 1
      vertex -4.75 0 1
    endloop
  endfacet
  facet normal 0 0 1
    outer loop
      vertex -4.825 -16.5 1
      vertex -4.75 0 1
      vertex -4.825 0.267949 1
    endloop
  endfacet
  facet normal 0 0 1
    outer loop
      vertex -4.75 0 1
      vertex -4.825 -16.5 1
      vertex -4.75 -16.5 1
    endloop
  endfacet
  facet normal 0 0 1
    outer loop
      vertex 4.875 -16.5 1
      vertex 4.75 0 1
      vertex 4.75 -16.5 1
    endloop
  endfacet
  facet normal -0 0 1
    outer loop
      vertex -4.825 8.5 1
      vertex 4.875 1.30323 1
      vertex 4.875 8.5 1
    endloop
  endfacet
  facet normal 0 0 1
    outer loop
      vertex 4.875 1.30323 1
      vertex -4.825 8.5 1
      vertex -4.825 1.30323 1
    endloop
  endfacet
  facet normal 1 -0 0
    outer loop
      vertex -26.25 -11.5 150
      vertex -26.25 3.5 13.0622
      vertex -26.25 3.5 150
    endloop
  endfacet
  facet normal 1 0 0
    outer loop
      vertex -26.25 -11.5 1
      vertex -26.25 3.5 13.0622
      vertex -26.25 -11.5 150
    endloop
  endfacet
  facet normal 1 0 0
    outer loop
      vertex -26.25 3.5 13.0622
      vertex -26.25 -11.5 1
      vertex -26.25 0.267949 1
    endloop
  endfacet
  facet normal 1 0 -0
    outer loop
      vertex -26.25 3.5 1
      vertex -26.25 3.5 9.19847
      vertex -26.25 1.30323 1
    endloop
  endfacet
  facet normal 0.980785 -0.195091 0
    outer loop
      vertex -26.25 3.5 9.19847
      vertex -25.8694 5.41342 1
      vertex -25.8694 5.41342 16.3394
    endloop
  endfacet
  facet normal 0.980785 -0.195091 0
    outer loop
      vertex -25.8694 5.41342 1
      vertex -26.25 3.5 9.19847
      vertex -26.25 3.5 1
    endloop
  endfacet
  facet normal 0.980785 -0.195091 0
    outer loop
      vertex -26.25 3.5 150
      vertex -25.8694 5.41342 20.2031
      vertex -25.8694 5.41342 150
    endloop
  endfacet
  facet normal 0.980785 -0.195091 0
    outer loop
      vertex -25.8694 5.41342 20.2031
      vertex -26.25 3.5 150
      vertex -26.25 3.5 13.0622
    endloop
  endfacet
  facet normal -0.55557 -0.83147 0
    outer loop
      vertex 23.1634 8.1194 1
      vertex 24.7855 7.03553 22.3933
      vertex 23.1634 8.1194 26.4383
    endloop
  endfacet
  facet normal -0.55557 -0.83147 -0
    outer loop
      vertex 24.7855 7.03553 22.3933
      vertex 23.1634 8.1194 1
      vertex 24.7855 7.03553 1
    endloop
  endfacet
  facet normal -0.55557 -0.83147 0
    outer loop
      vertex 23.1634 8.1194 27.819
      vertex 24.7855 7.03553 150
      vertex 23.1634 8.1194 150
    endloop
  endfacet
  facet normal -0.555571 -0.831469 2.30217e-08
    outer loop
      vertex 23.6472 7.79616 27.4547
      vertex 24.7855 7.03553 150
      vertex 23.1634 8.1194 27.819
    endloop
  endfacet
  facet normal -0.55557 -0.83147 -0
    outer loop
      vertex 24.7855 7.03553 150
      vertex 23.6472 7.79616 27.4547
      vertex 24.7855 7.03553 26.0364
    endloop
  endfacet
  facet normal -0.83147 -0.55557 -0
    outer loop
      vertex 25.8694 5.41342 16.3394
      vertex 24.7855 7.03553 1
      vertex 25.8694 5.41342 1
    endloop
  endfacet
  facet normal -0.83147 -0.55557 0
    outer loop
      vertex 24.7855 7.03553 1
      vertex 25.8694 5.41342 16.3394
      vertex 24.7855 7.03553 22.3933
    endloop
  endfacet
  facet normal -0.831467 -0.555575 -9.43583e-08
    outer loop
      vertex 25.8694 5.41342 150
      vertex 24.7855 7.03553 26.0364
      vertex 24.8339 6.96316 25.9869
    endloop
  endfacet
  facet normal -0.83147 -0.555569 -0
    outer loop
      vertex 25.8694 5.41342 150
      vertex 24.8339 6.96316 25.9869
      vertex 25.8694 5.41342 20.2031
    endloop
  endfacet
  facet normal -0.83147 -0.55557 0
    outer loop
      vertex 24.7855 7.03553 26.0364
      vertex 25.8694 5.41342 150
      vertex 24.7855 7.03553 150
    endloop
  endfacet
  facet normal -0.980785 0.195091 0
    outer loop
      vertex 26.15 -12.0027 1.5
      vertex 26.25 -11.5 1
      vertex 26.15 -12.0027 1
    endloop
  endfacet
  facet normal -0.980785 0.195091 0
    outer loop
      vertex 26.25 -11.5 1
      vertex 26.15 -12.0027 1.5
      vertex 26.25 -11.5 150
    endloop
  endfacet
  facet normal -0.980785 0.195091 -2.26063e-09
    outer loop
      vertex 25.8694 -13.4134 1.5
      vertex 26.25 -11.5 150
      vertex 26.15 -12.0027 1.5
    endloop
  endfacet
  facet normal -0.980785 0.195091 0
    outer loop
      vertex 26.25 -11.5 150
      vertex 25.8694 -13.4134 1.5
      vertex 25.8694 -13.4134 150
    endloop
  endfacet
  facet normal -1 0 -0
    outer loop
      vertex 26.25 3.5 9.19847
      vertex 26.25 3.5 1
      vertex 26.25 1.30323 1
    endloop
  endfacet
  facet normal -1 0 0
    outer loop
      vertex 26.25 -11.5 1
      vertex 26.25 3.5 13.0622
      vertex 26.25 0.267949 1
    endloop
  endfacet
  facet normal -1 0 0
    outer loop
      vertex 26.25 3.5 13.0622
      vertex 26.25 -2.75 60
      vertex 26.25 3.5 60
    endloop
  endfacet
  facet normal -1 -0 0
    outer loop
      vertex 26.25 3.5 13.0622
      vertex 26.25 -11.5 1
      vertex 26.25 -2.75 60
    endloop
  endfacet
  facet normal -1 0 0
    outer loop
      vertex 26.25 -11.5 150
      vertex 26.25 -2.75 60
      vertex 26.25 -11.5 1
    endloop
  endfacet
  facet normal -1 0 0
    outer loop
      vertex 26.25 -2.75 60
      vertex 26.25 -11.5 150
      vertex 26.25 -2.75 150
    endloop
  endfacet
  facet normal 0.83147 -0.55557 0
    outer loop
      vertex -25.8694 5.41342 16.3394
      vertex -24.7855 7.03553 1
      vertex -24.7855 7.03553 22.3933
    endloop
  endfacet
  facet normal 0.83147 -0.55557 0
    outer loop
      vertex -24.7855 7.03553 1
      vertex -25.8694 5.41342 16.3394
      vertex -25.8694 5.41342 1
    endloop
  endfacet
  facet normal 0.83147 -0.55557 0
    outer loop
      vertex -25.8694 5.41342 150
      vertex -24.7855 7.03553 26.0364
      vertex -24.7855 7.03553 150
    endloop
  endfacet
  facet normal 0.831467 -0.555575 -9.43583e-08
    outer loop
      vertex -24.7855 7.03553 26.0364
      vertex -25.8694 5.41342 150
      vertex -24.8339 6.96316 25.9869
    endloop
  endfacet
  facet normal 0.83147 -0.555569 0
    outer loop
      vertex -24.8339 6.96316 25.9869
      vertex -25.8694 5.41342 150
      vertex -25.8694 5.41342 20.2031
    endloop
  endfacet
  facet normal 0.83147 0.55557 0
    outer loop
      vertex -24.7855 -15.0355 150
      vertex -25.8694 -13.4134 1.5
      vertex -25.8694 -13.4134 150
    endloop
  endfacet
  facet normal 0.83147 0.55557 0
    outer loop
      vertex -25.8694 -13.4134 1.5
      vertex -24.7855 -15.0355 150
      vertex -24.7855 -15.0355 1.5
    endloop
  endfacet
  facet normal 0.980785 0.195091 0
    outer loop
      vertex -26.25 -11.5 150
      vertex -26.15 -12.0027 1.5
      vertex -26.25 -11.5 1
    endloop
  endfacet
  facet normal 0.980785 0.195091 -1.66667e-09
    outer loop
      vertex -25.8694 -13.4134 150
      vertex -26.15 -12.0027 1.5
      vertex -26.25 -11.5 150
    endloop
  endfacet
  facet normal 0.980785 0.195091 0
    outer loop
      vertex -26.15 -12.0027 1.5
      vertex -25.8694 -13.4134 150
      vertex -25.8694 -13.4134 1.5
    endloop
  endfacet
  facet normal 0.980785 0.195091 0
    outer loop
      vertex -26.25 -11.5 1
      vertex -26.15 -12.0027 1.5
      vertex -26.15 -12.0027 1
    endloop
  endfacet
  facet normal -0.83147 0.55557 0
    outer loop
      vertex 24.7855 -15.0355 1.5
      vertex 25.8694 -13.4134 150
      vertex 25.8694 -13.4134 1.5
    endloop
  endfacet
  facet normal -0.83147 0.55557 0
    outer loop
      vertex 25.8694 -13.4134 150
      vertex 24.7855 -15.0355 1.5
      vertex 24.7855 -15.0355 150
    endloop
  endfacet
  facet normal -0.55557 0.83147 0
    outer loop
      vertex 24.7855 -15.0355 1.5
      vertex 23.1634 -16.1194 150
      vertex 24.7855 -15.0355 150
    endloop
  endfacet
  facet normal -0.55557 0.83147 0
    outer loop
      vertex 23.1634 -16.1194 150
      vertex 24.7855 -15.0355 1.5
      vertex 23.1634 -16.1194 1.5
    endloop
  endfacet
  facet normal -0.195091 0.980785 0
    outer loop
      vertex 23.1634 -16.1194 1.5
      vertex 21.25 -16.5 150
      vertex 23.1634 -16.1194 150
    endloop
  endfacet
  facet normal -0.195091 0.980785 0
    outer loop
      vertex 21.25 -16.5 150
      vertex 23.1634 -16.1194 1.5
      vertex 21.25 -16.5 1.5
    endloop
  endfacet
  facet normal 1 0 0
    outer loop
      vertex -4.75 -16.5 1.5
      vertex -4.75 -17.5 1.5
      vertex -4.75 -16.5 1
    endloop
  endfacet
  facet normal 1 -0 0
    outer loop
      vertex -4.75 -16.5 1
      vertex -4.75 0 0
      vertex -4.75 0 1
    endloop
  endfacet
  facet normal 1 0 0
    outer loop
      vertex -4.75 -16.5 1
      vertex -4.75 -17.5 0
      vertex -4.75 0 0
    endloop
  endfacet
  facet normal 1 0 0
    outer loop
      vertex -4.75 -17.5 0
      vertex -4.75 -16.5 1
      vertex -4.75 -17.5 1.5
    endloop
  endfacet
  facet normal 0 0 -1
    outer loop
      vertex -4.75 -17.5 1.5
      vertex 4.75 -16.5 1.5
      vertex 4.75 -17.5 1.5
    endloop
  endfacet
  facet normal -0 0 -1
    outer loop
      vertex 4.75 -16.5 1.5
      vertex -4.75 -17.5 1.5
      vertex -4.75 -16.5 1.5
    endloop
  endfacet
  facet normal -1 0 0
    outer loop
      vertex 4.75 0 0
      vertex 4.75 -16.5 1
      vertex 4.75 0 1
    endloop
  endfacet
  facet normal -1 0 0
    outer loop
      vertex 4.75 -17.5 0
      vertex 4.75 -16.5 1
      vertex 4.75 0 0
    endloop
  endfacet
  facet normal -1 0 0
    outer loop
      vertex 4.75 -17.5 1.5
      vertex 4.75 -16.5 1
      vertex 4.75 -17.5 0
    endloop
  endfacet
  facet normal -1 0 0
    outer loop
      vertex 4.75 -16.5 1
      vertex 4.75 -17.5 1.5
      vertex 4.75 -16.5 1.5
    endloop
  endfacet
  facet normal 0 -1 0
    outer loop
      vertex -4.75 0 0
      vertex 4.75 0 1
      vertex -4.75 0 1
    endloop
  endfacet
  facet normal 0 -1 -0
    outer loop
      vertex 4.75 0 1
      vertex -4.75 0 0
      vertex 4.75 0 0
    endloop
  endfacet
  facet normal 1 0 0
    outer loop
      vertex 16.65 -16.5 1.5
      vertex 16.65 -17.5 1.5
      vertex 16.65 -16.5 1
    endloop
  endfacet
  facet normal 1 -0 0
    outer loop
      vertex 16.65 -16.5 1
      vertex 16.65 0 0
      vertex 16.65 0 1
    endloop
  endfacet
  facet normal 1 0 0
    outer loop
      vertex 16.65 -16.5 1
      vertex 16.65 -17.5 0
      vertex 16.65 0 0
    endloop
  endfacet
  facet normal 1 0 0
    outer loop
      vertex 16.65 -17.5 0
      vertex 16.65 -16.5 1
      vertex 16.65 -17.5 1.5
    endloop
  endfacet
  facet normal 0 0 -1
    outer loop
      vertex 26.15 -16.1261 1.5
      vertex 25.8694 -13.4134 1.5
      vertex 26.15 -12.0027 1.5
    endloop
  endfacet
  facet normal 0 0 -1
    outer loop
      vertex 26.15 -16.1261 1.5
      vertex 24.7855 -15.0355 1.5
      vertex 25.8694 -13.4134 1.5
    endloop
  endfacet
  facet normal 0 0 -1
    outer loop
      vertex 24.6634 -17.1194 1.5
      vertex 24.7855 -15.0355 1.5
      vertex 26.15 -16.1261 1.5
    endloop
  endfacet
  facet normal 0 0 -1
    outer loop
      vertex 24.6634 -17.1194 1.5
      vertex 23.1634 -16.1194 1.5
      vertex 24.7855 -15.0355 1.5
    endloop
  endfacet
  facet normal 0 0 -1
    outer loop
      vertex 22.75 -17.5 1.5
      vertex 23.1634 -16.1194 1.5
      vertex 24.6634 -17.1194 1.5
    endloop
  endfacet
  facet normal 0 0 -1
    outer loop
      vertex 22.75 -17.5 1.5
      vertex 21.25 -16.5 1.5
      vertex 23.1634 -16.1194 1.5
    endloop
  endfacet
  facet normal 0 0 -1
    outer loop
      vertex 16.65 -17.5 1.5
      vertex 21.25 -16.5 1.5
      vertex 22.75 -17.5 1.5
    endloop
  endfacet
  facet normal -0 0 -1
    outer loop
      vertex 21.25 -16.5 1.5
      vertex 16.65 -17.5 1.5
      vertex 16.65 -16.5 1.5
    endloop
  endfacet
  facet normal -1 0 0
    outer loop
      vertex 26.15 0 0
      vertex 26.15 -12.0027 1
      vertex 26.15 0 1
    endloop
  endfacet
  facet normal -1 0 0
    outer loop
      vertex 26.15 -16.1261 0
      vertex 26.15 -12.0027 1
      vertex 26.15 0 0
    endloop
  endfacet
  facet normal -1 0 0
    outer loop
      vertex 26.15 -16.1261 1.5
      vertex 26.15 -12.0027 1
      vertex 26.15 -16.1261 0
    endloop
  endfacet
  facet normal -1 0 0
    outer loop
      vertex 26.15 -12.0027 1
      vertex 26.15 -16.1261 1.5
      vertex 26.15 -12.0027 1.5
    endloop
  endfacet
  facet normal 0 -1 0
    outer loop
      vertex 16.65 0 0
      vertex 26.15 0 1
      vertex 16.65 0 1
    endloop
  endfacet
  facet normal 0 -1 -0
    outer loop
      vertex 26.15 0 1
      vertex 16.65 0 0
      vertex 26.15 0 0
    endloop
  endfacet
  facet normal 1 0 0
    outer loop
      vertex -26.15 -12.0027 1.5
      vertex -26.15 -16.1261 1.5
      vertex -26.15 -12.0027 1
    endloop
  endfacet
  facet normal 1 -0 0
    outer loop
      vertex -26.15 -12.0027 1
      vertex -26.15 0 0
      vertex -26.15 0 1
    endloop
  endfacet
  facet normal 1 0 0
    outer loop
      vertex -26.15 -12.0027 1
      vertex -26.15 -16.1261 0
      vertex -26.15 0 0
    endloop
  endfacet
  facet normal 1 0 0
    outer loop
      vertex -26.15 -16.1261 0
      vertex -26.15 -12.0027 1
      vertex -26.15 -16.1261 1.5
    endloop
  endfacet
  facet normal 0 0 -1
    outer loop
      vertex -16.65 -17.5 1.5
      vertex -21.25 -16.5 1.5
      vertex -16.65 -16.5 1.5
    endloop
  endfacet
  facet normal 0 0 -1
    outer loop
      vertex -22.75 -17.5 1.5
      vertex -21.25 -16.5 1.5
      vertex -16.65 -17.5 1.5
    endloop
  endfacet
  facet normal 0 0 -1
    outer loop
      vertex -22.75 -17.5 1.5
      vertex -23.1634 -16.1194 1.5
      vertex -21.25 -16.5 1.5
    endloop
  endfacet
  facet normal 0 0 -1
    outer loop
      vertex -24.6634 -17.1194 1.5
      vertex -23.1634 -16.1194 1.5
      vertex -22.75 -17.5 1.5
    endloop
  endfacet
  facet normal 0 0 -1
    outer loop
      vertex -24.6634 -17.1194 1.5
      vertex -24.7855 -15.0355 1.5
      vertex -23.1634 -16.1194 1.5
    endloop
  endfacet
  facet normal 0 0 -1
    outer loop
      vertex -26.15 -16.1261 1.5
      vertex -24.7855 -15.0355 1.5
      vertex -24.6634 -17.1194 1.5
    endloop
  endfacet
  facet normal -0 0 -1
    outer loop
      vertex -24.7855 -15.0355 1.5
      vertex -26.15 -16.1261 1.5
      vertex -25.8694 -13.4134 1.5
    endloop
  endfacet
  facet normal -0 0 -1
    outer loop
      vertex -25.8694 -13.4134 1.5
      vertex -26.15 -16.1261 1.5
      vertex -26.15 -12.0027 1.5
    endloop
  endfacet
  facet normal -1 0 0
    outer loop
      vertex -16.65 0 0
      vertex -16.65 -16.5 1
      vertex -16.65 0 1
    endloop
  endfacet
  facet normal -1 0 0
    outer loop
      vertex -16.65 -17.5 0
      vertex -16.65 -16.5 1
      vertex -16.65 0 0
    endloop
  endfacet
  facet normal -1 0 0
    outer loop
      vertex -16.65 -17.5 1.5
      vertex -16.65 -16.5 1
      vertex -16.65 -17.5 0
    endloop
  endfacet
  facet normal -1 0 0
    outer loop
      vertex -16.65 -16.5 1
      vertex -16.65 -17.5 1.5
      vertex -16.65 -16.5 1.5
    endloop
  endfacet
  facet normal 0 -1 0
    outer loop
      vertex -26.15 0 0
      vertex -16.65 0 1
      vertex -26.15 0 1
    endloop
  endfacet
  facet normal 0 -1 -0
    outer loop
      vertex -16.65 0 1
      vertex -26.15 0 0
      vertex -16.65 0 0
    endloop
  endfacet
  facet normal 0 -1 0
    outer loop
      vertex 26.0014 4.75 60
      vertex 27.7003 4.75 150
      vertex 26.0014 4.75 150
    endloop
  endfacet
  facet normal 0 -1 -0
    outer loop
      vertex 27.7003 4.75 150
      vertex 26.0014 4.75 60
      vertex 27.7003 4.75 60
    endloop
  endfacet
  facet normal 0 0 1
    outer loop
      vertex 27.75 4.5 60
      vertex 26.0014 4.75 60
      vertex 26.25 3.5 60
    endloop
  endfacet
  facet normal -0 0 1
    outer loop
      vertex 26.0014 4.75 60
      vertex 27.75 4.5 60
      vertex 27.7003 4.75 60
    endloop
  endfacet
  facet normal 0 0 1
    outer loop
      vertex 27.75 4.5 60
      vertex 26.25 3.5 60
      vertex 27.75 -2.75 60
    endloop
  endfacet
  facet normal 0 0 1
    outer loop
      vertex 27.75 -2.75 60
      vertex 26.25 3.5 60
      vertex 26.25 -2.75 60
    endloop
  endfacet
  facet normal 0 1 -0
    outer loop
      vertex 27.75 -2.75 60
      vertex 26.25 -2.75 150
      vertex 27.75 -2.75 150
    endloop
  endfacet
  facet normal 0 1 0
    outer loop
      vertex 26.25 -2.75 150
      vertex 27.75 -2.75 60
      vertex 26.25 -2.75 60
    endloop
  endfacet
  facet normal -1 0 0
    outer loop
      vertex 4.875 -16.5 1.77649
      vertex 4.875 0.267949 1
      vertex 4.875 -16.5 1
    endloop
  endfacet
  facet normal -1 0 0
    outer loop
      vertex 4.875 0.267949 1
      vertex 4.875 -16.5 1.77649
      vertex 4.875 0.476008 1.77649
    endloop
  endfacet
  facet normal -1 0 0
    outer loop
      vertex 4.875 8.5 1
      vertex 4.875 1.51128 1.77649
      vertex 4.875 8.5 1.77649
    endloop
  endfacet
  facet normal -1 0 -0
    outer loop
      vertex 4.875 1.51128 1.77649
      vertex 4.875 8.5 1
      vertex 4.875 1.30323 1
    endloop
  endfacet
  facet normal 1 -0 0
    outer loop
      vertex 16.625 -16.5 1.06241
      vertex 16.625 0.267949 1
      vertex 16.625 0.284672 1.06241
    endloop
  endfacet
  facet normal 1 0 0
    outer loop
      vertex 16.625 0.267949 1
      vertex 16.625 -16.5 1.06241
      vertex 16.625 -16.5 1
    endloop
  endfacet
  facet normal 1 -0 0
    outer loop
      vertex 16.625 1.31995 1.06241
      vertex 16.625 8.5 1
      vertex 16.625 8.5 1.06241
    endloop
  endfacet
  facet normal 1 0 0
    outer loop
      vertex 16.625 8.5 1
      vertex 16.625 1.31995 1.06241
      vertex 16.625 1.30323 1
    endloop
  endfacet
  facet normal 0.819152 -0 0.573576
    outer loop
      vertex 10.5 -16.5 9.80982
      vertex 16.625 0.284672 1.06241
      vertex 10.5 2.62853 9.80982
    endloop
  endfacet
  facet normal 0.819152 0 0.573576
    outer loop
      vertex 16.625 0.284672 1.06241
      vertex 10.5 -16.5 9.80982
      vertex 16.625 -16.5 1.06241
    endloop
  endfacet
  facet normal 0.819152 -0 0.573576
    outer loop
      vertex 10.5 3.66381 9.80982
      vertex 16.625 8.5 1.06241
      vertex 10.5 8.5 9.80982
    endloop
  endfacet
  facet normal 0.819152 0 0.573576
    outer loop
      vertex 16.625 8.5 1.06241
      vertex 10.5 3.66381 9.80982
      vertex 16.625 1.31995 1.06241
    endloop
  endfacet
  facet normal -0.819152 0 0.573576
    outer loop
      vertex 10.5 -16.5 9.80982
      vertex 4.875 0.476008 1.77649
      vertex 4.875 -16.5 1.77649
    endloop
  endfacet
  facet normal -0.819152 0 0.573576
    outer loop
      vertex 4.875 0.476008 1.77649
      vertex 10.5 -16.5 9.80982
      vertex 10.5 2.62853 9.80982
    endloop
  endfacet
  facet normal -0.819152 0 0.573576
    outer loop
      vertex 4.875 8.5 1.77649
      vertex 10.5 3.66381 9.80982
      vertex 10.5 8.5 9.80982
    endloop
  endfacet
  facet normal -0.819152 0 0.573576
    outer loop
      vertex 10.5 3.66381 9.80982
      vertex 4.875 8.5 1.77649
      vertex 4.875 1.51128 1.77649
    endloop
  endfacet
  facet normal -1 0 0
    outer loop
      vertex -16.575 8.5 1
      vertex -16.575 1.35896 1.20799
      vertex -16.575 8.5 1.20799
    endloop
  endfacet
  facet normal -1 0 -0
    outer loop
      vertex -16.575 1.35896 1.20799
      vertex -16.575 8.5 1
      vertex -16.575 1.30323 1
    endloop
  endfacet
  facet normal -1 0 0
    outer loop
      vertex -16.575 -16.5 1.20799
      vertex -16.575 0.267949 1
      vertex -16.575 -16.5 1
    endloop
  endfacet
  facet normal -1 0 0
    outer loop
      vertex -16.575 0.267949 1
      vertex -16.575 -16.5 1.20799
      vertex -16.575 0.32368 1.20799
    endloop
  endfacet
  facet normal 1 -0 0
    outer loop
      vertex -4.825 -16.5 1.77925
      vertex -4.825 0.267949 1
      vertex -4.825 0.476749 1.77925
    endloop
  endfacet
  facet normal 1 0 0
    outer loop
      vertex -4.825 0.267949 1
      vertex -4.825 -16.5 1.77925
      vertex -4.825 -16.5 1
    endloop
  endfacet
  facet normal 1 -0 0
    outer loop
      vertex -4.825 1.51203 1.77925
      vertex -4.825 8.5 1
      vertex -4.825 8.5 1.77925
    endloop
  endfacet
  facet normal 1 0 0
    outer loop
      vertex -4.825 8.5 1
      vertex -4.825 1.51203 1.77925
      vertex -4.825 1.30323 1
    endloop
  endfacet
  facet normal 0.819152 -0 0.573576
    outer loop
      vertex -10.5 -16.5 9.88399
      vertex -4.825 0.476749 1.77925
      vertex -10.5 2.64841 9.88399
    endloop
  endfacet
  facet normal 0.819152 0 0.573576
    outer loop
      vertex -4.825 0.476749 1.77925
      vertex -10.5 -16.5 9.88399
      vertex -4.825 -16.5 1.77925
    endloop
  endfacet
  facet normal 0.819152 -0 0.573576
    outer loop
      vertex -10.5 3.68368 9.88399
      vertex -4.825 8.5 1.77925
      vertex -10.5 8.5 9.88399
    endloop
  endfacet
  facet normal 0.819152 0 0.573576
    outer loop
      vertex -4.825 8.5 1.77925
      vertex -10.5 3.68368 9.88399
      vertex -4.825 1.51203 1.77925
    endloop
  endfacet
  facet normal -0.819152 0 0.573576
    outer loop
      vertex -10.5 -16.5 9.88399
      vertex -16.575 0.32368 1.20799
      vertex -16.575 -16.5 1.20799
    endloop
  endfacet
  facet normal -0.819152 0 0.573576
    outer loop
      vertex -16.575 0.32368 1.20799
      vertex -10.5 -16.5 9.88399
      vertex -10.5 2.64841 9.88399
    endloop
  endfacet
  facet normal -0.819152 0 0.573576
    outer loop
      vertex -16.575 8.5 1.20799
      vertex -10.5 3.68368 9.88399
      vertex -10.5 8.5 9.88399
    endloop
  endfacet
  facet normal -0.819152 0 0.573576
    outer loop
      vertex -10.5 3.68368 9.88399
      vertex -16.575 8.5 1.20799
      vertex -16.575 1.35896 1.20799
    endloop
  endfacet
  facet normal -0.66913 0.192339 0.717823
    outer loop
      vertex -23.1634 8.1194 27.819
      vertex -21.3168 7.92899 29.5914
      vertex -21.3168 8.48672 29.4419
    endloop
  endfacet
  facet normal -0.669132 0.192338 0.717822
    outer loop
      vertex -23.6472 7.38591 27.5646
      vertex -23.1634 8.1194 27.819
      vertex -23.6472 7.79616 27.4547
    endloop
  endfacet
  facet normal -0.669131 0.192337 0.717823
    outer loop
      vertex -23.1634 8.1194 27.819
      vertex -23.6472 7.38591 27.5646
      vertex -21.3168 7.92899 29.5914
    endloop
  endfacet
  facet normal -0.809017 0.152129 0.567758
    outer loop
      vertex -24.7855 7.03553 26.0364
      vertex -23.6472 7.38591 27.5646
      vertex -23.6472 7.79616 27.4547
    endloop
  endfacet
  facet normal -0.809017 0.152141 0.567755
    outer loop
      vertex -23.6472 7.38591 27.5646
      vertex -24.7855 7.03553 26.0364
      vertex -24.8339 6.96316 25.9869
    endloop
  endfacet
  facet normal -0.500001 0.224137 0.836518
    outer loop
      vertex -21.25 8.5 29.4783
      vertex -18.601 8.3348 31.1059
      vertex -18.6011 8.5 31.0616
    endloop
  endfacet
  facet normal -0.500006 0.224142 0.836513
    outer loop
      vertex -21.3168 7.92899 29.5914
      vertex -21.25 8.5 29.4783
      vertex -21.3168 8.48672 29.4419
    endloop
  endfacet
  facet normal -0.5 0.224142 0.836517
    outer loop
      vertex -21.25 8.5 29.4783
      vertex -21.3168 7.92899 29.5914
      vertex -18.601 8.3348 31.1059
    endloop
  endfacet
  facet normal -0.309013 0.246165 0.918648
    outer loop
      vertex -16.1487 9.50695 31.6167
      vertex -16.2314 9.5 31.5908
      vertex -16.1487 9.5 31.6186
    endloop
  endfacet
  facet normal -0.309017 0.246147 0.918651
    outer loop
      vertex -16.6366 8.5 31.7224
      vertex -18.6011 8.5 31.0616
      vertex -18.601 8.3348 31.1059
    endloop
  endfacet
  facet normal 0.669132 0.192338 0.717822
    outer loop
      vertex 23.1634 8.1194 27.819
      vertex 23.6472 7.38591 27.5646
      vertex 23.6472 7.79616 27.4547
    endloop
  endfacet
  facet normal 0.66913 0.192339 0.717823
    outer loop
      vertex 21.3168 7.92899 29.5914
      vertex 23.1634 8.1194 27.819
      vertex 21.3168 8.48672 29.4419
    endloop
  endfacet
  facet normal 0.669131 0.192337 0.717823
    outer loop
      vertex 23.1634 8.1194 27.819
      vertex 21.3168 7.92899 29.5914
      vertex 23.6472 7.38591 27.5646
    endloop
  endfacet
  facet normal 0.809017 0.152129 0.567758
    outer loop
      vertex 23.6472 7.38591 27.5646
      vertex 24.7855 7.03553 26.0364
      vertex 23.6472 7.79616 27.4547
    endloop
  endfacet
  facet normal 0.809017 0.152141 0.567755
    outer loop
      vertex 24.7855 7.03553 26.0364
      vertex 23.6472 7.38591 27.5646
      vertex 24.8339 6.96316 25.9869
    endloop
  endfacet
  facet normal 0.500006 0.224142 0.836513
    outer loop
      vertex 21.25 8.5 29.4783
      vertex 21.3168 7.92899 29.5914
      vertex 21.3168 8.48672 29.4419
    endloop
  endfacet
  facet normal 0.500001 0.224137 0.836518
    outer loop
      vertex 18.601 8.3348 31.1059
      vertex 21.25 8.5 29.4783
      vertex 18.6011 8.5 31.0616
    endloop
  endfacet
  facet normal 0.5 0.224142 0.836517
    outer loop
      vertex 21.25 8.5 29.4783
      vertex 18.601 8.3348 31.1059
      vertex 21.3168 7.92899 29.5914
    endloop
  endfacet
  facet normal 0.309013 0.246165 0.918648
    outer loop
      vertex 16.1487 9.50695 31.6167
      vertex 16.1487 9.5 31.6186
      vertex 16.2314 9.5 31.5908
    endloop
  endfacet
  facet normal 0.309017 0.246147 0.918651
    outer loop
      vertex 18.6011 8.5 31.0616
      vertex 16.6366 8.5 31.7224
      vertex 18.601 8.3348 31.1059
    endloop
  endfacet
  facet normal -0 0.258833 0.965922
    outer loop
      vertex -16.1487 9.50695 31.6167
      vertex 16.1487 9.5 31.6186
      vertex 16.1487 9.50695 31.6167
    endloop
  endfacet
  facet normal 0 0.258833 0.965922
    outer loop
      vertex 16.1487 9.5 31.6186
      vertex -16.1487 9.50695 31.6167
      vertex -16.1487 9.5 31.6186
    endloop
  endfacet
  facet normal 7.0974e-10 -0.965926 0.258819
    outer loop
      vertex -4.825 0.476749 1.77925
      vertex 10.5 2.62853 9.80982
      vertex -10.5 2.64841 9.88399
    endloop
  endfacet
  facet normal -3.10931e-10 -0.965926 0.258819
    outer loop
      vertex -4.825 0.476749 1.77925
      vertex 4.875 0.476008 1.77649
      vertex 10.5 2.62853 9.80982
    endloop
  endfacet
  facet normal -3.06165e-10 -0.965926 0.258819
    outer loop
      vertex -4.825 0.267949 1
      vertex 4.875 0.476008 1.77649
      vertex -4.825 0.476749 1.77925
    endloop
  endfacet
  facet normal 0 -0.965926 0.258819
    outer loop
      vertex 4.875 0.476008 1.77649
      vertex -4.825 0.267949 1
      vertex 4.875 0.267949 1
    endloop
  endfacet
  facet normal -3.74326e-08 -0.965926 0.258819
    outer loop
      vertex -10.5 2.64841 9.88399
      vertex -16.6366 8.5 31.7224
      vertex -18.601 8.3348 31.1059
    endloop
  endfacet
  facet normal 0 -0.965926 0.258819
    outer loop
      vertex -16.6366 8.5 31.7224
      vertex -10.5 2.64841 9.88399
      vertex 16.6366 8.5 31.7224
    endloop
  endfacet
  facet normal -2.6391e-08 -0.965926 0.258819
    outer loop
      vertex -10.5 2.64841 9.88399
      vertex -18.601 8.3348 31.1059
      vertex -21.3168 7.92899 29.5914
    endloop
  endfacet
  facet normal 7.4609e-10 -0.965926 0.258819
    outer loop
      vertex 10.5 2.62853 9.80982
      vertex 16.6366 8.5 31.7224
      vertex -10.5 2.64841 9.88399
    endloop
  endfacet
  facet normal -5.73324e-08 -0.965926 0.258819
    outer loop
      vertex -25.8694 5.41342 20.2031
      vertex -21.3168 7.92899 29.5914
      vertex -23.6472 7.38591 27.5646
    endloop
  endfacet
  facet normal 3.72356e-08 -0.965926 0.258819
    outer loop
      vertex 16.6366 8.5 31.7224
      vertex 10.5 2.62853 9.80982
      vertex 18.601 8.3348 31.1059
    endloop
  endfacet
  facet normal 5.54318e-07 -0.965926 0.258819
    outer loop
      vertex -25.8694 5.41342 20.2031
      vertex -23.6472 7.38591 27.5646
      vertex -24.8339 6.96316 25.9869
    endloop
  endfacet
  facet normal 2.60611e-08 -0.965926 0.258819
    outer loop
      vertex 18.601 8.3348 31.1059
      vertex 10.5 2.62853 9.80982
      vertex 21.3168 7.92899 29.5914
    endloop
  endfacet
  facet normal -4.47217e-09 -0.965926 0.258819
    outer loop
      vertex -21.3168 7.92899 29.5914
      vertex -25.8694 5.41342 20.2031
      vertex -10.5 2.64841 9.88399
    endloop
  endfacet
  facet normal 3.6803e-09 -0.965926 0.258819
    outer loop
      vertex 25.8694 5.41342 20.2031
      vertex 21.3168 7.92899 29.5914
      vertex 10.5 2.62853 9.80982
    endloop
  endfacet
  facet normal 1.05682e-09 -0.965926 0.258819
    outer loop
      vertex -10.5 2.64841 9.88399
      vertex -25.8694 5.41342 20.2031
      vertex -26.25 3.5 13.0622
    endloop
  endfacet
  facet normal 5.73324e-08 -0.965926 0.258819
    outer loop
      vertex 21.3168 7.92899 29.5914
      vertex 25.8694 5.41342 20.2031
      vertex 23.6472 7.38591 27.5646
    endloop
  endfacet
  facet normal -5.54318e-07 -0.965926 0.258819
    outer loop
      vertex 23.6472 7.38591 27.5646
      vertex 25.8694 5.41342 20.2031
      vertex 24.8339 6.96316 25.9869
    endloop
  endfacet
  facet normal -3.3296e-09 -0.965926 0.258819
    outer loop
      vertex -26.25 3.5 13.0622
      vertex -16.575 0.32368 1.20799
      vertex -10.5 2.64841 9.88399
    endloop
  endfacet
  facet normal -4.08118e-11 -0.965926 0.258819
    outer loop
      vertex -26.25 0.267949 1
      vertex -16.575 0.32368 1.20799
      vertex -26.25 3.5 13.0622
    endloop
  endfacet
  facet normal 0 -0.965926 0.258819
    outer loop
      vertex -16.575 0.32368 1.20799
      vertex -26.25 0.267949 1
      vertex -16.575 0.267949 1
    endloop
  endfacet
  facet normal -2.11013e-09 -0.965926 0.258819
    outer loop
      vertex 25.8694 5.41342 20.2031
      vertex 10.5 2.62853 9.80982
      vertex 26.25 3.5 13.0622
    endloop
  endfacet
  facet normal 2.13535e-09 -0.965926 0.258819
    outer loop
      vertex 16.625 0.284672 1.06241
      vertex 26.25 3.5 13.0622
      vertex 10.5 2.62853 9.80982
    endloop
  endfacet
  facet normal 0 -0.965926 0.258819
    outer loop
      vertex 26.25 0.267949 1
      vertex 16.625 0.284672 1.06241
      vertex 16.625 0.267949 1
    endloop
  endfacet
  facet normal 1.87846e-10 -0.965926 0.258819
    outer loop
      vertex 16.625 0.284672 1.06241
      vertex 26.25 0.267949 1
      vertex 26.25 3.5 13.0622
    endloop
  endfacet
  facet normal 0 0.965926 -0.25882
    outer loop
      vertex 16.2314 9.5 31.5908
      vertex -16.1487 9.50695 31.6167
      vertex 16.1487 9.50695 31.6167
    endloop
  endfacet
  facet normal 0 0.965926 -0.25882
    outer loop
      vertex -16.1487 9.50695 31.6167
      vertex 16.2314 9.5 31.5908
      vertex -16.2314 9.5 31.5908
    endloop
  endfacet
  facet normal -3.71524e-08 0.965926 -0.258819
    outer loop
      vertex 24.7855 7.03553 22.3933
      vertex 21.25 8.5 27.8587
      vertex 23.1634 8.1194 26.4383
    endloop
  endfacet
  facet normal 0 0.965926 -0.258819
    outer loop
      vertex 21.25 8.5 27.8587
      vertex 10.5 3.66381 9.80982
      vertex -21.25 8.5 27.8587
    endloop
  endfacet
  facet normal 3.56391e-09 0.965926 -0.258819
    outer loop
      vertex 21.25 8.5 27.8587
      vertex 24.7855 7.03553 22.3933
      vertex 10.5 3.66381 9.80982
    endloop
  endfacet
  facet normal -7.31543e-10 0.965926 -0.258819
    outer loop
      vertex -10.5 3.68368 9.88399
      vertex -21.25 8.5 27.8587
      vertex 10.5 3.66381 9.80982
    endloop
  endfacet
  facet normal -8.47647e-09 0.965926 -0.258819
    outer loop
      vertex 10.5 3.66381 9.80982
      vertex 24.7855 7.03553 22.3933
      vertex 25.8694 5.41342 16.3394
    endloop
  endfacet
  facet normal -2.87463e-09 0.965926 -0.258819
    outer loop
      vertex -24.7855 7.03553 22.3933
      vertex -21.25 8.5 27.8587
      vertex -10.5 3.68368 9.88399
    endloop
  endfacet
  facet normal 9.3485e-09 0.965926 -0.258819
    outer loop
      vertex -24.7855 7.03553 22.3933
      vertex -10.5 3.68368 9.88399
      vertex -25.8694 5.41342 16.3394
    endloop
  endfacet
  facet normal 3.71524e-08 0.965926 -0.258819
    outer loop
      vertex -21.25 8.5 27.8587
      vertex -24.7855 7.03553 22.3933
      vertex -23.1634 8.1194 26.4383
    endloop
  endfacet
  facet normal 4.96251e-09 0.965926 -0.258819
    outer loop
      vertex 26.25 3.5 9.19847
      vertex 10.5 3.66381 9.80982
      vertex 25.8694 5.41342 16.3394
    endloop
  endfacet
  facet normal 5.97506e-09 0.965926 -0.258819
    outer loop
      vertex 26.25 3.5 9.19847
      vertex 16.625 1.31995 1.06241
      vertex 10.5 3.66381 9.80982
    endloop
  endfacet
  facet normal -3.06241e-09 0.965926 -0.258819
    outer loop
      vertex 26.25 1.30323 1
      vertex 16.625 1.31995 1.06241
      vertex 26.25 3.5 9.19847
    endloop
  endfacet
  facet normal 0 0.965926 -0.258819
    outer loop
      vertex 16.625 1.31995 1.06241
      vertex 26.25 1.30323 1
      vertex 16.625 1.30323 1
    endloop
  endfacet
  facet normal -3.89612e-09 0.965926 -0.258819
    outer loop
      vertex -10.5 3.68368 9.88399
      vertex -26.25 3.5 9.19847
      vertex -25.8694 5.41342 16.3394
    endloop
  endfacet
  facet normal -4.94337e-09 0.965926 -0.258819
    outer loop
      vertex -16.575 1.35896 1.20799
      vertex -26.25 3.5 9.19847
      vertex -10.5 3.68368 9.88399
    endloop
  endfacet
  facet normal 0 0.965926 -0.258819
    outer loop
      vertex -26.25 1.30323 1
      vertex -16.575 1.35896 1.20799
      vertex -16.575 1.30323 1
    endloop
  endfacet
  facet normal 5.60607e-09 0.965926 -0.258819
    outer loop
      vertex -16.575 1.35896 1.20799
      vertex -26.25 1.30323 1
      vertex -26.25 3.5 9.19847
    endloop
  endfacet
  facet normal -7.22317e-10 0.965926 -0.258819
    outer loop
      vertex 10.5 3.66381 9.80982
      vertex -4.825 1.51203 1.77925
      vertex -10.5 3.68368 9.88399
    endloop
  endfacet
  facet normal -5.62229e-09 0.965926 -0.258819
    outer loop
      vertex 4.875 1.51128 1.77649
      vertex -4.825 1.51203 1.77925
      vertex 10.5 3.66381 9.80982
    endloop
  endfacet
  facet normal -5.62817e-09 0.965926 -0.258819
    outer loop
      vertex 4.875 1.30323 1
      vertex -4.825 1.51203 1.77925
      vertex 4.875 1.51128 1.77649
    endloop
  endfacet
  facet normal 0 0.965926 -0.258819
    outer loop
      vertex -4.825 1.51203 1.77925
      vertex 4.875 1.30323 1
      vertex -4.825 1.30323 1
    endloop
  endfacet
endsolid OpenSCAD_Model
