solid OpenSCAD_Model
  facet normal -1 0 0
    outer loop
      vertex -2 -14.25 5.5
      vertex -2 -17.5 5.5
      vertex -2 -14.25 8
    endloop
  endfacet
  facet normal -1 0 0
    outer loop
      vertex -2 13 2
      vertex -2 14.25 6
      vertex -2 14.25 2
    endloop
  endfacet
  facet normal -1 -0 0
    outer loop
      vertex -2 14.25 6
      vertex -2 13 2
      vertex -2 13 6
    endloop
  endfacet
  facet normal -1 0 0
    outer loop
      vertex -2 14.25 2
      vertex -2 17 6
      vertex -2 17 -2.5
    endloop
  endfacet
  facet normal -1 0 0
    outer loop
      vertex -2 14.25 2
      vertex -2 17 -2.5
      vertex -2 14.25 0
    endloop
  endfacet
  facet normal -1 0 0
    outer loop
      vertex -2 17 -2.5
      vertex -2 -14.25 0
      vertex -2 14.25 0
    endloop
  endfacet
  facet normal -1 0 0
    outer loop
      vertex -2 -17 -2.5
      vertex -2 -14.25 0
      vertex -2 17 -2.5
    endloop
  endfacet
  facet normal -1 0 0
    outer loop
      vertex -2 -17 2.5
      vertex -2 -14.25 0
      vertex -2 -17 -2.5
    endloop
  endfacet
  facet normal -1 0 0
    outer loop
      vertex -2 -14.25 0
      vertex -2 -17 2.5
      vertex -2 -14.25 2.5
    endloop
  endfacet
  facet normal -1 0 0
    outer loop
      vertex -2 14.25 6
      vertex -2 17 6
      vertex -2 14.25 2
    endloop
  endfacet
  facet normal -1 0 0
    outer loop
      vertex -2 14.25 8
      vertex -2 17 6
      vertex -2 14.25 6
    endloop
  endfacet
  facet normal -1 0 0
    outer loop
      vertex -2 17 6
      vertex -2 14.25 8
      vertex -2 17 10.5
    endloop
  endfacet
  facet normal -1 0 0
    outer loop
      vertex -2 -14.25 8
      vertex -2 17 10.5
      vertex -2 14.25 8
    endloop
  endfacet
  facet normal -1 0 0
    outer loop
      vertex -2 -14.25 8
      vertex -2 -18 10.5
      vertex -2 17 10.5
    endloop
  endfacet
  facet normal -1 0 0
    outer loop
      vertex -2 -18 10.5
      vertex -2 -14.25 8
      vertex -2 -17.5 5.5
    endloop
  endfacet
  facet normal -1 0 0
    outer loop
      vertex -2 -18.5 2.5
      vertex -2 -17.5 5.5
      vertex -2 -17.5 2.5
    endloop
  endfacet
  facet normal -1 0 0
    outer loop
      vertex -2 -18.5 10.5
      vertex -2 -17.5 5.5
      vertex -2 -18.5 2.5
    endloop
  endfacet
  facet normal -1 0 0
    outer loop
      vertex -2 -17.5 5.5
      vertex -2 -18.5 10.5
      vertex -2 -18 10.5
    endloop
  endfacet
  facet normal -0 0 1
    outer loop
      vertex -2 -14.25 2.5
      vertex 2 -17 2.5
      vertex 2 -14.25 2.5
    endloop
  endfacet
  facet normal 0 0 1
    outer loop
      vertex 2 -17 2.5
      vertex -2 -14.25 2.5
      vertex -2 -17 2.5
    endloop
  endfacet
  facet normal 1 0 0
    outer loop
      vertex 2 -14.25 2.5
      vertex 2 -17 2.5
      vertex 2 -14.25 0
    endloop
  endfacet
  facet normal 1 -0 0
    outer loop
      vertex 2 13 6
      vertex 2 14.25 2
      vertex 2 14.25 6
    endloop
  endfacet
  facet normal 1 0 0
    outer loop
      vertex 2 14.25 2
      vertex 2 13 6
      vertex 2 13 2
    endloop
  endfacet
  facet normal 1 -0 0
    outer loop
      vertex 2 14.25 8
      vertex 2 17 6
      vertex 2 17 10.5
    endloop
  endfacet
  facet normal 1 0 0
    outer loop
      vertex 2 17 6
      vertex 2 14.25 8
      vertex 2 14.25 6
    endloop
  endfacet
  facet normal 1 0 0
    outer loop
      vertex 2 17 10.5
      vertex 2 -14.25 8
      vertex 2 14.25 8
    endloop
  endfacet
  facet normal 1 0 0
    outer loop
      vertex 2 -14.25 8
      vertex 2 -17.5 5.5
      vertex 2 -14.25 5.5
    endloop
  endfacet
  facet normal 1 -0 0
    outer loop
      vertex 2 -18 10.5
      vertex 2 -14.25 8
      vertex 2 17 10.5
    endloop
  endfacet
  facet normal 1 0 0
    outer loop
      vertex 2 -18 10.5
      vertex 2 -17.5 5.5
      vertex 2 -14.25 8
    endloop
  endfacet
  facet normal 1 -0 0
    outer loop
      vertex 2 -18.5 10.5
      vertex 2 -17.5 5.5
      vertex 2 -18 10.5
    endloop
  endfacet
  facet normal 1 0 0
    outer loop
      vertex 2 -17.5 5.5
      vertex 2 -18.5 10.5
      vertex 2 -18.5 2.5
    endloop
  endfacet
  facet normal 1 0 0
    outer loop
      vertex 2 -17.5 5.5
      vertex 2 -18.5 2.5
      vertex 2 -17.5 2.5
    endloop
  endfacet
  facet normal 1 0 0
    outer loop
      vertex 2 14.25 2
      vertex 2 17 6
      vertex 2 14.25 6
    endloop
  endfacet
  facet normal 1 0 0
    outer loop
      vertex 2 17 6
      vertex 2 14.25 2
      vertex 2 17 -2.5
    endloop
  endfacet
  facet normal 1 -0 0
    outer loop
      vertex 2 14.25 0
      vertex 2 17 -2.5
      vertex 2 14.25 2
    endloop
  endfacet
  facet normal 1 -0 0
    outer loop
      vertex 2 -14.25 0
      vertex 2 17 -2.5
      vertex 2 14.25 0
    endloop
  endfacet
  facet normal 1 0 0
    outer loop
      vertex 2 -14.25 0
      vertex 2 -17 -2.5
      vertex 2 17 -2.5
    endloop
  endfacet
  facet normal 1 0 0
    outer loop
      vertex 2 -17 -2.5
      vertex 2 -14.25 0
      vertex 2 -17 2.5
    endloop
  endfacet
  facet normal 0 1 -0
    outer loop
      vertex 2 17 -2.5
      vertex -2 17 6
      vertex 2 17 6
    endloop
  endfacet
  facet normal 0 1 0
    outer loop
      vertex -2 17 6
      vertex 2 17 -2.5
      vertex -2 17 -2.5
    endloop
  endfacet
  facet normal 0 0 -1
    outer loop
      vertex -2 -17 -2.5
      vertex 2 17 -2.5
      vertex 2 -17 -2.5
    endloop
  endfacet
  facet normal -0 0 -1
    outer loop
      vertex 2 17 -2.5
      vertex -2 -17 -2.5
      vertex -2 17 -2.5
    endloop
  endfacet
  facet normal 0 -1 0
    outer loop
      vertex -2 -17 -2.5
      vertex 2 -17 2.5
      vertex -2 -17 2.5
    endloop
  endfacet
  facet normal 0 -1 -0
    outer loop
      vertex 2 -17 2.5
      vertex -2 -17 -2.5
      vertex 2 -17 -2.5
    endloop
  endfacet
  facet normal 0 -1 0
    outer loop
      vertex -2 14.25 0
      vertex 2 14.25 2
      vertex -2 14.25 2
    endloop
  endfacet
  facet normal 0 -1 -0
    outer loop
      vertex 2 14.25 2
      vertex -2 14.25 0
      vertex 2 14.25 0
    endloop
  endfacet
  facet normal -0 0 1
    outer loop
      vertex -2 14.25 0
      vertex 2 -14.25 0
      vertex 2 14.25 0
    endloop
  endfacet
  facet normal 0 0 1
    outer loop
      vertex 2 -14.25 0
      vertex -2 14.25 0
      vertex -2 -14.25 0
    endloop
  endfacet
  facet normal 0 1 -0
    outer loop
      vertex 2 -14.25 0
      vertex -2 -14.25 2.5
      vertex 2 -14.25 2.5
    endloop
  endfacet
  facet normal 0 1 0
    outer loop
      vertex -2 -14.25 2.5
      vertex 2 -14.25 0
      vertex -2 -14.25 0
    endloop
  endfacet
  facet normal 0 0 -1
    outer loop
      vertex -2 -17.5 5.5
      vertex 2 -14.25 5.5
      vertex 2 -17.5 5.5
    endloop
  endfacet
  facet normal -0 0 -1
    outer loop
      vertex 2 -14.25 5.5
      vertex -2 -17.5 5.5
      vertex -2 -14.25 5.5
    endloop
  endfacet
  facet normal -0 0 1
    outer loop
      vertex -2 17 10.5
      vertex 2 -18 10.5
      vertex 2 17 10.5
    endloop
  endfacet
  facet normal 0 0 1
    outer loop
      vertex 2 -18 10.5
      vertex -2 17 10.5
      vertex -2 -18 10.5
    endloop
  endfacet
  facet normal 0 1 -0
    outer loop
      vertex 2 17 6
      vertex -2 17 10.5
      vertex 2 17 10.5
    endloop
  endfacet
  facet normal 0 1 0
    outer loop
      vertex -2 17 10.5
      vertex 2 17 6
      vertex -2 17 6
    endloop
  endfacet
  facet normal 0 1 -0
    outer loop
      vertex 2 -14.25 5.5
      vertex -2 -14.25 8
      vertex 2 -14.25 8
    endloop
  endfacet
  facet normal 0 1 0
    outer loop
      vertex -2 -14.25 8
      vertex 2 -14.25 5.5
      vertex -2 -14.25 5.5
    endloop
  endfacet
  facet normal 0 0 -1
    outer loop
      vertex -2 -14.25 8
      vertex 2 14.25 8
      vertex 2 -14.25 8
    endloop
  endfacet
  facet normal -0 0 -1
    outer loop
      vertex 2 14.25 8
      vertex -2 -14.25 8
      vertex -2 14.25 8
    endloop
  endfacet
  facet normal 0 -1 0
    outer loop
      vertex -2 14.25 6
      vertex 2 14.25 8
      vertex -2 14.25 8
    endloop
  endfacet
  facet normal 0 -1 -0
    outer loop
      vertex 2 14.25 8
      vertex -2 14.25 6
      vertex 2 14.25 6
    endloop
  endfacet
  facet normal -0 0 1
    outer loop
      vertex -2 14.25 6
      vertex 2 13 6
      vertex 2 14.25 6
    endloop
  endfacet
  facet normal 0 0 1
    outer loop
      vertex 2 13 6
      vertex -2 14.25 6
      vertex -2 13 6
    endloop
  endfacet
  facet normal 0 0 -1
    outer loop
      vertex -2 13 2
      vertex 2 14.25 2
      vertex 2 13 2
    endloop
  endfacet
  facet normal -0 0 -1
    outer loop
      vertex 2 14.25 2
      vertex -2 13 2
      vertex -2 14.25 2
    endloop
  endfacet
  facet normal 0 -1 0
    outer loop
      vertex -2 13 2
      vertex 2 13 6
      vertex -2 13 6
    endloop
  endfacet
  facet normal 0 -1 -0
    outer loop
      vertex 2 13 6
      vertex -2 13 2
      vertex 2 13 2
    endloop
  endfacet
  facet normal -0 0 1
    outer loop
      vertex -2 -18 10.5
      vertex 2 -18.5 10.5
      vertex 2 -18 10.5
    endloop
  endfacet
  facet normal 0 0 1
    outer loop
      vertex 2 -18.5 10.5
      vertex -2 -18 10.5
      vertex -2 -18.5 10.5
    endloop
  endfacet
  facet normal 0 1 -0
    outer loop
      vertex 2 -17.5 2.5
      vertex -2 -17.5 5.5
      vertex 2 -17.5 5.5
    endloop
  endfacet
  facet normal 0 1 0
    outer loop
      vertex -2 -17.5 5.5
      vertex 2 -17.5 2.5
      vertex -2 -17.5 2.5
    endloop
  endfacet
  facet normal 0 0 -1
    outer loop
      vertex -2 -18.5 2.5
      vertex 2 -17.5 2.5
      vertex 2 -18.5 2.5
    endloop
  endfacet
  facet normal -0 0 -1
    outer loop
      vertex 2 -17.5 2.5
      vertex -2 -18.5 2.5
      vertex -2 -17.5 2.5
    endloop
  endfacet
  facet normal 0 -1 0
    outer loop
      vertex -2 -18.5 2.5
      vertex 2 -18.5 10.5
      vertex -2 -18.5 10.5
    endloop
  endfacet
  facet normal 0 -1 -0
    outer loop
      vertex 2 -18.5 10.5
      vertex -2 -18.5 2.5
      vertex 2 -18.5 2.5
    endloop
  endfacet
endsolid OpenSCAD_Model
