solid OpenSCAD_Model
  facet normal 0 0 1
    outer loop
      vertex 25.8694 5.41342 150
      vertex 27.3694 6.41342 150
      vertex 26.2855 8.03553 150
    endloop
  endfacet
  facet normal 0 0 1
    outer loop
      vertex 27.3694 6.41342 150
      vertex 25.8694 5.41342 150
      vertex 27.7003 4.75 150
    endloop
  endfacet
  facet normal 0 0 1
    outer loop
      vertex 27.7003 4.75 150
      vertex 25.8694 5.41342 150
      vertex 26.0014 4.75 150
    endloop
  endfacet
  facet normal 0 0 1
    outer loop
      vertex 26.2855 8.03553 150
      vertex 24.7855 7.03553 150
      vertex 25.8694 5.41342 150
    endloop
  endfacet
  facet normal 0 0 1
    outer loop
      vertex 24.6634 9.1194 150
      vertex 24.7855 7.03553 150
      vertex 26.2855 8.03553 150
    endloop
  endfacet
  facet normal 0 0 1
    outer loop
      vertex 24.6634 9.1194 150
      vertex 23.1634 8.1194 150
      vertex 24.7855 7.03553 150
    endloop
  endfacet
  facet normal 0 0 1
    outer loop
      vertex 22.75 9.5 150
      vertex 23.1634 8.1194 150
      vertex 24.6634 9.1194 150
    endloop
  endfacet
  facet normal 0 0 1
    outer loop
      vertex 22.75 9.5 150
      vertex 21.25 8.5 150
      vertex 23.1634 8.1194 150
    endloop
  endfacet
  facet normal 0 0 1
    outer loop
      vertex 22.75 9.5 150
      vertex -21.25 8.5 150
      vertex 21.25 8.5 150
    endloop
  endfacet
  facet normal -0 0 1
    outer loop
      vertex -22.75 9.5 150
      vertex -21.25 8.5 150
      vertex 22.75 9.5 150
    endloop
  endfacet
  facet normal 0 0 1
    outer loop
      vertex -22.75 9.5 150
      vertex -23.1634 8.1194 150
      vertex -21.25 8.5 150
    endloop
  endfacet
  facet normal -0 0 1
    outer loop
      vertex -24.6634 9.1194 150
      vertex -23.1634 8.1194 150
      vertex -22.75 9.5 150
    endloop
  endfacet
  facet normal 0 0 1
    outer loop
      vertex -24.6634 9.1194 150
      vertex -24.7855 7.03553 150
      vertex -23.1634 8.1194 150
    endloop
  endfacet
  facet normal -0 0 1
    outer loop
      vertex -26.2855 8.03553 150
      vertex -24.7855 7.03553 150
      vertex -24.6634 9.1194 150
    endloop
  endfacet
  facet normal 0 0 1
    outer loop
      vertex -27.75 4.5 150
      vertex -25.8694 5.41342 150
      vertex -27.3694 6.41342 150
    endloop
  endfacet
  facet normal -0 0 1
    outer loop
      vertex -27.3694 6.41342 150
      vertex -25.8694 5.41342 150
      vertex -26.2855 8.03553 150
    endloop
  endfacet
  facet normal 0 0 1
    outer loop
      vertex -24.7855 7.03553 150
      vertex -26.2855 8.03553 150
      vertex -25.8694 5.41342 150
    endloop
  endfacet
  facet normal -0 0 1
    outer loop
      vertex 26.25 -11.5 150
      vertex 27.75 -12.5 150
      vertex 27.75 -2.75 150
    endloop
  endfacet
  facet normal 0 0 1
    outer loop
      vertex 25.8694 -13.4134 150
      vertex 27.75 -12.5 150
      vertex 26.25 -11.5 150
    endloop
  endfacet
  facet normal 0 0 1
    outer loop
      vertex 26.25 -11.5 150
      vertex 27.75 -2.75 150
      vertex 26.25 -2.75 150
    endloop
  endfacet
  facet normal 0 0 1
    outer loop
      vertex 27.75 -12.5 150
      vertex 25.8694 -13.4134 150
      vertex 27.3694 -14.4134 150
    endloop
  endfacet
  facet normal 0 0 1
    outer loop
      vertex 27.3694 -14.4134 150
      vertex 25.8694 -13.4134 150
      vertex 26.2855 -16.0355 150
    endloop
  endfacet
  facet normal -0 0 1
    outer loop
      vertex 24.7855 -15.0355 150
      vertex 26.2855 -16.0355 150
      vertex 25.8694 -13.4134 150
    endloop
  endfacet
  facet normal 0 0 1
    outer loop
      vertex 24.7855 -15.0355 150
      vertex 24.6634 -17.1194 150
      vertex 26.2855 -16.0355 150
    endloop
  endfacet
  facet normal -0 0 1
    outer loop
      vertex 23.1634 -16.1194 150
      vertex 24.6634 -17.1194 150
      vertex 24.7855 -15.0355 150
    endloop
  endfacet
  facet normal 0 0 1
    outer loop
      vertex 23.1634 -16.1194 150
      vertex 22.75 -17.5 150
      vertex 24.6634 -17.1194 150
    endloop
  endfacet
  facet normal -0 0 1
    outer loop
      vertex 21.25 -16.5 150
      vertex 22.75 -17.5 150
      vertex 23.1634 -16.1194 150
    endloop
  endfacet
  facet normal -0 0 1
    outer loop
      vertex -21.25 -16.5 150
      vertex 22.75 -17.5 150
      vertex 21.25 -16.5 150
    endloop
  endfacet
  facet normal 0 0 1
    outer loop
      vertex -21.25 -16.5 150
      vertex -22.75 -17.5 150
      vertex 22.75 -17.5 150
    endloop
  endfacet
  facet normal 0 0 1
    outer loop
      vertex -23.1634 -16.1194 150
      vertex -22.75 -17.5 150
      vertex -21.25 -16.5 150
    endloop
  endfacet
  facet normal 0 0 1
    outer loop
      vertex -23.1634 -16.1194 150
      vertex -24.6634 -17.1194 150
      vertex -22.75 -17.5 150
    endloop
  endfacet
  facet normal 0 0 1
    outer loop
      vertex -24.7855 -15.0355 150
      vertex -24.6634 -17.1194 150
      vertex -23.1634 -16.1194 150
    endloop
  endfacet
  facet normal 0 0 1
    outer loop
      vertex -26.2855 -16.0355 150
      vertex -24.7855 -15.0355 150
      vertex -25.8694 -13.4134 150
    endloop
  endfacet
  facet normal 0 0 1
    outer loop
      vertex -24.7855 -15.0355 150
      vertex -26.2855 -16.0355 150
      vertex -24.6634 -17.1194 150
    endloop
  endfacet
  facet normal -0 0 1
    outer loop
      vertex -27.75 -12.5 150
      vertex -25.8694 -13.4134 150
      vertex -26.25 -11.5 150
    endloop
  endfacet
  facet normal 0 0 1
    outer loop
      vertex -26.25 3.5 150
      vertex -27.75 4.5 150
      vertex -26.25 -11.5 150
    endloop
  endfacet
  facet normal 0 0 1
    outer loop
      vertex -25.8694 5.41342 150
      vertex -27.75 4.5 150
      vertex -26.25 3.5 150
    endloop
  endfacet
  facet normal 0 0 1
    outer loop
      vertex -27.75 -12.5 150
      vertex -26.25 -11.5 150
      vertex -27.75 4.5 150
    endloop
  endfacet
  facet normal 0 0 1
    outer loop
      vertex -25.8694 -13.4134 150
      vertex -27.75 -12.5 150
      vertex -27.3694 -14.4134 150
    endloop
  endfacet
  facet normal 0 0 1
    outer loop
      vertex -25.8694 -13.4134 150
      vertex -27.3694 -14.4134 150
      vertex -26.2855 -16.0355 150
    endloop
  endfacet
  facet normal 0 1 0
    outer loop
      vertex 5.69098 9.5 44.4122
      vertex 5.69098 9.5 33.0878
      vertex -6.19098 9.5 33.4511
    endloop
  endfacet
  facet normal 0 1 0
    outer loop
      vertex 5.69098 9.5 33.0878
      vertex -5.5 9.5 32.5
      vertex -6.19098 9.5 33.4511
    endloop
  endfacet
  facet normal 0 1 -0
    outer loop
      vertex 5.69098 9.5 31.9122
      vertex -5.5 9.5 32.5
      vertex 5.69098 9.5 33.0878
    endloop
  endfacet
  facet normal 0 1 0
    outer loop
      vertex -6.19098 9.5 31.5489
      vertex 5.69098 9.5 31.9122
      vertex 6.80902 9.5 31.5489
    endloop
  endfacet
  facet normal 0 1 0
    outer loop
      vertex 5.69098 9.5 31.9122
      vertex -6.19098 9.5 31.5489
      vertex -5.5 9.5 32.5
    endloop
  endfacet
  facet normal 0 1 0
    outer loop
      vertex 5.69098 9.5 56.9122
      vertex 5.69098 9.5 45.5878
      vertex -6.19098 9.5 45.9511
    endloop
  endfacet
  facet normal 0 1 0
    outer loop
      vertex 5.69098 9.5 45.5878
      vertex -5.5 9.5 45
      vertex -6.19098 9.5 45.9511
    endloop
  endfacet
  facet normal 0 1 -0
    outer loop
      vertex 5.69098 9.5 44.4122
      vertex -5.5 9.5 45
      vertex 5.69098 9.5 45.5878
    endloop
  endfacet
  facet normal 0 1 -0
    outer loop
      vertex 6.80902 9.5 33.4511
      vertex 5.69098 9.5 44.4122
      vertex 6.80902 9.5 44.0489
    endloop
  endfacet
  facet normal 0 1 0
    outer loop
      vertex 5.69098 9.5 44.4122
      vertex -6.19098 9.5 44.0489
      vertex -5.5 9.5 45
    endloop
  endfacet
  facet normal 0 1 -0
    outer loop
      vertex 5.69098 9.5 58.0878
      vertex -6.19098 9.5 58.4511
      vertex 6.80902 9.5 58.4511
    endloop
  endfacet
  facet normal 0 1 0
    outer loop
      vertex 5.69098 9.5 58.0878
      vertex -5.5 9.5 57.5
      vertex -6.19098 9.5 58.4511
    endloop
  endfacet
  facet normal 0 1 -0
    outer loop
      vertex 5.69098 9.5 56.9122
      vertex -5.5 9.5 57.5
      vertex 5.69098 9.5 58.0878
    endloop
  endfacet
  facet normal 0 1 -0
    outer loop
      vertex 6.80902 9.5 45.9511
      vertex 5.69098 9.5 56.9122
      vertex 6.80902 9.5 56.5489
    endloop
  endfacet
  facet normal 0 1 0
    outer loop
      vertex 5.69098 9.5 56.9122
      vertex -6.19098 9.5 56.5489
      vertex -5.5 9.5 57.5
    endloop
  endfacet
  facet normal 0 1 0
    outer loop
      vertex 22.75 9.5 150
      vertex 6.80902 9.5 58.4511
      vertex -22.75 9.5 150
    endloop
  endfacet
  facet normal 0 1 0
    outer loop
      vertex 22.75 9.5 150
      vertex 7.5 9.5 57.5
      vertex 6.80902 9.5 58.4511
    endloop
  endfacet
  facet normal 0 1 0
    outer loop
      vertex 5.69098 9.5 45.5878
      vertex 5.69098 9.5 56.9122
      vertex 6.80902 9.5 45.9511
    endloop
  endfacet
  facet normal 0 1 0
    outer loop
      vertex 7.5 9.5 57.5
      vertex 6.80902 9.5 45.9511
      vertex 6.80902 9.5 56.5489
    endloop
  endfacet
  facet normal 0 1 -0
    outer loop
      vertex 22.75 9.5 1.5
      vertex 7.5 9.5 57.5
      vertex 22.75 9.5 150
    endloop
  endfacet
  facet normal 0 1 0
    outer loop
      vertex 7.5 9.5 57.5
      vertex 7.5 9.5 45
      vertex 6.80902 9.5 45.9511
    endloop
  endfacet
  facet normal 0 1 0
    outer loop
      vertex 5.69098 9.5 33.0878
      vertex 5.69098 9.5 44.4122
      vertex 6.80902 9.5 33.4511
    endloop
  endfacet
  facet normal 0 1 0
    outer loop
      vertex 7.5 9.5 45
      vertex 6.80902 9.5 33.4511
      vertex 6.80902 9.5 44.0489
    endloop
  endfacet
  facet normal 0 1 0
    outer loop
      vertex 7.5 9.5 57.5
      vertex 22.75 9.5 1.5
      vertex 7.5 9.5 45
    endloop
  endfacet
  facet normal 0 1 0
    outer loop
      vertex 7.5 9.5 45
      vertex 7.5 9.5 32.5
      vertex 6.80902 9.5 33.4511
    endloop
  endfacet
  facet normal 0 1 0
    outer loop
      vertex 6.80902 9.5 31.5489
      vertex 22.75 9.5 1.5
      vertex -6.19098 9.5 31.5489
    endloop
  endfacet
  facet normal 0 1 0
    outer loop
      vertex 7.5 9.5 32.5
      vertex 22.75 9.5 1.5
      vertex 6.80902 9.5 31.5489
    endloop
  endfacet
  facet normal 0 1 0
    outer loop
      vertex 7.5 9.5 45
      vertex 22.75 9.5 1.5
      vertex 7.5 9.5 32.5
    endloop
  endfacet
  facet normal 0 1 -0
    outer loop
      vertex -6.19098 9.5 58.4511
      vertex -22.75 9.5 150
      vertex 6.80902 9.5 58.4511
    endloop
  endfacet
  facet normal 0 1 -0
    outer loop
      vertex -7.30902 9.5 58.0878
      vertex -22.75 9.5 150
      vertex -6.19098 9.5 58.4511
    endloop
  endfacet
  facet normal 0 1 0
    outer loop
      vertex -22.75 9.5 1.5
      vertex -7.30902 9.5 58.0878
      vertex -7.30902 9.5 56.9122
    endloop
  endfacet
  facet normal 0 1 0
    outer loop
      vertex 5.69098 9.5 56.9122
      vertex -6.19098 9.5 45.9511
      vertex -6.19098 9.5 56.5489
    endloop
  endfacet
  facet normal 0 1 0
    outer loop
      vertex -6.19098 9.5 56.5489
      vertex -6.19098 9.5 45.9511
      vertex -7.30902 9.5 56.9122
    endloop
  endfacet
  facet normal 0 1 0
    outer loop
      vertex -7.30902 9.5 45.5878
      vertex -7.30902 9.5 56.9122
      vertex -6.19098 9.5 45.9511
    endloop
  endfacet
  facet normal 0 1 0
    outer loop
      vertex -22.75 9.5 1.5
      vertex -7.30902 9.5 56.9122
      vertex -7.30902 9.5 45.5878
    endloop
  endfacet
  facet normal 0 1 0
    outer loop
      vertex -22.75 9.5 1.5
      vertex -7.30902 9.5 45.5878
      vertex -7.30902 9.5 44.4122
    endloop
  endfacet
  facet normal 0 1 0
    outer loop
      vertex 5.69098 9.5 44.4122
      vertex -6.19098 9.5 33.4511
      vertex -6.19098 9.5 44.0489
    endloop
  endfacet
  facet normal 0 1 0
    outer loop
      vertex -6.19098 9.5 44.0489
      vertex -6.19098 9.5 33.4511
      vertex -7.30902 9.5 44.4122
    endloop
  endfacet
  facet normal 0 1 0
    outer loop
      vertex -7.30902 9.5 33.0878
      vertex -7.30902 9.5 44.4122
      vertex -6.19098 9.5 33.4511
    endloop
  endfacet
  facet normal 0 1 0
    outer loop
      vertex -22.75 9.5 1.5
      vertex -7.30902 9.5 44.4122
      vertex -7.30902 9.5 33.0878
    endloop
  endfacet
  facet normal 0 1 0
    outer loop
      vertex -22.75 9.5 1.5
      vertex -7.30902 9.5 33.0878
      vertex -7.30902 9.5 31.9122
    endloop
  endfacet
  facet normal 0 1 0
    outer loop
      vertex -22.75 9.5 1.5
      vertex -6.19098 9.5 31.5489
      vertex 22.75 9.5 1.5
    endloop
  endfacet
  facet normal 0 1 0
    outer loop
      vertex -7.30902 9.5 58.0878
      vertex -22.75 9.5 1.5
      vertex -22.75 9.5 150
    endloop
  endfacet
  facet normal 0 1 0
    outer loop
      vertex -6.19098 9.5 31.5489
      vertex -22.75 9.5 1.5
      vertex -7.30902 9.5 31.9122
    endloop
  endfacet
  facet normal 0.195091 0.980785 -0
    outer loop
      vertex 24.6634 9.1194 1.5
      vertex 22.75 9.5 150
      vertex 24.6634 9.1194 150
    endloop
  endfacet
  facet normal 0.195091 0.980785 0
    outer loop
      vertex 22.75 9.5 150
      vertex 24.6634 9.1194 1.5
      vertex 22.75 9.5 1.5
    endloop
  endfacet
  facet normal -0.195091 0.980785 0
    outer loop
      vertex -22.75 9.5 1.5
      vertex -24.6634 9.1194 150
      vertex -22.75 9.5 150
    endloop
  endfacet
  facet normal -0.195091 0.980785 0
    outer loop
      vertex -24.6634 9.1194 150
      vertex -22.75 9.5 1.5
      vertex -24.6634 9.1194 1.5
    endloop
  endfacet
  facet normal -0.55557 0.83147 0
    outer loop
      vertex -24.6634 9.1194 1.5
      vertex -26.2855 8.03553 150
      vertex -24.6634 9.1194 150
    endloop
  endfacet
  facet normal -0.55557 0.83147 0
    outer loop
      vertex -26.2855 8.03553 150
      vertex -24.6634 9.1194 1.5
      vertex -26.2855 8.03553 1.5
    endloop
  endfacet
  facet normal 0 -1 0
    outer loop
      vertex -22.75 -17.5 150
      vertex 0.482146 -17.5 53.9708
      vertex 22.75 -17.5 150
    endloop
  endfacet
  facet normal 0 -1 0
    outer loop
      vertex -22.75 -17.5 150
      vertex -1.41842 -17.5 53.7401
      vertex 0.482146 -17.5 53.9708
    endloop
  endfacet
  facet normal 0 -1 0
    outer loop
      vertex -22.75 -17.5 150
      vertex -2.99404 -17.5 52.6525
      vertex -1.41842 -17.5 53.7401
    endloop
  endfacet
  facet normal 0 -1 0
    outer loop
      vertex -22.75 -17.5 150
      vertex -3.88377 -17.5 50.9573
      vertex -2.99404 -17.5 52.6525
    endloop
  endfacet
  facet normal 0 -1 0
    outer loop
      vertex -22.75 -17.5 1.5
      vertex -3.88377 -17.5 50.9573
      vertex -22.75 -17.5 150
    endloop
  endfacet
  facet normal 0 -1 -0
    outer loop
      vertex -1.41842 -17.5 46.2599
      vertex -22.75 -17.5 1.5
      vertex 0.482146 -17.5 46.0292
    endloop
  endfacet
  facet normal 0 -1 -0
    outer loop
      vertex -2.99404 -17.5 47.3475
      vertex -22.75 -17.5 1.5
      vertex -1.41842 -17.5 46.2599
    endloop
  endfacet
  facet normal 0 -1 -0
    outer loop
      vertex -3.88377 -17.5 49.0427
      vertex -22.75 -17.5 1.5
      vertex -2.99404 -17.5 47.3475
    endloop
  endfacet
  facet normal 0 -1 -0
    outer loop
      vertex -3.88377 -17.5 50.9573
      vertex -22.75 -17.5 1.5
      vertex -3.88377 -17.5 49.0427
    endloop
  endfacet
  facet normal 0 -1 0
    outer loop
      vertex 2.27226 -17.5 53.2919
      vertex 22.75 -17.5 150
      vertex 0.482146 -17.5 53.9708
    endloop
  endfacet
  facet normal 0 -1 0
    outer loop
      vertex 3.54182 -17.5 51.8589
      vertex 22.75 -17.5 150
      vertex 2.27226 -17.5 53.2919
    endloop
  endfacet
  facet normal 0 -1 0
    outer loop
      vertex 4 -17.5 50
      vertex 22.75 -17.5 150
      vertex 3.54182 -17.5 51.8589
    endloop
  endfacet
  facet normal 0 -1 0
    outer loop
      vertex 22.75 -17.5 1.5
      vertex 0.482146 -17.5 46.0292
      vertex -22.75 -17.5 1.5
    endloop
  endfacet
  facet normal 0 -1 0
    outer loop
      vertex 0.482146 -17.5 46.0292
      vertex 22.75 -17.5 1.5
      vertex 2.27226 -17.5 46.7081
    endloop
  endfacet
  facet normal 0 -1 0
    outer loop
      vertex 4 -17.5 50
      vertex 22.75 -17.5 1.5
      vertex 22.75 -17.5 150
    endloop
  endfacet
  facet normal 0 -1 0
    outer loop
      vertex 3.54182 -17.5 48.1411
      vertex 22.75 -17.5 1.5
      vertex 4 -17.5 50
    endloop
  endfacet
  facet normal 0 -1 0
    outer loop
      vertex 2.27226 -17.5 46.7081
      vertex 22.75 -17.5 1.5
      vertex 3.54182 -17.5 48.1411
    endloop
  endfacet
  facet normal -0.55557 -0.83147 0
    outer loop
      vertex -26.2855 -16.0355 1.5
      vertex -24.6634 -17.1194 150
      vertex -26.2855 -16.0355 150
    endloop
  endfacet
  facet normal -0.55557 -0.83147 -0
    outer loop
      vertex -24.6634 -17.1194 150
      vertex -26.2855 -16.0355 1.5
      vertex -24.6634 -17.1194 1.5
    endloop
  endfacet
  facet normal 0.195091 -0.980785 0
    outer loop
      vertex 22.75 -17.5 1.5
      vertex 24.6634 -17.1194 150
      vertex 22.75 -17.5 150
    endloop
  endfacet
  facet normal 0.195091 -0.980785 0
    outer loop
      vertex 24.6634 -17.1194 150
      vertex 22.75 -17.5 1.5
      vertex 24.6634 -17.1194 1.5
    endloop
  endfacet
  facet normal 0.980785 0.195091 0
    outer loop
      vertex 27.7003 4.75 150
      vertex 27.3694 6.41342 1.5
      vertex 27.3694 6.41342 150
    endloop
  endfacet
  facet normal 0.980785 0.195091 0
    outer loop
      vertex 27.3694 6.41342 1.5
      vertex 27.7003 4.75 150
      vertex 27.7003 4.75 1.5
    endloop
  endfacet
  facet normal -0.83147 0.55557 0
    outer loop
      vertex -27.3694 6.41342 1.5
      vertex -26.2855 8.03553 150
      vertex -26.2855 8.03553 1.5
    endloop
  endfacet
  facet normal -0.83147 0.55557 0
    outer loop
      vertex -26.2855 8.03553 150
      vertex -27.3694 6.41342 1.5
      vertex -27.3694 6.41342 150
    endloop
  endfacet
  facet normal -0.195091 -0.980785 0
    outer loop
      vertex -24.6634 -17.1194 1.5
      vertex -22.75 -17.5 150
      vertex -24.6634 -17.1194 150
    endloop
  endfacet
  facet normal -0.195091 -0.980785 -0
    outer loop
      vertex -22.75 -17.5 150
      vertex -24.6634 -17.1194 1.5
      vertex -22.75 -17.5 1.5
    endloop
  endfacet
  facet normal -1 0 0
    outer loop
      vertex -27.75 -12.5 1.5
      vertex -27.75 4.5 150
      vertex -27.75 4.5 1.5
    endloop
  endfacet
  facet normal -1 -0 0
    outer loop
      vertex -27.75 4.5 150
      vertex -27.75 -12.5 1.5
      vertex -27.75 -12.5 150
    endloop
  endfacet
  facet normal -0.980785 0.195091 0
    outer loop
      vertex -27.75 4.5 1.5
      vertex -27.3694 6.41342 150
      vertex -27.3694 6.41342 1.5
    endloop
  endfacet
  facet normal -0.980785 0.195091 0
    outer loop
      vertex -27.3694 6.41342 150
      vertex -27.75 4.5 1.5
      vertex -27.75 4.5 150
    endloop
  endfacet
  facet normal 0.55557 0.83147 -0
    outer loop
      vertex 26.2855 8.03553 1.5
      vertex 24.6634 9.1194 150
      vertex 26.2855 8.03553 150
    endloop
  endfacet
  facet normal 0.55557 0.83147 0
    outer loop
      vertex 24.6634 9.1194 150
      vertex 26.2855 8.03553 1.5
      vertex 24.6634 9.1194 1.5
    endloop
  endfacet
  facet normal 0.83147 0.55557 0
    outer loop
      vertex 27.3694 6.41342 150
      vertex 26.2855 8.03553 1.5
      vertex 26.2855 8.03553 150
    endloop
  endfacet
  facet normal 0.83147 0.55557 0
    outer loop
      vertex 26.2855 8.03553 1.5
      vertex 27.3694 6.41342 150
      vertex 27.3694 6.41342 1.5
    endloop
  endfacet
  facet normal 1 -0 0
    outer loop
      vertex 27.75 -12.5 150
      vertex 27.75 -2.75 1.5
      vertex 27.75 -2.75 150
    endloop
  endfacet
  facet normal 1 0 0
    outer loop
      vertex 27.75 -2.75 1.5
      vertex 27.75 -12.5 150
      vertex 27.75 -12.5 1.5
    endloop
  endfacet
  facet normal -0.83147 -0.55557 0
    outer loop
      vertex -26.2855 -16.0355 1.5
      vertex -27.3694 -14.4134 150
      vertex -27.3694 -14.4134 1.5
    endloop
  endfacet
  facet normal -0.83147 -0.55557 0
    outer loop
      vertex -27.3694 -14.4134 150
      vertex -26.2855 -16.0355 1.5
      vertex -26.2855 -16.0355 150
    endloop
  endfacet
  facet normal -0.980785 -0.195091 0
    outer loop
      vertex -27.3694 -14.4134 1.5
      vertex -27.75 -12.5 150
      vertex -27.75 -12.5 1.5
    endloop
  endfacet
  facet normal -0.980785 -0.195091 0
    outer loop
      vertex -27.75 -12.5 150
      vertex -27.3694 -14.4134 1.5
      vertex -27.3694 -14.4134 150
    endloop
  endfacet
  facet normal 0.83147 -0.55557 0
    outer loop
      vertex 26.2855 -16.0355 150
      vertex 27.3694 -14.4134 1.5
      vertex 27.3694 -14.4134 150
    endloop
  endfacet
  facet normal 0.83147 -0.55557 0
    outer loop
      vertex 27.3694 -14.4134 1.5
      vertex 26.2855 -16.0355 150
      vertex 26.2855 -16.0355 1.5
    endloop
  endfacet
  facet normal 0.55557 -0.83147 0
    outer loop
      vertex 24.6634 -17.1194 1.5
      vertex 26.2855 -16.0355 150
      vertex 24.6634 -17.1194 150
    endloop
  endfacet
  facet normal 0.55557 -0.83147 0
    outer loop
      vertex 26.2855 -16.0355 150
      vertex 24.6634 -17.1194 1.5
      vertex 26.2855 -16.0355 1.5
    endloop
  endfacet
  facet normal 0.980785 -0.195091 0
    outer loop
      vertex 27.3694 -14.4134 150
      vertex 27.75 -12.5 1.5
      vertex 27.75 -12.5 150
    endloop
  endfacet
  facet normal 0.980785 -0.195091 0
    outer loop
      vertex 27.75 -12.5 1.5
      vertex 27.3694 -14.4134 150
      vertex 27.3694 -14.4134 1.5
    endloop
  endfacet
  facet normal 0.195091 0.980785 -0
    outer loop
      vertex -21.25 -16.5 1.5
      vertex -23.1634 -16.1194 150
      vertex -21.25 -16.5 150
    endloop
  endfacet
  facet normal 0.195091 0.980785 0
    outer loop
      vertex -23.1634 -16.1194 150
      vertex -21.25 -16.5 1.5
      vertex -23.1634 -16.1194 1.5
    endloop
  endfacet
  facet normal 0 -1 0
    outer loop
      vertex 5.69098 8.5 44.4122
      vertex 5.69098 8.5 33.0878
      vertex 6.80902 8.5 33.4511
    endloop
  endfacet
  facet normal 0 -1 0
    outer loop
      vertex -5.5 8.5 32.5
      vertex 5.69098 8.5 33.0878
      vertex -6.19098 8.5 33.4511
    endloop
  endfacet
  facet normal 0 -1 0
    outer loop
      vertex -5.5 8.5 32.5
      vertex 5.69098 8.5 31.9122
      vertex 5.69098 8.5 33.0878
    endloop
  endfacet
  facet normal 0 -1 0
    outer loop
      vertex -6.19098 8.5 31.5489
      vertex 5.69098 8.5 31.9122
      vertex -5.5 8.5 32.5
    endloop
  endfacet
  facet normal 0 -1 -0
    outer loop
      vertex 5.69098 8.5 31.9122
      vertex -6.19098 8.5 31.5489
      vertex 6.80902 8.5 31.5489
    endloop
  endfacet
  facet normal 0 -1 0
    outer loop
      vertex 5.69098 8.5 56.9122
      vertex 5.69098 8.5 45.5878
      vertex 6.80902 8.5 45.9511
    endloop
  endfacet
  facet normal 0 -1 0
    outer loop
      vertex -5.5 8.5 45
      vertex 5.69098 8.5 45.5878
      vertex -6.19098 8.5 45.9511
    endloop
  endfacet
  facet normal 0 -1 0
    outer loop
      vertex -5.5 8.5 45
      vertex 5.69098 8.5 44.4122
      vertex 5.69098 8.5 45.5878
    endloop
  endfacet
  facet normal 0 -1 0
    outer loop
      vertex -6.19098 8.5 44.0489
      vertex 5.69098 8.5 44.4122
      vertex -5.5 8.5 45
    endloop
  endfacet
  facet normal 0 -1 0
    outer loop
      vertex -6.19098 8.5 33.4511
      vertex 5.69098 8.5 44.4122
      vertex -6.19098 8.5 44.0489
    endloop
  endfacet
  facet normal 0 -1 0
    outer loop
      vertex -6.19098 8.5 58.4511
      vertex 5.69098 8.5 58.0878
      vertex 6.80902 8.5 58.4511
    endloop
  endfacet
  facet normal 0 -1 0
    outer loop
      vertex -5.5 8.5 57.5
      vertex 5.69098 8.5 58.0878
      vertex -6.19098 8.5 58.4511
    endloop
  endfacet
  facet normal 0 -1 0
    outer loop
      vertex -5.5 8.5 57.5
      vertex 5.69098 8.5 56.9122
      vertex 5.69098 8.5 58.0878
    endloop
  endfacet
  facet normal 0 -1 0
    outer loop
      vertex -6.19098 8.5 56.5489
      vertex 5.69098 8.5 56.9122
      vertex -5.5 8.5 57.5
    endloop
  endfacet
  facet normal 0 -1 0
    outer loop
      vertex -6.19098 8.5 45.9511
      vertex 5.69098 8.5 56.9122
      vertex -6.19098 8.5 56.5489
    endloop
  endfacet
  facet normal 0 -1 0
    outer loop
      vertex -21.25 8.5 150
      vertex -6.19098 8.5 58.4511
      vertex 21.25 8.5 150
    endloop
  endfacet
  facet normal 0 -1 0
    outer loop
      vertex -21.25 8.5 150
      vertex -7.30902 8.5 58.0878
      vertex -6.19098 8.5 58.4511
    endloop
  endfacet
  facet normal 0 -1 0
    outer loop
      vertex -21.25 8.5 1.5
      vertex -7.30902 8.5 58.0878
      vertex -21.25 8.5 150
    endloop
  endfacet
  facet normal 0 -1 0
    outer loop
      vertex 5.69098 8.5 45.5878
      vertex 5.69098 8.5 56.9122
      vertex -6.19098 8.5 45.9511
    endloop
  endfacet
  facet normal 0 -1 0
    outer loop
      vertex -7.30902 8.5 56.9122
      vertex -6.19098 8.5 45.9511
      vertex -6.19098 8.5 56.5489
    endloop
  endfacet
  facet normal 0 -1 -0
    outer loop
      vertex -7.30902 8.5 58.0878
      vertex -21.25 8.5 1.5
      vertex -7.30902 8.5 56.9122
    endloop
  endfacet
  facet normal 0 -1 0
    outer loop
      vertex -7.30902 8.5 56.9122
      vertex -7.30902 8.5 45.5878
      vertex -6.19098 8.5 45.9511
    endloop
  endfacet
  facet normal 0 -1 -0
    outer loop
      vertex -7.30902 8.5 56.9122
      vertex -21.25 8.5 1.5
      vertex -7.30902 8.5 45.5878
    endloop
  endfacet
  facet normal 0 -1 0
    outer loop
      vertex 5.69098 8.5 33.0878
      vertex 5.69098 8.5 44.4122
      vertex -6.19098 8.5 33.4511
    endloop
  endfacet
  facet normal 0 -1 0
    outer loop
      vertex -7.30902 8.5 44.4122
      vertex -6.19098 8.5 33.4511
      vertex -6.19098 8.5 44.0489
    endloop
  endfacet
  facet normal 0 -1 -0
    outer loop
      vertex -7.30902 8.5 45.5878
      vertex -21.25 8.5 1.5
      vertex -7.30902 8.5 44.4122
    endloop
  endfacet
  facet normal 0 -1 0
    outer loop
      vertex -7.30902 8.5 44.4122
      vertex -7.30902 8.5 33.0878
      vertex -6.19098 8.5 33.4511
    endloop
  endfacet
  facet normal 0 -1 -0
    outer loop
      vertex -7.30902 8.5 44.4122
      vertex -21.25 8.5 1.5
      vertex -7.30902 8.5 33.0878
    endloop
  endfacet
  facet normal 0 -1 0
    outer loop
      vertex 21.25 8.5 1.5
      vertex -6.19098 8.5 31.5489
      vertex -21.25 8.5 1.5
    endloop
  endfacet
  facet normal 0 -1 -0
    outer loop
      vertex -7.30902 8.5 31.9122
      vertex -21.25 8.5 1.5
      vertex -6.19098 8.5 31.5489
    endloop
  endfacet
  facet normal 0 -1 -0
    outer loop
      vertex -7.30902 8.5 33.0878
      vertex -21.25 8.5 1.5
      vertex -7.30902 8.5 31.9122
    endloop
  endfacet
  facet normal 0 -1 0
    outer loop
      vertex 6.80902 8.5 58.4511
      vertex 21.25 8.5 150
      vertex -6.19098 8.5 58.4511
    endloop
  endfacet
  facet normal 0 -1 0
    outer loop
      vertex 7.5 8.5 57.5
      vertex 21.25 8.5 150
      vertex 6.80902 8.5 58.4511
    endloop
  endfacet
  facet normal 0 -1 0
    outer loop
      vertex 5.69098 8.5 56.9122
      vertex 6.80902 8.5 45.9511
      vertex 6.80902 8.5 56.5489
    endloop
  endfacet
  facet normal 0 -1 0
    outer loop
      vertex 6.80902 8.5 45.9511
      vertex 7.5 8.5 57.5
      vertex 6.80902 8.5 56.5489
    endloop
  endfacet
  facet normal 0 -1 0
    outer loop
      vertex 7.5 8.5 45
      vertex 7.5 8.5 57.5
      vertex 6.80902 8.5 45.9511
    endloop
  endfacet
  facet normal 0 -1 0
    outer loop
      vertex 21.25 8.5 1.5
      vertex 7.5 8.5 57.5
      vertex 7.5 8.5 45
    endloop
  endfacet
  facet normal 0 -1 0
    outer loop
      vertex 5.69098 8.5 44.4122
      vertex 6.80902 8.5 33.4511
      vertex 6.80902 8.5 44.0489
    endloop
  endfacet
  facet normal 0 -1 0
    outer loop
      vertex 6.80902 8.5 33.4511
      vertex 7.5 8.5 45
      vertex 6.80902 8.5 44.0489
    endloop
  endfacet
  facet normal 0 -1 0
    outer loop
      vertex 7.5 8.5 32.5
      vertex 7.5 8.5 45
      vertex 6.80902 8.5 33.4511
    endloop
  endfacet
  facet normal 0 -1 0
    outer loop
      vertex 21.25 8.5 1.5
      vertex 7.5 8.5 45
      vertex 7.5 8.5 32.5
    endloop
  endfacet
  facet normal 0 -1 0
    outer loop
      vertex 7.5 8.5 57.5
      vertex 21.25 8.5 1.5
      vertex 21.25 8.5 150
    endloop
  endfacet
  facet normal 0 -1 0
    outer loop
      vertex 6.80902 8.5 31.5489
      vertex 21.25 8.5 1.5
      vertex 7.5 8.5 32.5
    endloop
  endfacet
  facet normal 0 -1 0
    outer loop
      vertex -6.19098 8.5 31.5489
      vertex 21.25 8.5 1.5
      vertex 6.80902 8.5 31.5489
    endloop
  endfacet
  facet normal -0.195091 -0.980785 0
    outer loop
      vertex 21.25 8.5 1.5
      vertex 23.1634 8.1194 150
      vertex 21.25 8.5 150
    endloop
  endfacet
  facet normal -0.195091 -0.980785 -0
    outer loop
      vertex 23.1634 8.1194 150
      vertex 21.25 8.5 1.5
      vertex 23.1634 8.1194 1.5
    endloop
  endfacet
  facet normal 0.980785 0.195091 0
    outer loop
      vertex -25.8694 -13.4134 150
      vertex -26.25 -11.5 1.5
      vertex -26.25 -11.5 150
    endloop
  endfacet
  facet normal 0.980785 0.195091 0
    outer loop
      vertex -26.25 -11.5 1.5
      vertex -25.8694 -13.4134 150
      vertex -25.8694 -13.4134 1.5
    endloop
  endfacet
  facet normal 0.195091 -0.980785 0
    outer loop
      vertex -23.1634 8.1194 1.5
      vertex -21.25 8.5 150
      vertex -23.1634 8.1194 150
    endloop
  endfacet
  facet normal 0.195091 -0.980785 0
    outer loop
      vertex -21.25 8.5 150
      vertex -23.1634 8.1194 1.5
      vertex -21.25 8.5 1.5
    endloop
  endfacet
  facet normal 0.55557 -0.83147 0
    outer loop
      vertex -24.7855 7.03553 1.5
      vertex -23.1634 8.1194 150
      vertex -24.7855 7.03553 150
    endloop
  endfacet
  facet normal 0.55557 -0.83147 0
    outer loop
      vertex -23.1634 8.1194 150
      vertex -24.7855 7.03553 1.5
      vertex -23.1634 8.1194 1.5
    endloop
  endfacet
  facet normal 0 1 0
    outer loop
      vertex 21.25 -16.5 150
      vertex 0.482146 -16.5 53.9708
      vertex -21.25 -16.5 150
    endloop
  endfacet
  facet normal 0 1 0
    outer loop
      vertex 21.25 -16.5 150
      vertex 2.27226 -16.5 53.2919
      vertex 0.482146 -16.5 53.9708
    endloop
  endfacet
  facet normal 0 1 0
    outer loop
      vertex 21.25 -16.5 150
      vertex 3.54182 -16.5 51.8589
      vertex 2.27226 -16.5 53.2919
    endloop
  endfacet
  facet normal 0 1 0
    outer loop
      vertex 21.25 -16.5 150
      vertex 4 -16.5 50
      vertex 3.54182 -16.5 51.8589
    endloop
  endfacet
  facet normal 0 1 0
    outer loop
      vertex 2.27226 -16.5 46.7081
      vertex 21.25 -16.5 1.5
      vertex 0.482146 -16.5 46.0292
    endloop
  endfacet
  facet normal 0 1 0
    outer loop
      vertex 3.54182 -16.5 48.1411
      vertex 21.25 -16.5 1.5
      vertex 2.27226 -16.5 46.7081
    endloop
  endfacet
  facet normal 0 1 0
    outer loop
      vertex 4 -16.5 50
      vertex 21.25 -16.5 1.5
      vertex 3.54182 -16.5 48.1411
    endloop
  endfacet
  facet normal 0 1 -0
    outer loop
      vertex 21.25 -16.5 1.5
      vertex 4 -16.5 50
      vertex 21.25 -16.5 150
    endloop
  endfacet
  facet normal 0 1 -0
    outer loop
      vertex -1.41842 -16.5 53.7401
      vertex -21.25 -16.5 150
      vertex 0.482146 -16.5 53.9708
    endloop
  endfacet
  facet normal 0 1 -0
    outer loop
      vertex -2.99404 -16.5 52.6525
      vertex -21.25 -16.5 150
      vertex -1.41842 -16.5 53.7401
    endloop
  endfacet
  facet normal 0 1 -0
    outer loop
      vertex -3.88377 -16.5 50.9573
      vertex -21.25 -16.5 150
      vertex -2.99404 -16.5 52.6525
    endloop
  endfacet
  facet normal 0 1 0
    outer loop
      vertex -21.25 -16.5 1.5
      vertex -3.88377 -16.5 50.9573
      vertex -3.88377 -16.5 49.0427
    endloop
  endfacet
  facet normal 0 1 0
    outer loop
      vertex -21.25 -16.5 1.5
      vertex 0.482146 -16.5 46.0292
      vertex 21.25 -16.5 1.5
    endloop
  endfacet
  facet normal 0 1 0
    outer loop
      vertex 0.482146 -16.5 46.0292
      vertex -21.25 -16.5 1.5
      vertex -1.41842 -16.5 46.2599
    endloop
  endfacet
  facet normal 0 1 0
    outer loop
      vertex -3.88377 -16.5 50.9573
      vertex -21.25 -16.5 1.5
      vertex -21.25 -16.5 150
    endloop
  endfacet
  facet normal 0 1 0
    outer loop
      vertex -2.99404 -16.5 47.3475
      vertex -21.25 -16.5 1.5
      vertex -3.88377 -16.5 49.0427
    endloop
  endfacet
  facet normal 0 1 0
    outer loop
      vertex -1.41842 -16.5 46.2599
      vertex -21.25 -16.5 1.5
      vertex -2.99404 -16.5 47.3475
    endloop
  endfacet
  facet normal 0.55557 0.83147 -0
    outer loop
      vertex -23.1634 -16.1194 1.5
      vertex -24.7855 -15.0355 150
      vertex -23.1634 -16.1194 150
    endloop
  endfacet
  facet normal 0.55557 0.83147 0
    outer loop
      vertex -24.7855 -15.0355 150
      vertex -23.1634 -16.1194 1.5
      vertex -24.7855 -15.0355 1.5
    endloop
  endfacet
  facet normal -0.195091 0.980785 0
    outer loop
      vertex 23.1634 -16.1194 1.5
      vertex 21.25 -16.5 150
      vertex 23.1634 -16.1194 150
    endloop
  endfacet
  facet normal -0.195091 0.980785 0
    outer loop
      vertex 21.25 -16.5 150
      vertex 23.1634 -16.1194 1.5
      vertex 21.25 -16.5 1.5
    endloop
  endfacet
  facet normal -0.980785 -0.195093 0
    outer loop
      vertex 26.0014 4.75 1.5
      vertex 25.8694 5.41342 150
      vertex 25.8694 5.41342 1.5
    endloop
  endfacet
  facet normal -0.980785 -0.195093 0
    outer loop
      vertex 25.8694 5.41342 150
      vertex 26.0014 4.75 1.5
      vertex 26.0014 4.75 150
    endloop
  endfacet
  facet normal 0.83147 -0.55557 0
    outer loop
      vertex -25.8694 5.41342 150
      vertex -24.7855 7.03553 1.5
      vertex -24.7855 7.03553 150
    endloop
  endfacet
  facet normal 0.83147 -0.55557 0
    outer loop
      vertex -24.7855 7.03553 1.5
      vertex -25.8694 5.41342 150
      vertex -25.8694 5.41342 1.5
    endloop
  endfacet
  facet normal 1 -0 0
    outer loop
      vertex -26.25 -11.5 150
      vertex -26.25 3.5 1.5
      vertex -26.25 3.5 150
    endloop
  endfacet
  facet normal 1 0 0
    outer loop
      vertex -26.25 3.5 1.5
      vertex -26.25 -11.5 150
      vertex -26.25 -11.5 1.5
    endloop
  endfacet
  facet normal 0.980785 -0.195091 0
    outer loop
      vertex -26.25 3.5 150
      vertex -25.8694 5.41342 1.5
      vertex -25.8694 5.41342 150
    endloop
  endfacet
  facet normal 0.980785 -0.195091 0
    outer loop
      vertex -25.8694 5.41342 1.5
      vertex -26.25 3.5 150
      vertex -26.25 3.5 1.5
    endloop
  endfacet
  facet normal -0.55557 -0.83147 0
    outer loop
      vertex 23.1634 8.1194 1.5
      vertex 24.7855 7.03553 150
      vertex 23.1634 8.1194 150
    endloop
  endfacet
  facet normal -0.55557 -0.83147 -0
    outer loop
      vertex 24.7855 7.03553 150
      vertex 23.1634 8.1194 1.5
      vertex 24.7855 7.03553 1.5
    endloop
  endfacet
  facet normal -0.83147 -0.55557 0
    outer loop
      vertex 25.8694 5.41342 1.5
      vertex 24.7855 7.03553 150
      vertex 24.7855 7.03553 1.5
    endloop
  endfacet
  facet normal -0.83147 -0.55557 0
    outer loop
      vertex 24.7855 7.03553 150
      vertex 25.8694 5.41342 1.5
      vertex 25.8694 5.41342 150
    endloop
  endfacet
  facet normal -1 0 0
    outer loop
      vertex 26.25 -11.5 1.5
      vertex 26.25 -2.75 150
      vertex 26.25 -2.75 1.5
    endloop
  endfacet
  facet normal -1 -0 0
    outer loop
      vertex 26.25 -2.75 150
      vertex 26.25 -11.5 1.5
      vertex 26.25 -11.5 150
    endloop
  endfacet
  facet normal 0.83147 0.55557 0
    outer loop
      vertex -24.7855 -15.0355 150
      vertex -25.8694 -13.4134 1.5
      vertex -25.8694 -13.4134 150
    endloop
  endfacet
  facet normal 0.83147 0.55557 0
    outer loop
      vertex -25.8694 -13.4134 1.5
      vertex -24.7855 -15.0355 150
      vertex -24.7855 -15.0355 1.5
    endloop
  endfacet
  facet normal -0.83147 0.55557 0
    outer loop
      vertex 24.7855 -15.0355 1.5
      vertex 25.8694 -13.4134 150
      vertex 25.8694 -13.4134 1.5
    endloop
  endfacet
  facet normal -0.83147 0.55557 0
    outer loop
      vertex 25.8694 -13.4134 150
      vertex 24.7855 -15.0355 1.5
      vertex 24.7855 -15.0355 150
    endloop
  endfacet
  facet normal -0.55557 0.83147 0
    outer loop
      vertex 24.7855 -15.0355 1.5
      vertex 23.1634 -16.1194 150
      vertex 24.7855 -15.0355 150
    endloop
  endfacet
  facet normal -0.55557 0.83147 0
    outer loop
      vertex 23.1634 -16.1194 150
      vertex 24.7855 -15.0355 1.5
      vertex 23.1634 -16.1194 1.5
    endloop
  endfacet
  facet normal -0.980785 0.195091 0
    outer loop
      vertex 25.8694 -13.4134 1.5
      vertex 26.25 -11.5 150
      vertex 26.25 -11.5 1.5
    endloop
  endfacet
  facet normal -0.980785 0.195091 0
    outer loop
      vertex 26.25 -11.5 150
      vertex 25.8694 -13.4134 1.5
      vertex 25.8694 -13.4134 150
    endloop
  endfacet
  facet normal -0 0 -1
    outer loop
      vertex 27.75 -12.5 1.5
      vertex 25.8694 -13.4134 1.5
      vertex 26.25 -11.5 1.5
    endloop
  endfacet
  facet normal 0 0 -1
    outer loop
      vertex 26.2855 -16.0355 1.5
      vertex 24.7855 -15.0355 1.5
      vertex 25.8694 -13.4134 1.5
    endloop
  endfacet
  facet normal 0 0 -1
    outer loop
      vertex 24.6634 -17.1194 1.5
      vertex 24.7855 -15.0355 1.5
      vertex 26.2855 -16.0355 1.5
    endloop
  endfacet
  facet normal 0 0 -1
    outer loop
      vertex 24.6634 -17.1194 1.5
      vertex 23.1634 -16.1194 1.5
      vertex 24.7855 -15.0355 1.5
    endloop
  endfacet
  facet normal 0 0 -1
    outer loop
      vertex 22.75 -17.5 1.5
      vertex 23.1634 -16.1194 1.5
      vertex 24.6634 -17.1194 1.5
    endloop
  endfacet
  facet normal 0 0 -1
    outer loop
      vertex 22.75 -17.5 1.5
      vertex 21.25 -16.5 1.5
      vertex 23.1634 -16.1194 1.5
    endloop
  endfacet
  facet normal 0 0 -1
    outer loop
      vertex 22.75 -17.5 1.5
      vertex -21.25 -16.5 1.5
      vertex 21.25 -16.5 1.5
    endloop
  endfacet
  facet normal 0 0 -1
    outer loop
      vertex -22.75 -17.5 1.5
      vertex -21.25 -16.5 1.5
      vertex 22.75 -17.5 1.5
    endloop
  endfacet
  facet normal 0 0 -1
    outer loop
      vertex -22.75 -17.5 1.5
      vertex -23.1634 -16.1194 1.5
      vertex -21.25 -16.5 1.5
    endloop
  endfacet
  facet normal 0 0 -1
    outer loop
      vertex -24.6634 -17.1194 1.5
      vertex -23.1634 -16.1194 1.5
      vertex -22.75 -17.5 1.5
    endloop
  endfacet
  facet normal 0 0 -1
    outer loop
      vertex -24.6634 -17.1194 1.5
      vertex -24.7855 -15.0355 1.5
      vertex -23.1634 -16.1194 1.5
    endloop
  endfacet
  facet normal 0 0 -1
    outer loop
      vertex -26.2855 -16.0355 1.5
      vertex -24.7855 -15.0355 1.5
      vertex -24.6634 -17.1194 1.5
    endloop
  endfacet
  facet normal 0 0 -1
    outer loop
      vertex -27.75 -12.5 1.5
      vertex -25.8694 -13.4134 1.5
      vertex -27.3694 -14.4134 1.5
    endloop
  endfacet
  facet normal 0 0 -1
    outer loop
      vertex -27.3694 -14.4134 1.5
      vertex -25.8694 -13.4134 1.5
      vertex -26.2855 -16.0355 1.5
    endloop
  endfacet
  facet normal -0 0 -1
    outer loop
      vertex -24.7855 -15.0355 1.5
      vertex -26.2855 -16.0355 1.5
      vertex -25.8694 -13.4134 1.5
    endloop
  endfacet
  facet normal 0 0 -1
    outer loop
      vertex 25.8694 -13.4134 1.5
      vertex 27.75 -12.5 1.5
      vertex 27.3694 -14.4134 1.5
    endloop
  endfacet
  facet normal 0 0 -1
    outer loop
      vertex 25.8694 -13.4134 1.5
      vertex 27.3694 -14.4134 1.5
      vertex 26.2855 -16.0355 1.5
    endloop
  endfacet
  facet normal 0 0 -1
    outer loop
      vertex 27.75 -12.5 1.5
      vertex 26.25 -11.5 1.5
      vertex 27.75 -2.75 1.5
    endloop
  endfacet
  facet normal -0 0 -1
    outer loop
      vertex 27.75 -2.75 1.5
      vertex 26.25 -11.5 1.5
      vertex 26.25 -2.75 1.5
    endloop
  endfacet
  facet normal 0 0 -1
    outer loop
      vertex 25.8694 5.41342 1.5
      vertex 27.3694 6.41342 1.5
      vertex 27.7003 4.75 1.5
    endloop
  endfacet
  facet normal 0 0 -1
    outer loop
      vertex 25.8694 5.41342 1.5
      vertex 27.7003 4.75 1.5
      vertex 26.0014 4.75 1.5
    endloop
  endfacet
  facet normal -0 0 -1
    outer loop
      vertex 27.3694 6.41342 1.5
      vertex 25.8694 5.41342 1.5
      vertex 26.2855 8.03553 1.5
    endloop
  endfacet
  facet normal 0 0 -1
    outer loop
      vertex 24.7855 7.03553 1.5
      vertex 26.2855 8.03553 1.5
      vertex 25.8694 5.41342 1.5
    endloop
  endfacet
  facet normal 0 0 -1
    outer loop
      vertex 24.7855 7.03553 1.5
      vertex 24.6634 9.1194 1.5
      vertex 26.2855 8.03553 1.5
    endloop
  endfacet
  facet normal 0 0 -1
    outer loop
      vertex 23.1634 8.1194 1.5
      vertex 24.6634 9.1194 1.5
      vertex 24.7855 7.03553 1.5
    endloop
  endfacet
  facet normal 0 0 -1
    outer loop
      vertex 23.1634 8.1194 1.5
      vertex 22.75 9.5 1.5
      vertex 24.6634 9.1194 1.5
    endloop
  endfacet
  facet normal 0 0 -1
    outer loop
      vertex 21.25 8.5 1.5
      vertex 22.75 9.5 1.5
      vertex 23.1634 8.1194 1.5
    endloop
  endfacet
  facet normal 0 0 -1
    outer loop
      vertex -21.25 8.5 1.5
      vertex 22.75 9.5 1.5
      vertex 21.25 8.5 1.5
    endloop
  endfacet
  facet normal 0 0 -1
    outer loop
      vertex -21.25 8.5 1.5
      vertex -22.75 9.5 1.5
      vertex 22.75 9.5 1.5
    endloop
  endfacet
  facet normal 0 0 -1
    outer loop
      vertex -23.1634 8.1194 1.5
      vertex -22.75 9.5 1.5
      vertex -21.25 8.5 1.5
    endloop
  endfacet
  facet normal 0 0 -1
    outer loop
      vertex -23.1634 8.1194 1.5
      vertex -24.6634 9.1194 1.5
      vertex -22.75 9.5 1.5
    endloop
  endfacet
  facet normal 0 0 -1
    outer loop
      vertex -24.7855 7.03553 1.5
      vertex -24.6634 9.1194 1.5
      vertex -23.1634 8.1194 1.5
    endloop
  endfacet
  facet normal 0 0 -1
    outer loop
      vertex -26.2855 8.03553 1.5
      vertex -24.7855 7.03553 1.5
      vertex -25.8694 5.41342 1.5
    endloop
  endfacet
  facet normal 0 0 -1
    outer loop
      vertex -24.7855 7.03553 1.5
      vertex -26.2855 8.03553 1.5
      vertex -24.6634 9.1194 1.5
    endloop
  endfacet
  facet normal 0 0 -1
    outer loop
      vertex -27.75 4.5 1.5
      vertex -25.8694 5.41342 1.5
      vertex -26.25 3.5 1.5
    endloop
  endfacet
  facet normal -0 0 -1
    outer loop
      vertex -26.25 -11.5 1.5
      vertex -27.75 -12.5 1.5
      vertex -26.25 3.5 1.5
    endloop
  endfacet
  facet normal 0 0 -1
    outer loop
      vertex -25.8694 -13.4134 1.5
      vertex -27.75 -12.5 1.5
      vertex -26.25 -11.5 1.5
    endloop
  endfacet
  facet normal 0 0 -1
    outer loop
      vertex -27.75 4.5 1.5
      vertex -26.25 3.5 1.5
      vertex -27.75 -12.5 1.5
    endloop
  endfacet
  facet normal -0 0 -1
    outer loop
      vertex -25.8694 5.41342 1.5
      vertex -27.75 4.5 1.5
      vertex -27.3694 6.41342 1.5
    endloop
  endfacet
  facet normal 0 0 -1
    outer loop
      vertex -25.8694 5.41342 1.5
      vertex -27.3694 6.41342 1.5
      vertex -26.2855 8.03553 1.5
    endloop
  endfacet
  facet normal 0 -1 0
    outer loop
      vertex 26.0014 4.75 1.5
      vertex 27.7003 4.75 150
      vertex 26.0014 4.75 150
    endloop
  endfacet
  facet normal 0 -1 -0
    outer loop
      vertex 27.7003 4.75 150
      vertex 26.0014 4.75 1.5
      vertex 27.7003 4.75 1.5
    endloop
  endfacet
  facet normal 0 1 -0
    outer loop
      vertex 27.75 -2.75 1.5
      vertex 26.25 -2.75 150
      vertex 27.75 -2.75 150
    endloop
  endfacet
  facet normal 0 1 0
    outer loop
      vertex 26.25 -2.75 150
      vertex 27.75 -2.75 1.5
      vertex 26.25 -2.75 1.5
    endloop
  endfacet
  facet normal -0.809017 0 -0.587785
    outer loop
      vertex 7.5 8.5 57.5
      vertex 6.80902 9.5 58.4511
      vertex 7.5 9.5 57.5
    endloop
  endfacet
  facet normal -0.809017 -0 -0.587785
    outer loop
      vertex 6.80902 9.5 58.4511
      vertex 7.5 8.5 57.5
      vertex 6.80902 8.5 58.4511
    endloop
  endfacet
  facet normal 0.309019 0 -0.951056
    outer loop
      vertex 5.69098 8.5 58.0878
      vertex 6.80902 9.5 58.4511
      vertex 6.80902 8.5 58.4511
    endloop
  endfacet
  facet normal 0.309019 0 -0.951056
    outer loop
      vertex 6.80902 9.5 58.4511
      vertex 5.69098 8.5 58.0878
      vertex 5.69098 9.5 58.0878
    endloop
  endfacet
  facet normal 1 -0 0
    outer loop
      vertex 5.69098 8.5 58.0878
      vertex 5.69098 9.5 56.9122
      vertex 5.69098 9.5 58.0878
    endloop
  endfacet
  facet normal 1 0 0
    outer loop
      vertex 5.69098 9.5 56.9122
      vertex 5.69098 8.5 58.0878
      vertex 5.69098 8.5 56.9122
    endloop
  endfacet
  facet normal 0.309019 0 0.951056
    outer loop
      vertex 5.69098 9.5 56.9122
      vertex 6.80902 8.5 56.5489
      vertex 6.80902 9.5 56.5489
    endloop
  endfacet
  facet normal 0.309019 0 0.951056
    outer loop
      vertex 6.80902 8.5 56.5489
      vertex 5.69098 9.5 56.9122
      vertex 5.69098 8.5 56.9122
    endloop
  endfacet
  facet normal -0.809017 0 0.587785
    outer loop
      vertex 6.80902 8.5 56.5489
      vertex 7.5 9.5 57.5
      vertex 6.80902 9.5 56.5489
    endloop
  endfacet
  facet normal -0.809017 0 0.587785
    outer loop
      vertex 7.5 9.5 57.5
      vertex 6.80902 8.5 56.5489
      vertex 7.5 8.5 57.5
    endloop
  endfacet
  facet normal -0.809017 0 -0.587785
    outer loop
      vertex -5.5 8.5 57.5
      vertex -6.19098 9.5 58.4511
      vertex -5.5 9.5 57.5
    endloop
  endfacet
  facet normal -0.809017 -0 -0.587785
    outer loop
      vertex -6.19098 9.5 58.4511
      vertex -5.5 8.5 57.5
      vertex -6.19098 8.5 58.4511
    endloop
  endfacet
  facet normal 0.309019 0 -0.951056
    outer loop
      vertex -7.30902 8.5 58.0878
      vertex -6.19098 9.5 58.4511
      vertex -6.19098 8.5 58.4511
    endloop
  endfacet
  facet normal 0.309019 0 -0.951056
    outer loop
      vertex -6.19098 9.5 58.4511
      vertex -7.30902 8.5 58.0878
      vertex -7.30902 9.5 58.0878
    endloop
  endfacet
  facet normal 1 -0 0
    outer loop
      vertex -7.30902 8.5 58.0878
      vertex -7.30902 9.5 56.9122
      vertex -7.30902 9.5 58.0878
    endloop
  endfacet
  facet normal 1 0 0
    outer loop
      vertex -7.30902 9.5 56.9122
      vertex -7.30902 8.5 58.0878
      vertex -7.30902 8.5 56.9122
    endloop
  endfacet
  facet normal 0.309019 0 0.951056
    outer loop
      vertex -7.30902 9.5 56.9122
      vertex -6.19098 8.5 56.5489
      vertex -6.19098 9.5 56.5489
    endloop
  endfacet
  facet normal 0.309019 0 0.951056
    outer loop
      vertex -6.19098 8.5 56.5489
      vertex -7.30902 9.5 56.9122
      vertex -7.30902 8.5 56.9122
    endloop
  endfacet
  facet normal -0.809017 0 0.587785
    outer loop
      vertex -6.19098 8.5 56.5489
      vertex -5.5 9.5 57.5
      vertex -6.19098 9.5 56.5489
    endloop
  endfacet
  facet normal -0.809017 0 0.587785
    outer loop
      vertex -5.5 9.5 57.5
      vertex -6.19098 8.5 56.5489
      vertex -5.5 8.5 57.5
    endloop
  endfacet
  facet normal -0.809017 0 -0.587785
    outer loop
      vertex 7.5 8.5 32.5
      vertex 6.80902 9.5 33.4511
      vertex 7.5 9.5 32.5
    endloop
  endfacet
  facet normal -0.809017 -0 -0.587785
    outer loop
      vertex 6.80902 9.5 33.4511
      vertex 7.5 8.5 32.5
      vertex 6.80902 8.5 33.4511
    endloop
  endfacet
  facet normal 0.309019 0 -0.951056
    outer loop
      vertex 5.69098 8.5 33.0878
      vertex 6.80902 9.5 33.4511
      vertex 6.80902 8.5 33.4511
    endloop
  endfacet
  facet normal 0.309019 0 -0.951056
    outer loop
      vertex 6.80902 9.5 33.4511
      vertex 5.69098 8.5 33.0878
      vertex 5.69098 9.5 33.0878
    endloop
  endfacet
  facet normal 1 -0 0
    outer loop
      vertex 5.69098 8.5 33.0878
      vertex 5.69098 9.5 31.9122
      vertex 5.69098 9.5 33.0878
    endloop
  endfacet
  facet normal 1 0 0
    outer loop
      vertex 5.69098 9.5 31.9122
      vertex 5.69098 8.5 33.0878
      vertex 5.69098 8.5 31.9122
    endloop
  endfacet
  facet normal 0.309017 0 0.951056
    outer loop
      vertex 5.69098 9.5 31.9122
      vertex 6.80902 8.5 31.5489
      vertex 6.80902 9.5 31.5489
    endloop
  endfacet
  facet normal 0.309017 0 0.951056
    outer loop
      vertex 6.80902 8.5 31.5489
      vertex 5.69098 9.5 31.9122
      vertex 5.69098 8.5 31.9122
    endloop
  endfacet
  facet normal -0.809017 0 0.587785
    outer loop
      vertex 6.80902 8.5 31.5489
      vertex 7.5 9.5 32.5
      vertex 6.80902 9.5 31.5489
    endloop
  endfacet
  facet normal -0.809017 0 0.587785
    outer loop
      vertex 7.5 9.5 32.5
      vertex 6.80902 8.5 31.5489
      vertex 7.5 8.5 32.5
    endloop
  endfacet
  facet normal -0.809017 0 -0.587785
    outer loop
      vertex -5.5 8.5 32.5
      vertex -6.19098 9.5 33.4511
      vertex -5.5 9.5 32.5
    endloop
  endfacet
  facet normal -0.809017 -0 -0.587785
    outer loop
      vertex -6.19098 9.5 33.4511
      vertex -5.5 8.5 32.5
      vertex -6.19098 8.5 33.4511
    endloop
  endfacet
  facet normal 0.309019 0 -0.951056
    outer loop
      vertex -7.30902 8.5 33.0878
      vertex -6.19098 9.5 33.4511
      vertex -6.19098 8.5 33.4511
    endloop
  endfacet
  facet normal 0.309019 0 -0.951056
    outer loop
      vertex -6.19098 9.5 33.4511
      vertex -7.30902 8.5 33.0878
      vertex -7.30902 9.5 33.0878
    endloop
  endfacet
  facet normal 1 -0 0
    outer loop
      vertex -7.30902 8.5 33.0878
      vertex -7.30902 9.5 31.9122
      vertex -7.30902 9.5 33.0878
    endloop
  endfacet
  facet normal 1 0 0
    outer loop
      vertex -7.30902 9.5 31.9122
      vertex -7.30902 8.5 33.0878
      vertex -7.30902 8.5 31.9122
    endloop
  endfacet
  facet normal 0.309017 0 0.951056
    outer loop
      vertex -7.30902 9.5 31.9122
      vertex -6.19098 8.5 31.5489
      vertex -6.19098 9.5 31.5489
    endloop
  endfacet
  facet normal 0.309017 0 0.951056
    outer loop
      vertex -6.19098 8.5 31.5489
      vertex -7.30902 9.5 31.9122
      vertex -7.30902 8.5 31.9122
    endloop
  endfacet
  facet normal -0.809017 0 0.587785
    outer loop
      vertex -6.19098 8.5 31.5489
      vertex -5.5 9.5 32.5
      vertex -6.19098 9.5 31.5489
    endloop
  endfacet
  facet normal -0.809017 0 0.587785
    outer loop
      vertex -5.5 9.5 32.5
      vertex -6.19098 8.5 31.5489
      vertex -5.5 8.5 32.5
    endloop
  endfacet
  facet normal -0.809017 0 -0.587785
    outer loop
      vertex 7.5 8.5 45
      vertex 6.80902 9.5 45.9511
      vertex 7.5 9.5 45
    endloop
  endfacet
  facet normal -0.809017 -0 -0.587785
    outer loop
      vertex 6.80902 9.5 45.9511
      vertex 7.5 8.5 45
      vertex 6.80902 8.5 45.9511
    endloop
  endfacet
  facet normal 0.309019 0 -0.951056
    outer loop
      vertex 5.69098 8.5 45.5878
      vertex 6.80902 9.5 45.9511
      vertex 6.80902 8.5 45.9511
    endloop
  endfacet
  facet normal 0.309019 0 -0.951056
    outer loop
      vertex 6.80902 9.5 45.9511
      vertex 5.69098 8.5 45.5878
      vertex 5.69098 9.5 45.5878
    endloop
  endfacet
  facet normal 1 -0 0
    outer loop
      vertex 5.69098 8.5 45.5878
      vertex 5.69098 9.5 44.4122
      vertex 5.69098 9.5 45.5878
    endloop
  endfacet
  facet normal 1 0 0
    outer loop
      vertex 5.69098 9.5 44.4122
      vertex 5.69098 8.5 45.5878
      vertex 5.69098 8.5 44.4122
    endloop
  endfacet
  facet normal 0.309019 0 0.951056
    outer loop
      vertex 5.69098 9.5 44.4122
      vertex 6.80902 8.5 44.0489
      vertex 6.80902 9.5 44.0489
    endloop
  endfacet
  facet normal 0.309019 0 0.951056
    outer loop
      vertex 6.80902 8.5 44.0489
      vertex 5.69098 9.5 44.4122
      vertex 5.69098 8.5 44.4122
    endloop
  endfacet
  facet normal -0.809017 0 0.587785
    outer loop
      vertex 6.80902 8.5 44.0489
      vertex 7.5 9.5 45
      vertex 6.80902 9.5 44.0489
    endloop
  endfacet
  facet normal -0.809017 0 0.587785
    outer loop
      vertex 7.5 9.5 45
      vertex 6.80902 8.5 44.0489
      vertex 7.5 8.5 45
    endloop
  endfacet
  facet normal -0.809017 0 -0.587785
    outer loop
      vertex -5.5 8.5 45
      vertex -6.19098 9.5 45.9511
      vertex -5.5 9.5 45
    endloop
  endfacet
  facet normal -0.809017 -0 -0.587785
    outer loop
      vertex -6.19098 9.5 45.9511
      vertex -5.5 8.5 45
      vertex -6.19098 8.5 45.9511
    endloop
  endfacet
  facet normal 0.309019 0 -0.951056
    outer loop
      vertex -7.30902 8.5 45.5878
      vertex -6.19098 9.5 45.9511
      vertex -6.19098 8.5 45.9511
    endloop
  endfacet
  facet normal 0.309019 0 -0.951056
    outer loop
      vertex -6.19098 9.5 45.9511
      vertex -7.30902 8.5 45.5878
      vertex -7.30902 9.5 45.5878
    endloop
  endfacet
  facet normal 1 -0 0
    outer loop
      vertex -7.30902 8.5 45.5878
      vertex -7.30902 9.5 44.4122
      vertex -7.30902 9.5 45.5878
    endloop
  endfacet
  facet normal 1 0 0
    outer loop
      vertex -7.30902 9.5 44.4122
      vertex -7.30902 8.5 45.5878
      vertex -7.30902 8.5 44.4122
    endloop
  endfacet
  facet normal 0.309019 0 0.951056
    outer loop
      vertex -7.30902 9.5 44.4122
      vertex -6.19098 8.5 44.0489
      vertex -6.19098 9.5 44.0489
    endloop
  endfacet
  facet normal 0.309019 0 0.951056
    outer loop
      vertex -6.19098 8.5 44.0489
      vertex -7.30902 9.5 44.4122
      vertex -7.30902 8.5 44.4122
    endloop
  endfacet
  facet normal -0.809017 0 0.587785
    outer loop
      vertex -6.19098 8.5 44.0489
      vertex -5.5 9.5 45
      vertex -6.19098 9.5 44.0489
    endloop
  endfacet
  facet normal -0.809017 0 0.587785
    outer loop
      vertex -5.5 9.5 45
      vertex -6.19098 8.5 44.0489
      vertex -5.5 8.5 45
    endloop
  endfacet
  facet normal -0.970942 0 -0.239316
    outer loop
      vertex 4 -17.5 50
      vertex 3.54182 -16.5 51.8589
      vertex 4 -16.5 50
    endloop
  endfacet
  facet normal -0.970942 -0 -0.239316
    outer loop
      vertex 3.54182 -16.5 51.8589
      vertex 4 -17.5 50
      vertex 3.54182 -17.5 51.8589
    endloop
  endfacet
  facet normal -0.74851 0 -0.663123
    outer loop
      vertex 3.54182 -17.5 51.8589
      vertex 2.27226 -16.5 53.2919
      vertex 3.54182 -16.5 51.8589
    endloop
  endfacet
  facet normal -0.74851 -0 -0.663123
    outer loop
      vertex 2.27226 -16.5 53.2919
      vertex 3.54182 -17.5 51.8589
      vertex 2.27226 -17.5 53.2919
    endloop
  endfacet
  facet normal 1 -0 0
    outer loop
      vertex -3.88377 -17.5 50.9573
      vertex -3.88377 -16.5 49.0427
      vertex -3.88377 -16.5 50.9573
    endloop
  endfacet
  facet normal 1 0 0
    outer loop
      vertex -3.88377 -16.5 49.0427
      vertex -3.88377 -17.5 50.9573
      vertex -3.88377 -17.5 49.0427
    endloop
  endfacet
  facet normal -0.354606 0 0.935016
    outer loop
      vertex 0.482146 -16.5 46.0292
      vertex 2.27226 -17.5 46.7081
      vertex 2.27226 -16.5 46.7081
    endloop
  endfacet
  facet normal -0.354606 0 0.935016
    outer loop
      vertex 2.27226 -17.5 46.7081
      vertex 0.482146 -16.5 46.0292
      vertex 0.482146 -17.5 46.0292
    endloop
  endfacet
  facet normal 0.568066 0 -0.822983
    outer loop
      vertex -2.99404 -17.5 52.6525
      vertex -1.41842 -16.5 53.7401
      vertex -1.41842 -17.5 53.7401
    endloop
  endfacet
  facet normal 0.568066 0 -0.822983
    outer loop
      vertex -1.41842 -16.5 53.7401
      vertex -2.99404 -17.5 52.6525
      vertex -2.99404 -16.5 52.6525
    endloop
  endfacet
  facet normal 0.885456 -0 0.464723
    outer loop
      vertex -3.88377 -17.5 49.0427
      vertex -2.99404 -16.5 47.3475
      vertex -3.88377 -16.5 49.0427
    endloop
  endfacet
  facet normal 0.885456 0 0.464723
    outer loop
      vertex -2.99404 -16.5 47.3475
      vertex -3.88377 -17.5 49.0427
      vertex -2.99404 -17.5 47.3475
    endloop
  endfacet
  facet normal -0.354604 0 -0.935017
    outer loop
      vertex 0.482146 -17.5 53.9708
      vertex 2.27226 -16.5 53.2919
      vertex 2.27226 -17.5 53.2919
    endloop
  endfacet
  facet normal -0.354604 0 -0.935017
    outer loop
      vertex 2.27226 -16.5 53.2919
      vertex 0.482146 -17.5 53.9708
      vertex 0.482146 -16.5 53.9708
    endloop
  endfacet
  facet normal 0.120535 0 -0.992709
    outer loop
      vertex -1.41842 -17.5 53.7401
      vertex 0.482146 -16.5 53.9708
      vertex 0.482146 -17.5 53.9708
    endloop
  endfacet
  facet normal 0.120535 0 -0.992709
    outer loop
      vertex 0.482146 -16.5 53.9708
      vertex -1.41842 -17.5 53.7401
      vertex -1.41842 -16.5 53.7401
    endloop
  endfacet
  facet normal 0.885456 0 -0.464723
    outer loop
      vertex -2.99404 -17.5 52.6525
      vertex -3.88377 -16.5 50.9573
      vertex -2.99404 -16.5 52.6525
    endloop
  endfacet
  facet normal 0.885456 0 -0.464723
    outer loop
      vertex -3.88377 -16.5 50.9573
      vertex -2.99404 -17.5 52.6525
      vertex -3.88377 -17.5 50.9573
    endloop
  endfacet
  facet normal -0.74851 0 0.663123
    outer loop
      vertex 2.27226 -17.5 46.7081
      vertex 3.54182 -16.5 48.1411
      vertex 2.27226 -16.5 46.7081
    endloop
  endfacet
  facet normal -0.74851 0 0.663123
    outer loop
      vertex 3.54182 -16.5 48.1411
      vertex 2.27226 -17.5 46.7081
      vertex 3.54182 -17.5 48.1411
    endloop
  endfacet
  facet normal -0.970942 0 0.239316
    outer loop
      vertex 3.54182 -17.5 48.1411
      vertex 4 -16.5 50
      vertex 3.54182 -16.5 48.1411
    endloop
  endfacet
  facet normal -0.970942 0 0.239316
    outer loop
      vertex 4 -16.5 50
      vertex 3.54182 -17.5 48.1411
      vertex 4 -17.5 50
    endloop
  endfacet
  facet normal 0.568065 0 0.822984
    outer loop
      vertex -2.99404 -16.5 47.3475
      vertex -1.41842 -17.5 46.2599
      vertex -1.41842 -16.5 46.2599
    endloop
  endfacet
  facet normal 0.568065 0 0.822984
    outer loop
      vertex -1.41842 -17.5 46.2599
      vertex -2.99404 -16.5 47.3475
      vertex -2.99404 -17.5 47.3475
    endloop
  endfacet
  facet normal 0.120537 0 0.992709
    outer loop
      vertex -1.41842 -16.5 46.2599
      vertex 0.482146 -17.5 46.0292
      vertex 0.482146 -16.5 46.0292
    endloop
  endfacet
  facet normal 0.120537 0 0.992709
    outer loop
      vertex 0.482146 -17.5 46.0292
      vertex -1.41842 -16.5 46.2599
      vertex -1.41842 -17.5 46.2599
    endloop
  endfacet
endsolid OpenSCAD_Model
